<svg id="Capa_1" enable-background="new 0 0 512 512" height="512" viewBox="0 0 512 512" width="512" xmlns="http://www.w3.org/2000/svg"><g><path d="m512 256c0 56.41-18.25 108.56-49.16 150.87-46.57 63.73-121.87 71.487-206.84 71.487-66.33 0-126.77-25.23-172.25-66.61-12.78-11.63-24.38 9.103-34.59-4.877-30.91-42.31-49.16-94.46-49.16-150.87s18.25-108.56 49.16-150.87c12.6-17.23 27.29-32.83 43.7-46.42 8.8-7.28 18.08-13.99 27.81-20.05 1.09-.68 2.19-1.35 3.29-2.02 38.55-23.26 83.73-36.64 132.04-36.64s93.49 13.38 132.04 36.64c29.26 17.65 54.7 40.99 74.8 68.49 30.91 42.31 49.16 94.46 49.16 150.87z" fill="#9d66d5"/><path d="m462.84 87.86v319.01c-46.57 63.73-121.87 105.13-206.84 105.13s-160.27-41.4-206.84-105.13v-319.01c0-28.29 22.93-51.22 51.22-51.22h311.24c28.29 0 51.22 22.93 51.22 51.22z" fill="#f9f6f6"/><path d="m134.97 36.64c-4.96 0-9.76.71-14.3 2.02-11.42 3.32-21.2 10.5-27.81 20.05-5.75 8.27-9.11 18.32-9.11 29.15v357.53c-12.78-11.63-24.38-24.54-34.59-38.52v-319.01c0-28.29 22.94-51.22 51.22-51.22z" fill="#dddaec"/><circle cx="256" cy="325.286" fill="#dddaec" r="162.365"/><circle cx="256" cy="325.286" fill="#f9f6f6" r="140.971"/><path d="m365.07 325.29c0 7.21-.7 14.26-2.04 21.07-9.81 50.16-54 88-107.03 88-25.95 0-49.79-9.07-68.51-24.2 19.55-15.78 33.54-38.2 38.55-63.82 1.33-6.81 2.03-13.85 2.03-21.05 0-34.29-15.83-64.9-40.58-84.87 18.72-15.14 42.56-24.21 68.51-24.21 60.24 0 109.07 48.84 109.07 109.08z" fill="#9dc6fb"/><path d="m308.884 136.403h99.248c10.794 0 19.545-8.75 19.545-19.545v-30.079c0-10.794-8.75-19.545-19.545-19.545h-99.248c-10.794 0-19.545 8.75-19.545 19.545v30.079c0 10.795 8.751 19.545 19.545 19.545z" fill="#9dc6fb"/><g><circle cx="423.643" cy="88.357" fill="#26457d" r="88.357"/><circle cx="423.643" cy="88.357" fill="#f9f6f6" r="74.357"/><circle cx="423.643" cy="88.357" fill="#f9f6f6" r="74.357"/><path d="m439.105 161.097c-4.99 1.06-10.16 1.62-15.46 1.62-41 0-74.36-33.36-74.36-74.36s33.36-74.36 74.36-74.36c5.3 0 10.47.56 15.46 1.62-33.6 7.13-58.89 37.04-58.89 72.74s25.29 65.61 58.89 72.74z" fill="#dddaec"/><g fill="#26457d"><path d="m394.417 81.675c-.18 0-.358.01-.538.014 4.43-6.539 8.903-10.035 9.052-10.149 3.299-2.478 3.979-7.159 1.514-10.473-2.473-3.323-7.17-4.014-10.494-1.542-.82.61-20.005 15.179-23.364 42.492-.196 1.235-.3 2.5-.3 3.79 0 13.306 10.825 24.13 24.13 24.13s24.131-10.825 24.131-24.13-10.825-24.132-24.131-24.132zm0 33.262c-5.035 0-9.13-4.096-9.13-9.13s4.096-9.131 9.13-9.131 9.131 4.096 9.131 9.131-4.096 9.13-9.131 9.13z"/><path d="m446.069 55.079c-13.306 0-24.13 10.825-24.13 24.13v26.597c0 13.306 10.825 24.13 24.13 24.13s24.131-10.825 24.131-24.13v-26.597c0-13.305-10.825-24.13-24.131-24.13zm9.131 50.727c0 5.035-4.096 9.13-9.131 9.13s-9.13-4.096-9.13-9.13v-26.597c0-5.035 4.096-9.13 9.13-9.13s9.131 4.096 9.131 9.13z"/><path d="m467.581 41.112c-4.142 0-7.5 3.358-7.5 7.5v.5c0 4.142 3.358 7.5 7.5 7.5s7.5-3.358 7.5-7.5v-.5c0-4.142-3.358-7.5-7.5-7.5z"/></g></g><path d="m363.03 346.36c-9.81 50.16-54 88-107.03 88-25.95 0-49.79-9.07-68.51-24.2 19.55-15.78 33.54-38.2 38.55-63.82 8.73-3.26 15.98-9.56 20.49-17.6 6.72 11.99 19.53 20.09 34.25 20.09 7.36 0 14.24-2.03 20.12-5.55 5.89-3.52 10.77-8.54 14.13-14.54 6.72 11.99 19.54 20.09 34.26 20.09 4.83 0 9.46-.87 13.74-2.47z" fill="#80b4fb"/><g fill="#dddaec"><circle cx="241.786" cy="102.484" r="31.924"/><circle cx="159.981" cy="102.484" r="31.924"/></g></g></svg>