<svg id="Capa_1" enable-background="new 0 0 512 512" height="512" viewBox="0 0 512 512" width="512" xmlns="http://www.w3.org/2000/svg"><g><path d="m512 256c0 52.67-15.91 101.62-43.18 142.32-45.93 68.55-124.11 70.957-212.82 70.957-72.42 0-137.81-30.07-184.37-78.41-11.36-11.79-21.6 18.063-30.55 4.273-25.98-40.06-41.08-87.84-41.08-139.14 0-141.38 114.62-256 256-256s256 114.62 256 256z" fill="#78c2a4"/><path d="m379.296 292.295h-248.689v-205.981c0-46.523 37.848-84.372 84.371-84.372h79.947c46.523 0 84.371 37.849 84.371 84.372zm-206.926-41.762h165.164v-164.219c0-23.495-19.114-42.609-42.609-42.609h-79.947c-23.494 0-42.609 19.114-42.609 42.609v164.219z" fill="#f9f6f6"/><g fill="#dddaec"><path d="m316.288 43.705h-21.363c23.494 0 42.609 19.114 42.609 42.609v164.219h21.363v-164.219c0-23.494-19.114-42.609-42.609-42.609z"/><path d="m236.341 1.943h-21.363c-46.523 0-84.371 37.849-84.371 84.372v205.981h21.363v-205.982c0-46.522 37.849-84.371 84.371-84.371z"/></g><path d="m468.82 149.2v249.12c-45.93 68.55-124.11 113.68-212.82 113.68-90.08 0-169.29-46.53-214.92-116.86v-245.94z" fill="#f9f6f6"/><path d="m41.081 149.202h427.741v91.659h-427.741z" fill="#dddaec"/><path d="m71.63 149.2v284.39c-11.36-11.79-21.6-24.66-30.55-38.45v-245.94z" fill="#dddaec"/><path d="m456.98 117.261h-404.056c-18.045 0-32.674 14.629-32.674 32.674v41.587c0 18.045 14.629 32.674 32.674 32.674h404.056c18.045 0 32.674-14.629 32.674-32.674v-41.587c0-18.046-14.629-32.674-32.674-32.674z" fill="#9dc6fb"/><path d="m83.624 224.188h-30.695c-18.041 0-32.679-14.627-32.679-32.669v-41.585c0-18.052 14.638-32.679 32.679-32.679h30.696c-18.041 0-32.669 14.627-32.669 32.679v41.585c0 18.042 14.627 32.669 32.668 32.669z" fill="#80b4fb"/><path d="m405.624 297.09h-18.795c-12.074 0-21.861-9.788-21.861-21.861v-73.332c0-12.074 9.788-21.861 21.861-21.861h18.795c12.074 0 21.861 9.788 21.861 21.861v73.332c.001 12.074-9.787 21.861-21.861 21.861z" fill="#dd5790"/><path d="m123.071 297.09h-18.795c-12.074 0-21.861-9.788-21.861-21.861v-73.332c0-12.074 9.788-21.861 21.861-21.861h18.795c12.074 0 21.861 9.788 21.861 21.861v73.332c0 12.074-9.788 21.861-21.861 21.861z" fill="#dd5790"/><g fill="#9d549b"><path d="m401.464 297.087h-14.63c-12.08 0-21.86-9.79-21.86-21.86v-73.33c0-12.08 9.78-21.86 21.86-21.86h14.63c-12.07 0-21.86 9.78-21.86 21.86v73.33c0 12.07 9.79 21.86 21.86 21.86z"/><path d="m118.914 297.087h-14.64c-12.07 0-21.86-9.79-21.86-21.86v-73.33c0-12.08 9.79-21.86 21.86-21.86h14.64c-12.08 0-21.87 9.78-21.87 21.86v73.33c0 12.07 9.79 21.86 21.87 21.86z"/></g><path d="m396.227 279.133c-6.061 0-10.974-4.913-10.974-10.974v-17.292c0-6.061 4.913-10.974 10.974-10.974 6.061 0 10.974 4.913 10.974 10.974v17.292c0 6.061-4.913 10.974-10.974 10.974z" fill="#f9f6f6"/><path d="m113.673 279.133c-6.061 0-10.974-4.913-10.974-10.974v-17.292c0-6.061 4.913-10.974 10.974-10.974 6.061 0 10.974 4.913 10.974 10.974v17.292c0 6.061-4.913 10.974-10.974 10.974z" fill="#f9f6f6"/><circle cx="254.95" cy="364.929" fill="#dd5790" r="98.432"/><path d="m309.55 343.212h-32.884v-32.884c0-4.556-3.694-8.25-8.25-8.25h-26.933c-4.556 0-8.25 3.694-8.25 8.25v32.884h-32.883c-4.556 0-8.25 3.694-8.25 8.25v26.933c0 4.556 3.694 8.25 8.25 8.25h32.884v32.884c0 4.556 3.694 8.25 8.25 8.25h26.933c4.556 0 8.25-3.694 8.25-8.25v-32.884h32.884c4.556 0 8.25-3.694 8.25-8.25v-26.933c-.001-4.556-3.694-8.25-8.251-8.25z" fill="#f9f6f6"/></g></svg>