<svg id="Capa_1" enable-background="new 0 0 512 512" height="512" viewBox="0 0 512 512" width="512" xmlns="http://www.w3.org/2000/svg"><g><path d="m512 256c0 27.71-4.4 54.39-12.55 79.38-20.53 63.02-64.85 115.29-122.35 146.21-36.06 19.4-77.29 30.41-121.1 30.41-141.38 0-256-114.62-256-256 0-50.52 14.64-97.62 39.9-137.3 29.65-46.57 73.94-82.91 126.39-102.53 27.92-10.46 58.15-16.17 89.71-16.17 141.38 0 256 114.62 256 256z" fill="#9dc6fb"/><path d="m499.45 335.38c-20.53 63.02-64.85 115.29-122.35 146.21h-9.3c-6.73 0-12.82-2.73-17.23-7.14s-7.14-10.5-7.14-17.23c0-13.46 10.91-24.37 24.37-24.37h40.36c6.73 0 12.82-2.73 17.23-7.14s7.14-10.5 7.14-17.23c0-13.45-10.91-24.36-24.37-24.36h-5.04c-6.73 0-12.82-2.73-17.23-7.14s-7.14-10.5-7.14-17.23c0-13.46 10.91-24.37 24.37-24.37z" fill="#e4f6ff"/><path d="m258.6 55.46c-.23 13.38-11.53 23.93-24.91 23.93h-80.44c-6.73 0-12.82 2.73-17.23 7.14s-7.14 10.5-7.14 17.23v.17c-.06 8.22-6.92 14.77-15.14 14.77h-52.54s-9.89 0-21.3 0c29.65-46.57 73.94-82.91 126.39-102.53 3.79 8.53 12.34 14.48 22.28 14.48h45.67c6.73 0 12.82 2.73 17.23 7.14 4.5 4.51 7.26 10.77 7.13 17.67z" fill="#e4f6ff"/><g><path d="m38.743 166.526-24.493 7.722c-9.327 2.941-14.504 12.885-11.563 22.212l27.168 86.173 62.063-3.214 29.336-25.602-63.209-81.274c-4.544-5.842-12.243-8.242-19.302-6.017z" fill="#f9f6f6"/><path d="m98.509 273.665-6.592 5.755-62.063 3.21-27.168-86.169c-2.941-9.33 2.226-19.271 11.555-22.213l20.544-6.477c-9.329 2.941-14.496 12.883-11.555 22.213l27.167 86.169z" fill="#dddaec"/><path d="m166.122 114.686-37.928 11.958c-17.922 5.651-26.32 26.179-17.497 42.771l63.364 119.149 129.622-40.867-105.663-123.855c-7.83-9.179-20.391-12.784-31.898-9.156z" fill="#dddaec"/><path d="m480.85 252.514c5.745 18.222-4.38 37.654-22.603 43.399l-303.943 95.827c-45.242 14.264-93.47-10.843-107.731-56.075l-16.722-53.037 323.528-102.002c18.627-5.873 37.877-3.641 53.934 4.727 4.101 2.126 7.99 4.658 11.609 7.557 10.57 8.458 18.822 20.035 23.197 33.913.198.628.361 1.256.538 1.891 8.288-1.267 16.534.56 23.362 4.765 6.831 4.204 12.232 10.791 14.831 19.035z" fill="#f9f6f6"/><path d="m480.85 252.513c5.745 18.222-4.38 37.654-22.602 43.4l-303.943 95.827c-45.242 14.264-93.471-10.844-107.731-56.075l-16.722-53.038 15.484-22.526 13.965 44.293c14.26 45.231 62.489 70.338 107.731 56.075l283.398-89.35c13.835-4.362 23.005-16.608 24.097-30.23 2.772 3.33 4.943 7.247 6.323 11.624z" fill="#dddaec"/><path d="m288.228 488.944-37.928 11.958c-17.922 5.651-36.576-6.349-38.864-25.002l-16.432-133.946 129.622-40.867-15.52 162.061c-1.15 12.011-9.371 22.168-20.878 25.796z" fill="#f9f6f6"/><g><circle cx="132.913" cy="314.97" fill="#dddaec" r="27.665"/><circle cx="132.913" cy="314.97" fill="#26457d" r="17.267"/></g><g><circle cx="196.991" cy="294.767" fill="#dddaec" r="27.665"/><circle cx="196.991" cy="294.767" fill="#26457d" r="17.267"/></g><g><circle cx="261.07" cy="274.565" fill="#dddaec" r="27.665"/><circle cx="261.07" cy="274.565" fill="#26457d" r="17.267"/></g><g><circle cx="325.149" cy="254.362" fill="#dddaec" r="27.665"/><circle cx="325.149" cy="254.362" fill="#26457d" r="17.267"/></g><path d="m442.121 226.823c.198.628.361 1.256.538 1.891l-14.146 4.46c-13.927 4.391-28.776-3.34-33.167-17.266l-2.289-7.26c-1.201-3.809.913-7.87 4.722-9.071l21.145-6.667c10.57 8.458 18.822 20.036 23.197 33.913z" fill="#26457d"/></g><g><circle cx="423.643" cy="88.357" fill="#dd5790" r="88.357"/><circle cx="423.643" cy="88.357" fill="#f9f6f6" r="74.357"/><circle cx="423.643" cy="88.357" fill="#f9f6f6" r="74.357"/><path d="m439.105 161.097c-4.99 1.06-10.16 1.62-15.46 1.62-41 0-74.36-33.36-74.36-74.36s33.36-74.36 74.36-74.36c5.3 0 10.47.56 15.46 1.62-33.6 7.13-58.89 37.04-58.89 72.74s25.29 65.61 58.89 72.74z" fill="#dddaec"/><g fill="#dd5790"><path d="m384.436 127.564c-4.972-4.972-4.972-13.034 0-18.006l60.407-60.407c4.972-4.972 13.034-4.972 18.006 0 4.972 4.972 4.972 13.034 0 18.006l-60.407 60.407c-4.972 4.972-13.034 4.972-18.006 0z"/><path d="m384.436 49.151c4.972-4.972 13.034-4.972 18.006 0l60.407 60.407c4.972 4.972 4.972 13.034 0 18.006-4.972 4.972-13.034 4.972-18.006 0l-60.407-60.407c-4.972-4.972-4.972-13.034 0-18.006z"/></g></g></g></svg>