<svg id="Capa_1" enable-background="new 0 0 512 512" height="512" viewBox="0 0 512 512" width="512" xmlns="http://www.w3.org/2000/svg"><g><path d="m49.442 361.735c-6.47-13.6-23.591-22.122-27.601-36.912-.23-.86-13.401-3.383-13.621-4.253-5.36-20.63-8.22-42.27-8.22-64.57 0-66.02 25-126.2 66.03-171.6 26.887-29.741 72.964-24.702 111.107-39.244 17.98-6.855 24.622-40.183 44.283-42.836 11.31-1.53 22.85-2.32 34.58-2.32s23.27.79 34.58 2.32c23.014 3.105 31.514 35.032 52.163 43.833 34.415 14.669 78.502 10.897 103.227 38.247 41.03 45.4 66.03 105.58 66.03 171.6 0 22.3-2.86 43.94-8.22 64.57-.22.87-23.8 10.044-24.03 10.903-4.01 14.79-17.806 20.736-24.276 34.337" fill="#dddaec"/><path d="m457.137 323.16c-6.858 25.292 28.467 49.03 14.692 70.57-45.48 71.118-125.152 118.27-215.829 118.27s-170.349-47.152-215.829-118.27c-13.775-21.54 9.395-45.278 2.537-70.57z" fill="#734a9b"/><path d="m91.617 95.775c-38.03 0-68.859 30.829-68.859 68.859v190.165h137.718v-190.165c0-38.03-30.83-68.859-68.859-68.859z" fill="#9dc6fb"/><path d="m101.598 96.494c-33.31 4.83-58.89 33.5-58.89 68.14v190.17h-19.95v-190.17c0-38.03 30.83-68.86 68.86-68.86 3.39 0 6.719.24 9.98.72z" fill="#80b4fb"/><path d="m256 95.775c-38.03 0-68.859 30.829-68.859 68.859v190.165h137.718v-190.165c0-38.03-30.829-68.859-68.859-68.859z" fill="#9dc6fb"/><path d="m265.981 96.494c-33.31 4.83-58.89 33.5-58.89 68.14v190.17h-19.95v-190.17c0-38.03 30.83-68.86 68.86-68.86 3.39 0 6.72.24 9.98.72z" fill="#80b4fb"/><path d="m420.383 95.775c-38.03 0-68.859 30.829-68.859 68.859v190.165h137.718v-190.165c0-38.03-30.829-68.859-68.859-68.859z" fill="#9dc6fb"/><path d="m430.364 96.494c-33.31 4.83-58.89 33.5-58.89 68.14v190.17h-19.95v-190.17c0-38.03 30.83-68.86 68.86-68.86 3.39 0 6.72.24 9.98.72z" fill="#80b4fb"/><path d="m91.617 435.238c-12.489 0-22.613-10.124-22.613-22.613v-71.813h45.226v71.813c-.001 12.489-10.125 22.613-22.613 22.613z" fill="#f9f6f6"/><path d="m256 435.238c-12.489 0-22.613-10.124-22.613-22.613v-71.813h45.226v71.813c0 12.489-10.124 22.613-22.613 22.613z" fill="#f9f6f6"/><path d="m263.837 433.846c-2.44.9-5.08 1.39-7.84 1.39-12.49 0-22.61-10.13-22.61-22.61v-71.82h15.68v71.82c0 9.73 6.15 18.03 14.77 21.22z" fill="#dddaec"/><path d="m420.383 435.238c-12.489 0-22.613-10.124-22.613-22.613v-71.813h45.226v71.813c0 12.489-10.124 22.613-22.613 22.613z" fill="#f9f6f6"/><path d="m428.221 433.846c-2.44.9-5.08 1.39-7.84 1.39-12.49 0-22.61-10.13-22.61-22.61v-71.82h15.68v71.82c0 9.73 6.15 18.03 14.77 21.22z" fill="#dddaec"/><path d="m99.454 433.846c-2.44.9-5.08 1.39-7.84 1.39-12.49 0-22.61-10.13-22.61-22.61v-71.82h15.68v71.82c0 9.73 6.15 18.03 14.77 21.22z" fill="#dddaec"/><path d="m503.78 320.57c-.22.87-.45 1.73-.68 2.59-6.86 25.29-17.5 49.03-31.27 70.57h-431.66c-13.77-21.54-24.41-45.28-31.27-70.57-.23-.86-.46-1.72-.68-2.59z" fill="#26457d"/><path d="m487.31 365.81c-4.58 9.66-9.76 18.98-15.48 27.92h-431.66c-5.72-8.94-10.9-18.26-15.48-27.92z" fill="#21386b"/><g fill="#dd5790"><path d="m132.907 250.542-18.794-18.794 18.794-18.794c2.604-2.604 2.604-6.827 0-9.431l-15.393-15.393c-2.604-2.604-6.826-2.604-9.431 0l-18.794 18.794-18.794-18.794c-2.604-2.604-6.826-2.604-9.431 0l-15.393 15.393c-2.604 2.604-2.604 6.826 0 9.431l18.794 18.794-18.794 18.794c-2.604 2.604-2.604 6.826 0 9.431l15.393 15.393c2.604 2.604 6.826 2.604 9.431 0l18.794-18.794 18.794 18.794c2.604 2.604 6.826 2.604 9.431 0l15.393-15.393c2.604-2.605 2.604-6.827 0-9.431z"/><path d="m466.329 250.542-18.794-18.794 18.794-18.794c2.604-2.604 2.604-6.827 0-9.431l-15.393-15.393c-2.604-2.604-6.826-2.604-9.431 0l-18.794 18.794-18.794-18.794c-2.604-2.604-6.826-2.604-9.431 0l-15.393 15.393c-2.604 2.604-2.604 6.826 0 9.431l18.794 18.794-18.794 18.794c-2.604 2.604-2.604 6.826 0 9.431l15.393 15.393c2.604 2.604 6.826 2.604 9.431 0l18.794-18.794 18.794 18.794c2.604 2.604 6.826 2.604 9.431 0l15.393-15.393c2.604-2.605 2.604-6.827 0-9.431z"/></g><g fill="#26457d"><path d="m221.42 2.32v47.51c0 19.09-15.48 34.57-34.57 34.57h-120.82c39.56-43.76 94.02-73.8 155.39-82.08z"/><path d="m445.97 84.4h-120.82c-19.09 0-34.57-15.48-34.57-34.57v-47.51c61.37 8.28 115.83 38.32 155.39 82.08z"/></g></g></svg>