<svg id="Capa_1" enable-background="new 0 0 512 512" height="512" viewBox="0 0 512 512" width="512" xmlns="http://www.w3.org/2000/svg"><g><path d="m512 256c0 114.875-75.664 212.078-179.873 244.491-24.048 7.48-57.578-15.716-84.088-15.716-31.906 0-35.678-5.298-63.848-15.962-21.173-8.015-59.815 7.928-77.878-5.113-64.4-46.494-106.313-122.202-106.313-207.7 0-141.385 114.615-256 256-256s256 114.615 256 256z" fill="#ffe07d"/><g><path d="m331.86 500.57c-23.97 7.43-49.45 11.43-75.86 11.43-55.88 0-107.58-17.91-149.68-48.31 15.25-24.67 42.54-41.1 73.68-41.1h65.71c44.92 0 81.84 34.2 86.15 77.98z" fill="#dd5790"/><path d="m237.6 422.59c-41.38 0-75.99 29.03-84.53 67.86-16.58-7.28-32.23-16.28-46.75-26.76 15.25-24.67 42.54-41.1 73.68-41.1z" fill="#9d549b"/><path d="m251.643 325.931v102.573c0 10.821-4.388 20.614-11.479 27.693-7.079 7.091-16.872 11.479-27.693 11.479-7.622 0-14.736-2.171-20.741-5.947-11.063-6.918-18.431-19.217-18.431-33.225v-102.573z" fill="#ffddce"/><path d="m251.643 325.931v97.757c-5.335.751-10.775 1.132-16.318 1.132-22.762 0-44.023-6.467-62.026-17.669v-81.22z" fill="#ffcbbe"/><path d="m191.73 365.749v95.979c-11.063-6.918-18.431-19.217-18.431-33.225v-62.754z" fill="#ffcbbe"/><path d="m187.836 51.74c-42.131 0-77.39 29.322-86.547 68.666l-20.87-20.871c-14.872 14.872-17.852 37.118-8.968 54.961h-25.175c0 26.333 21.347 47.68 47.679 47.68 1.688 0 3.354-.091 4.997-.262v8.432h145.548v-158.606z" fill="#21386b"/><path d="m103.874 216.189c-18.62 18.62-18.62 48.809 0 67.429s48.809 18.62 67.429 0" fill="#26457d"/><path d="m360.47 257.702h-260.292c-16.852 0-30.513-13.661-30.513-30.513 0-16.852 13.661-30.513 30.513-30.513h260.292c16.852 0 30.513 13.661 30.513 30.513 0 16.852-13.661 30.513-30.513 30.513z" fill="#ffcbbe"/><path d="m100.178 240.224c-7.188 0-13.035-5.848-13.035-13.035 0-7.188 5.848-13.035 13.035-13.035h260.292c7.188 0 13.035 5.848 13.035 13.035 0 7.188-5.848 13.036-13.035 13.036h-260.292z" fill="#eaac9d"/><path d="m235.325 407.152c-65 0-117.692-52.692-117.692-117.692v-83.443c0-64.999 52.692-117.692 117.692-117.692h65.591c28.774 0 52.101 23.326 52.101 52.101v149.034c0 64.999-52.693 117.692-117.692 117.692z" fill="#ffddce"/><path d="m265.867 258.324h-29.89v-155.054c0-8.254 6.691-14.945 14.945-14.945 8.254 0 14.945 6.691 14.945 14.945z" fill="#ffcbbe"/><path d="m234.293 166.866h46.556v39.462h-46.556z" fill="#e4f6ff"/><path d="m264.368 403.537c-9.288 2.359-19.013 3.608-29.037 3.608-65.003 0-117.698-52.682-117.698-117.685v-83.442c0-65.003 52.694-117.698 117.698-117.698h58.062c-64.991 0-117.685 52.694-117.685 117.698v83.442c0 54.991 37.701 101.156 88.66 114.077z" fill="#ffcbbe"/><path d="m149.396 66.708v17.745c-22.893 8.385-39.231 30.367-39.231 56.165v56.058h8.239c29.497 0 53.409-23.912 53.409-53.409v-35.876h25.08c21.915 0 39.681-17.766 39.681-39.681v-1.002z" fill="#21386b"/><path d="m202.673 257.702h-12.637c-25.635 0-46.416-20.781-46.416-46.416v-59.052h105.468v59.052c0 25.635-20.781 46.416-46.415 46.416z" fill="#e4f6ff"/><path d="m326.344 257.702h-12.637c-25.635 0-46.416-20.781-46.416-46.416v-59.052h105.469v59.052c0 25.635-20.781 46.416-46.416 46.416z" fill="#e4f6ff"/><g fill="#cbe2ff"><path d="m205.671 257.596c-.99.07-1.99.1-2.99.1h-12.64c-25.63 0-46.42-20.78-46.42-46.41v-59.06h18.63v59.06c0 24.63 19.18 44.77 43.42 46.31z"/><path d="m204.842 227.812c-8.254 0-14.945-6.691-14.945-14.945v-31.135c0-8.254 6.691-14.945 14.945-14.945 8.254 0 14.945 6.691 14.945 14.945v31.135c0 8.253-6.691 14.945-14.945 14.945z"/><path d="m295.503 227.812c-8.254 0-14.945-6.691-14.945-14.945v-31.135c0-8.254 6.691-14.945 14.945-14.945 8.254 0 14.945 6.691 14.945 14.945v31.135c0 8.253-6.691 14.945-14.945 14.945z"/></g><path d="m343.452 64.224 26.602-26.602c-25.081-25.081-65.745-25.081-90.826 0v-37.622c-35.47 0-64.224 28.754-64.224 64.224s28.754 64.224 64.224 64.224h128.447c0-35.471-28.754-64.224-64.223-64.224z" fill="#26457d"/><path d="m268.823 236.391h-24.078c-9.247 0-16.744 7.497-16.744 16.744 0 9.247 7.497 16.744 16.744 16.744h24.078c9.247 0 16.744-7.497 16.744-16.744 0-9.247-7.496-16.744-16.744-16.744z" fill="#ffcbbe"/><path d="m71.451 152.234h301.308v18.622h-301.308z" fill="#9dc6fb"/><path d="m71.451 152.234h90.799v18.622h-90.799z" fill="#80b4fb"/><path d="m388.633 220.599h-12.246v-12.246c0-6.587-5.34-11.926-11.926-11.926-6.587 0-11.926 5.339-11.926 11.926v12.246h-12.246c-6.587 0-11.926 5.34-11.926 11.926s5.339 11.926 11.926 11.926h12.246v12.246c0 6.587 5.34 11.926 11.926 11.926 6.587 0 11.926-5.34 11.926-11.926v-12.246h12.246c6.587 0 11.926-5.34 11.926-11.926s-5.339-11.926-11.926-11.926z" fill="#fff"/><path d="m238.502 324.269c-27.014 0-48.991-21.977-48.991-48.991 0-4.658 3.776-8.434 8.434-8.434s8.434 3.776 8.434 8.434c0 17.713 14.411 32.124 32.124 32.124 4.658 0 8.434 3.776 8.434 8.434s-3.777 8.433-8.435 8.433z" fill="#ffcbbe"/></g><g><circle cx="423.643" cy="88.357" fill="#78c2a4" r="88.357"/><circle cx="423.643" cy="88.357" fill="#f9f6f6" r="74.357"/><circle cx="423.643" cy="88.357" fill="#f9f6f6" r="74.357"/><path d="m439.105 161.097c-4.99 1.06-10.16 1.62-15.46 1.62-41 0-74.36-33.36-74.36-74.36s33.36-74.36 74.36-74.36c5.3 0 10.47.56 15.46 1.62-33.6 7.13-58.89 37.04-58.89 72.74s25.29 65.61 58.89 72.74z" fill="#dddaec"/><path d="m417.573 135.076c-3.121-.269-6.03-1.806-8.015-4.303l-31.914-40.161c-3.952-4.972-3.124-12.207 1.849-16.158 4.973-3.952 12.208-3.123 16.158 1.849l21.148 26.613 28.495-51.961c3.054-5.569 10.043-7.607 15.613-4.554 5.569 3.054 7.607 10.044 4.553 15.613l-36.815 67.134c-1.852 3.377-5.27 5.602-9.107 5.929-.661.056-1.317.055-1.965-.001z" fill="#78c2a4"/></g></g></svg>