<svg id="Capa_1" enable-background="new 0 0 512 512" height="512" viewBox="0 0 512 512" width="512" xmlns="http://www.w3.org/2000/svg"><g><path d="m512 256c0 110.28-69.74 204.28-167.52 240.29-27.57 10.16-57.38-27.543-88.48-27.543-16.3 0-28.295-11.712-43.745-14.632-22.94-4.32-45.081-1.327-65.421-11.327-15.76-7.75-34.274-31.496-48.004-42.196-2.34-1.82-4.65-3.69-6.93-5.59-3.12-2.61-6.18-5.3-9.17-8.06-11.33-10.41-21.71 35.648-31.02 23.358-32.46-42.9-51.71-96.35-51.71-154.3 0-141.38 114.62-256 256-256s256 114.62 256 256z" fill="#dd5790"/><g><path d="m344.48 403.5v92.79c-27.57 10.16-57.38 15.71-88.48 15.71-62.44 0-119.67-22.36-164.1-59.51v-48.99z" fill="#ffcbbe"/><path d="m322.705 442.788h-200.124c-19.449 0-35.215-15.766-35.215-35.215v-372.358c0-19.449 15.766-35.215 35.215-35.215h200.124c19.449 0 35.215 15.766 35.215 35.215v372.357c0 19.45-15.766 35.216-35.215 35.216z" fill="#21386b"/><path d="m346.958 442.788h-200.124c-19.449 0-35.215-15.766-35.215-35.215v-372.358c-.001-19.449 15.766-35.215 35.215-35.215h200.124c19.449 0 35.215 15.766 35.215 35.215v372.357c0 19.45-15.766 35.216-35.215 35.216z" fill="#26457d"/><path d="m215.021 39.498h63.75c5.358 0 9.701-4.343 9.701-9.701 0-5.358-4.343-9.701-9.701-9.701h-63.75c-5.358 0-9.701 4.343-9.701 9.701-.001 5.357 4.343 9.701 9.701 9.701z" fill="#21386b"/><path d="m361.34 35.22v372.35c0 7.93-6.45 14.38-14.38 14.38h-200.12c-7.93 0-14.38-6.45-14.38-14.38v-111.079l26.589-130.356-26.589-69.565v-61.35c0-7.93 6.45-14.38 14.38-14.38h21.6v1c0 20.67 16.76 37.42 37.43 37.42h82.06c20.67 0 37.42-16.75 37.42-37.42v-1h21.61c7.93 0 14.38 6.45 14.38 14.38z" fill="#9dc6fb"/><g><path d="m391.137 136.114 26.91-26.91c14.154-14.154 14.154-37.103 0-51.258-14.154-14.154-37.103-14.154-51.258 0l-26.91 26.91c-14.154 14.154-14.154 37.103 0 51.258 14.155 14.154 37.104 14.154 51.258 0z" fill="#ffddce"/><path d="m425.261 68.229c-4.845-2.271-10.096-3.407-15.347-3.407-9.273 0-18.556 3.542-25.63 10.617l-26.902 26.912c-11.086 11.086-13.492 27.558-7.199 40.988-3.73-1.74-7.231-4.147-10.304-7.231-14.149-14.149-14.149-37.101 0-51.261l26.912-26.902c7.085-7.085 16.358-10.617 25.63-10.617 9.273 0 18.545 3.532 25.63 10.617 3.073 3.074 5.48 6.554 7.21 10.284z" fill="#ffcbbe"/></g><g><path d="m391.137 371.663 26.91-26.91c14.154-14.154 14.154-37.103 0-51.258-14.154-14.154-37.103-14.154-51.258 0l-26.91 26.91c-14.154 14.154-14.154 37.103 0 51.258 14.155 14.155 37.104 14.155 51.258 0z" fill="#ffddce"/><path d="m425.261 303.779c-4.845-2.271-10.096-3.407-15.347-3.407-9.273 0-18.556 3.542-25.63 10.617l-26.902 26.912c-11.086 11.086-13.492 27.558-7.199 40.988-3.73-1.74-7.231-4.147-10.304-7.231-14.149-14.149-14.149-37.101 0-51.261l26.912-26.902c7.085-7.085 16.358-10.617 25.63-10.617 9.273 0 18.545 3.532 25.63 10.617 3.073 3.074 5.48 6.554 7.21 10.284z" fill="#ffcbbe"/></g><g><path d="m327.83 319.42c0 13.59-11.02 24.61-24.61 24.61h-170.76v-247.46c19.06-17.71 44.59-28.55 72.66-28.55 58.96 0 106.75 47.79 106.75 106.74v121.62c4.66 1.75 8.65 4.87 11.47 8.88 2.83 4 4.49 8.88 4.49 14.16z" fill="#ffe07d"/><path d="m171.09 336.82c4.45 4.45 10.61 7.2 17.4 7.2h-56.03v-247.45c19.05-17.72 44.59-28.56 72.67-28.56 8.41 0 16.59.97 24.44 2.81-19.66 4.61-37.23 14.65-51.04 28.46-19.32 19.32-31.27 46-31.27 75.48v120.19c-12.33 1.33 16.63 11.77 16.63 24.46 0 6.8 2.75 12.95 7.2 17.41z" fill="#ffc250"/><path d="m280.8 421.95h-133.96c-7.93 0-14.38-6.45-14.38-14.38v-10.81c11.05-9.23 25.28-14.78 40.8-14.78h48.38c26.8 0 49.73 16.54 59.16 39.97z" fill="#78c2a4"/><path d="m226.004 310.814v75.518c0 7.967-3.231 15.177-8.451 20.389-5.212 5.22-12.422 8.451-20.389 8.451-5.611 0-10.849-1.598-15.27-4.379-8.145-5.093-13.57-14.148-13.57-24.461v-75.518z" fill="#ffddce"/><g fill="#ffcbbe"><path d="m226.004 310.814v71.972c-3.928.553-7.933.833-12.014.833-16.758 0-32.411-4.761-45.666-13.009v-59.797h57.68z"/><path d="m181.894 340.13v70.663c-8.145-5.093-13.57-14.148-13.57-24.461v-46.202z"/><path d="m306.126 260.581h-129.933c-12.407 0-22.464-10.058-22.464-22.464 0-12.407 10.058-22.464 22.464-22.464h129.933c12.407 0 22.464 10.058 22.464 22.464 0 12.406-10.058 22.464-22.464 22.464z"/></g><path d="m163.325 247.714c-5.292 0-9.597-4.305-9.597-9.597s4.305-9.597 9.597-9.597h142.8c5.292 0 9.597 4.305 9.597 9.597s-4.305 9.597-9.597 9.597z" fill="#eaac9d"/><path d="m300.639 199.903v84.06c0 47.85-38.79 86.65-86.65 86.65-47.85 0-67.779-38.8-67.779-86.65v-84.06c0-4.59.36-9.1 1.05-13.5h52.789c5.01 0 9.85-.73 14.42-2.1 8.49-2.52 16.05-7.22 22.01-13.45 4.46-4.64 8.04-10.13 10.47-16.2 7.46 18.6 25.64 31.75 46.91 31.75h5.73c.69 4.4 1.05 8.91 1.05 13.5z" fill="#ffddce"/><path d="m235.94 367.8c-7.01 1.84-14.37 2.81-21.95 2.81-37.53 0-69.49-23.87-81.53-57.25v-126.96h39.82c-.69 4.4-1.05 8.91-1.05 13.5v84.06c0 40.27 27.48 74.13 64.71 83.84z" fill="#ffcbbe"/><path d="m236.479 170.853v90.19h-22.01v-76.74c8.49-2.52 16.05-7.22 22.01-13.45z" fill="#ffcbbe"/><path d="m238.652 244.892h-17.727c-6.808 0-12.327 5.519-12.327 12.327 0 6.808 5.519 12.327 12.327 12.327h17.727c6.808 0 12.327-5.519 12.327-12.327.001-6.808-5.519-12.327-12.327-12.327z" fill="#ffcbbe"/><path d="m177.543 213.362c-5.881 0-11.76-2.238-16.236-6.715-2.734-2.734-2.734-7.166 0-9.899 2.733-2.734 7.166-2.734 9.899 0 3.495 3.494 9.18 3.494 12.674 0 2.734-2.734 7.167-2.733 9.899 0 2.734 2.734 2.733 7.166 0 9.899-4.475 4.476-10.357 6.715-16.236 6.715z" fill="#26457d"/><path d="m273.074 213.362c-5.88 0-11.76-2.238-16.237-6.714-2.733-2.734-2.734-7.166 0-9.899 2.733-2.734 7.165-2.734 9.899 0 3.494 3.494 9.18 3.494 12.674 0 2.733-2.734 7.166-2.734 9.899 0 2.734 2.734 2.734 7.166 0 9.899-4.475 4.476-10.355 6.714-16.235 6.714z" fill="#26457d"/><path d="m211.443 317.936c-20.82 0-37.759-16.938-37.759-37.759 0-3.59 2.91-6.5 6.5-6.5s6.5 2.91 6.5 6.5c0 13.652 11.107 24.759 24.759 24.759 3.59 0 6.5 2.91 6.5 6.5s-2.91 6.5-6.5 6.5z" fill="#ffcbbe"/><path d="m191.547 238.575c-6.077 0-11.003-4.926-11.003-11.003v-22.923c0-6.077 4.926-11.003 11.003-11.003 6.077 0 11.003 4.926 11.003 11.003v22.923c0 6.077-4.926 11.003-11.003 11.003z" fill="#21386b"/><path d="m259.399 238.575c-6.077 0-11.003-4.926-11.003-11.003v-22.923c0-6.077 4.926-11.003 11.003-11.003 6.077 0 11.003 4.926 11.003 11.003v22.923c0 6.077-4.926 11.003-11.003 11.003z" fill="#21386b"/></g><path d="m143.18 242.04v243.82c-15.76-7.75-30.62-17.08-44.35-27.78-2.34-1.82-4.65-3.69-6.93-5.59-14.93-12.49-28.42-26.65-40.19-42.19v-168.26c0-25.26 20.48-45.73 45.73-45.73 25.26 0 45.74 20.47 45.74 45.73z" fill="#ffddce"/><path d="m112.96 199.01c-17.63 6.35-30.23 23.21-30.23 43.03v202.39c-11.33-10.41-21.71-21.84-31.02-34.13v-168.26c0-25.25 20.48-45.73 45.74-45.73 5.45 0 10.67.95 15.51 2.7z" fill="#ffcbbe"/><path d="m208.31 475.84v31.72c-40.72-7.67-78.04-24.98-109.48-49.48v-84.38h7.35c56.41 0 102.13 45.73 102.13 102.14z" fill="#ffddce"/><g><path d="m391.137 304.102 26.91-26.91c14.154-14.154 14.154-37.103 0-51.258-14.154-14.154-37.103-14.154-51.258 0l-26.91 26.91c-14.154 14.154-14.154 37.103 0 51.258 14.155 14.154 37.104 14.154 51.258 0z" fill="#ffddce"/><path d="m425.261 236.217c-4.845-2.271-10.096-3.407-15.347-3.407-9.273 0-18.556 3.542-25.63 10.617l-26.902 26.912c-11.086 11.086-13.492 27.558-7.199 40.988-3.73-1.74-7.231-4.147-10.304-7.231-14.149-14.149-14.149-37.101 0-51.261l26.912-26.902c7.085-7.085 16.358-10.617 25.63-10.617 9.273 0 18.545 3.532 25.63 10.617 3.073 3.074 5.48 6.554 7.21 10.284z" fill="#ffcbbe"/></g><g><path d="m391.137 218.87 26.91-26.91c14.154-14.154 14.154-37.103 0-51.258-14.154-14.154-37.103-14.154-51.258 0l-26.91 26.91c-14.154 14.154-14.154 37.103 0 51.258 14.155 14.155 37.104 14.155 51.258 0z" fill="#ffddce"/><path d="m425.261 150.986c-4.845-2.271-10.096-3.407-15.347-3.407-9.273 0-18.556 3.542-25.63 10.617l-26.902 26.912c-11.086 11.086-13.492 27.558-7.199 40.988-3.73-1.74-7.231-4.147-10.304-7.231-14.149-14.149-14.149-37.101 0-51.261l26.912-26.902c7.085-7.085 16.358-10.617 25.63-10.617 9.273 0 18.545 3.532 25.63 10.617 3.073 3.074 5.48 6.554 7.21 10.284z" fill="#ffcbbe"/></g></g></g></svg>