<svg id="Capa_1" enable-background="new 0 0 512 512" height="512" viewBox="0 0 512 512" width="512" xmlns="http://www.w3.org/2000/svg"><g><path d="m512 256c0 27.69-4.4 54.36-12.53 79.34-6.09 18.7-14.27 36.44-24.27 52.97-11.23 18.57-24.76 35.6-40.18 50.69-22.59 22.09-36.905-11.16-66.405 1.42-3.22 1.37-18.805 53.87-22.085 55.11-4.822 1.823-9.713 3.505-14.67 5.041-23.969 7.426-59.211-20.911-85.62-20.911-32.57 0-53.96.459-82.62-10.641-29.46-11.41-41.753-16.835-64.773-37.655-3.13-2.84-20.727 8.787-23.717 5.807-13.32-13.3-25.19-28.07-35.33-44.03-7.72-12.14-14.44-24.98-20.05-38.39-2.32-5.54-4.45-11.18-6.39-16.91-.4-1.2-.8-2.41-1.19-3.62-7.9-24.661-12.17-50.941-12.17-78.221 0-141.38 114.62-256 256-256s256 114.62 256 256z" fill="#ffe07d"/><g><g><path d="m506.16 349.63c0 4.77-1.82 9.53-5.45 13.17l-25.51 25.51-34.48 34.47c-3.65 3.65-5.69 8.59-5.7 13.74v2.48c-25.05 24.5-55.1 43.9-88.49 56.53v-55.25c0-7.7-2.22-15.24-6.41-21.7l-.01-.01c-6.77-10.44-10.38-22.62-10.38-35.07v-71.95c0-7.53 6.11-13.63 13.64-13.63 3.76 0 7.17 1.53 9.64 3.99 2.47 2.47 3.99 5.88 3.99 9.65v-33.68c0-4.63 1.88-8.81 4.91-11.85 3.03-3.03 7.22-4.9 11.85-4.91 9.25 0 16.75 7.51 16.75 16.76v-17.31c0-4.63 1.87-8.82 4.91-11.85 2.13-2.13 4.84-3.69 7.86-4.42 1.23-.31 2.52-.47 3.84-.48 1.2-.01 2.38.11 3.51.35h.01c7.62 1.63 13.38 8.62 13.38 16.7v14.25c.05-9.21 7.53-16.66 16.75-16.66 4.62 0 8.82 1.88 11.85 4.91s4.91 7.22 4.91 11.85v78.11l16.85-16.86c6.87-6.87 17.77-7.25 25.09-1.13.43.35.84.73 1.24 1.13 3.63 3.63 5.45 8.4 5.45 13.16z" fill="#78c2a4"/></g><g><path d="m457.528 353.325v11.52l22.61-22.62c6.28-6.28 15.94-7.14 23.13-2.56-.72-1.14-1.57-2.21-2.56-3.2-7.27-7.27-19.06-7.27-26.33 0z" fill="#66b394"/></g><g><path d="m356.28 440.28v51.33c-3.22 1.37-6.47 2.68-9.75 3.92v-55.25c0-7.7-2.22-15.24-6.41-21.7l-.01-.01c-6.77-10.44-10.38-22.62-10.38-35.07v-71.95c0-7.53 6.11-13.63 13.64-13.63 1.72 0 3.36.32 4.87.9-5.12 1.96-8.76 6.92-8.76 12.73v71.95c0 12.45 3.61 24.63 10.38 35.07l.01.01c4.19 6.46 6.41 14 6.41 21.7z" fill="#66b394"/></g><g fill="#66b394"><path d="m444.754 258.937c-3.022.738-5.726 2.293-7.856 4.427-3.031 3.031-4.909 7.219-4.909 11.847v56.236c0 4.406-3.572 7.978-7.978 7.978v-64.214c0-4.628 1.878-8.816 4.909-11.847 3.031-3.035 7.223-4.909 11.847-4.909 1.376 0 2.709.168 3.987.482z"/><path d="m390.508 260.565v73.61c4.4 0 7.97-3.57 7.98-7.97v-65.94c0-4.63 1.87-8.81 4.91-11.85 1.98-1.98 4.46-3.47 7.23-4.25-1.13-.24-2.31-.36-3.51-.35-1.32.01-2.61.17-3.84.48-3.02.73-5.73 2.29-7.86 4.42-3.04 3.03-4.91 7.22-4.91 11.85z"/><path d="m357.002 340.977v-63.106c0-4.628 1.878-8.816 4.909-11.847 3.031-3.035 7.223-4.909 11.847-4.909 1.375 0 2.708.168 3.987.482-3.022.738-5.726 2.293-7.856 4.427-3.031 3.031-4.909 7.219-4.909 11.847v55.128c-.001 4.406-3.572 7.978-7.978 7.978z"/></g></g><g><path d="m331.86 500.57c-23.97 7.43-49.45 11.43-75.86 11.43-32.571 0-63.722-6.085-92.38-17.181-20.508-7.941-29.843-41.386-47.404-54.066 6.596-10.671 5.549 3.137 15.988-3.788 13.695-9.085 30.126-14.375 47.796-14.375h65.71c44.92 0 81.84 34.2 86.15 77.98z" fill="#dd5790"/><path d="m237.6 422.59c-36.208 0-67.232 22.226-80.143 53.796-1.844 4.51-9.911-3.575-10.979 1.279-16.58-7.28-14.541-14.591-29.061-25.071 6.596-10.671 4.349-8.704 14.788-15.629 13.694-9.085 30.125-14.375 47.795-14.375z" fill="#9d549b"/><path d="m251.643 325.931v102.573c0 10.821-4.388 20.614-11.479 27.693-7.079 7.091-16.872 11.479-27.693 11.479-7.622 0-14.736-2.171-20.741-5.947-11.063-6.918-18.431-19.217-18.431-33.225v-102.573z" fill="#ffddce"/><path d="m251.643 325.931v97.757c-5.335.751-10.775 1.132-16.318 1.132-22.762 0-44.023-6.467-62.026-17.669v-81.22z" fill="#ffcbbe"/><path d="m191.73 365.749v95.979c-11.063-6.918-18.431-19.217-18.431-33.225v-62.754z" fill="#ffcbbe"/><path d="m187.836 51.74c-42.131 0-77.39 29.322-86.547 68.666l-20.87-20.871c-14.872 14.872-17.852 37.118-8.968 54.961h-25.175c0 26.333 21.347 47.68 47.679 47.68 1.688 0 3.354-.091 4.997-.262v8.432h145.548v-158.606z" fill="#21386b"/><path d="m103.874 216.189c-18.62 18.62-18.62 48.809 0 67.429s48.809 18.62 67.429 0" fill="#26457d"/><path d="m360.47 257.702h-260.292c-16.852 0-30.513-13.661-30.513-30.513 0-16.852 13.661-30.513 30.513-30.513h260.292c16.852 0 30.513 13.661 30.513 30.513 0 16.852-13.661 30.513-30.513 30.513z" fill="#ffcbbe"/><path d="m100.178 240.224c-7.188 0-13.035-5.848-13.035-13.035 0-7.188 5.848-13.035 13.035-13.035h260.292c7.188 0 13.035 5.848 13.035 13.035 0 7.188-5.848 13.036-13.035 13.036h-260.292z" fill="#eaac9d"/><path d="m235.325 407.152c-65 0-117.692-52.692-117.692-117.692v-83.443c0-64.999 52.692-117.692 117.692-117.692h65.591c28.774 0 52.101 23.326 52.101 52.101v149.034c0 64.999-52.693 117.692-117.692 117.692z" fill="#ffddce"/><path d="m264.368 403.537c-9.288 2.359-19.013 3.608-29.037 3.608-65.003 0-117.698-52.682-117.698-117.685v-83.442c0-65.003 52.694-117.698 117.698-117.698h58.062c-64.991 0-117.685 52.694-117.685 117.698v83.442c0 54.991 37.701 101.156 88.66 114.077z" fill="#ffcbbe"/><path d="m204.842 227.812c-8.254 0-14.945-6.691-14.945-14.945v-31.135c0-8.254 6.691-14.945 14.945-14.945 8.254 0 14.945 6.691 14.945 14.945v31.135c0 8.253-6.691 14.945-14.945 14.945z" fill="#21386b"/><path d="m297.003 227.812c-8.254 0-14.945-6.691-14.945-14.945v-31.135c0-8.254 6.691-14.945 14.945-14.945 8.254 0 14.945 6.691 14.945 14.945v31.135c0 8.253-6.691 14.945-14.945 14.945z" fill="#21386b"/><path d="m265.867 258.324h-29.89v-155.054c0-8.254 6.691-14.945 14.945-14.945 8.254 0 14.945 6.691 14.945 14.945z" fill="#ffcbbe"/><path d="m149.396 66.708v17.745c-22.893 8.385-39.231 30.367-39.231 56.165v56.058h8.239c29.497 0 53.409-23.912 53.409-53.409v-35.876h25.08c21.915 0 39.681-17.766 39.681-39.681v-1.002z" fill="#21386b"/><path d="m343.452 64.224 26.602-26.602c-25.081-25.081-65.745-25.081-90.826 0v-37.622c-35.47 0-64.224 28.754-64.224 64.224s28.754 64.224 64.224 64.224h128.447c0-35.471-28.754-64.224-64.223-64.224z" fill="#26457d"/><path d="m268.823 236.391h-24.078c-9.247 0-16.744 7.497-16.744 16.744 0 9.247 7.497 16.744 16.744 16.744h24.078c9.247 0 16.744-7.497 16.744-16.744 0-9.247-7.496-16.744-16.744-16.744z" fill="#ffcbbe"/><path d="m184.388 278.14c0 29.385 23.821 53.207 53.207 53.207s53.207-23.821 53.207-53.207" fill="#fff"/></g><circle cx="423.643" cy="88.357" fill="#78c2a4" r="88.357"/><circle cx="423.643" cy="88.357" fill="#f9f6f6" r="74.357"/><circle cx="423.643" cy="88.357" fill="#f9f6f6" r="74.357"/><path d="m439.105 161.097c-4.99 1.06-10.16 1.62-15.46 1.62-41 0-74.36-33.36-74.36-74.36s33.36-74.36 74.36-74.36c5.3 0 10.47.56 15.46 1.62-33.6 7.13-58.89 37.04-58.89 72.74s25.29 65.61 58.89 72.74z" fill="#dddaec"/><path d="m417.573 135.076c-3.121-.269-6.03-1.806-8.015-4.303l-31.914-40.161c-3.952-4.972-3.124-12.207 1.849-16.158 4.973-3.952 12.208-3.123 16.158 1.849l21.148 26.613 28.495-51.961c3.054-5.569 10.043-7.607 15.613-4.554 5.569 3.054 7.607 10.044 4.553 15.613l-36.815 67.134c-1.852 3.377-5.27 5.602-9.107 5.929-.661.056-1.317.055-1.965-.001z" fill="#78c2a4"/><g><g><path d="m180.42 311.55v71.95c0 12.45-3.61 24.63-10.38 35.07-2.1 3.23-3.7 6.73-4.78 10.39s-1.64 7.46-1.64 11.32v54.54c-33.47-12.96-63.54-32.74-88.49-57.65v-.65c0-5.15-2.05-10.09-5.69-13.74l-29.64-29.64-30.35-30.35c-3.64-3.63-5.46-8.39-5.46-13.16s1.82-9.53 5.45-13.16c.85-.85 1.77-1.6 2.73-2.25 7.25-4.92 17.18-4.17 23.6 2.25l16.86 16.85v-78.1c0-4.63 1.88-8.82 4.91-11.85s7.22-4.91 11.84-4.91c9.22 0 16.7 7.45 16.76 16.65v-14.25c0-9.29 7.6-17.12 16.9-17.04 1.32.01 2.6.17 3.83.47 3.03.74 5.73 2.3 7.87 4.43 3.03 3.03 4.9 7.22 4.9 11.85v17.31c0-9.26 7.5-16.76 16.76-16.76 4.62 0 8.81 1.87 11.85 4.91 3.03 3.03 4.9 7.21 4.9 11.84v33.68c0-3.76 1.53-7.17 4-9.64 2.46-2.46 5.87-3.99 9.64-3.99 7.53 0 13.63 6.1 13.63 13.63z" fill="#78c2a4"/></g><g><path d="m153.151 351.074v-39.523c0-7.533 6.104-13.637 13.633-13.637 1.099 0 2.167.134 3.192.379-5.989 1.437-10.442 6.824-10.442 13.258v33.14c0 3.526-2.858 6.383-6.383 6.383z" fill="#66b394"/></g><g fill="#66b394"><path d="m73.371 258.943c-3.022.738-5.726 2.293-7.856 4.427-3.031 3.031-4.909 7.219-4.909 11.847v81.989h-4.096l-3.882-3.882v-78.107c0-4.628 1.878-8.816 4.909-11.847 3.031-3.035 7.223-4.909 11.847-4.909 1.376 0 2.709.168 3.987.482z"/><path d="m106.87 244.294c-3.02.74-5.724 2.294-7.847 4.423-3.033 3.033-4.909 7.217-4.91 11.846v65.939c-.003 4.406-3.574 7.977-7.977 7.977v-59.366-14.249c0-9.292 7.604-17.128 16.899-17.05 1.322.015 2.606.176 3.835.48z"/><path d="m119.644 335.004v-57.13c0-4.628 1.878-8.816 4.909-11.847 3.031-3.035 7.223-4.909 11.847-4.909 1.375 0 2.708.168 3.987.482-3.022.738-5.726 2.293-7.856 4.427-3.031 3.031-4.909 7.219-4.909 11.847v49.152c-.001 4.407-3.573 7.978-7.978 7.978z"/></g><g><path d="m84.31 427.34v18.56c-3.13-2.84-6.19-5.75-9.18-8.73v-.65c0-5.15-2.05-10.09-5.69-13.74l-29.64-29.64-30.35-30.35c-3.64-3.63-5.46-8.39-5.46-13.16 0-4.76 1.82-9.53 5.46-13.16.85-.85 1.76-1.6 2.72-2.25.86-.58 1.75-1.08 2.68-1.51-.75 1.64-1.25 3.37-1.49 5.13-.13.86-.19 1.74-.19 2.61 0 4.77 1.82 9.53 5.45 13.17l59.99 59.99c3.65 3.64 5.7 8.58 5.7 13.73z" fill="#66b394"/></g></g></g></svg>