<svg id="Capa_1" enable-background="new 0 0 512 512" height="512" viewBox="0 0 512 512" width="512" xmlns="http://www.w3.org/2000/svg"><g><path d="m485.604 256c0 72.18-3.484 137.39-51.544 183.93-46.08 44.61-108.86 72.07-178.06 72.07-60.52 0-116.13-21-159.95-56.11-3.92-3.14 36.135-103.095 32.405-106.455-36.72-33.13-79.736 19.945-92.446-29.435-.98-3.8-21.369-7.63-22.169-11.5-.11-.51-8.659-1.02-8.759-1.54-3.331-16.47-5.081-33.51-5.081-50.96 0-141.38 114.62-256 256-256 69.2 0 131.98 27.46 178.06 72.07 48.06 46.54 51.544 111.75 51.544 183.93z" fill="#dd5790"/><path d="m382.184 216.086h75.819v128.693h-75.819z" fill="#21386b"/><path d="m267.54 62.22-81.27 81.27v194.3c0 57.65-44.94 104.81-101.69 108.35-39.92-36.02-68.45-84.44-79.5-139.18 62.33-9.63 110.04-63.5 110.04-128.53v-49.68c0-9.43 3.74-18.48 10.42-25.16l91.16-91.16c13.71-13.71 36.05-14.55 50.12-1.23 14.61 13.83 14.85 36.89.72 51.02z" fill="#ffddce"/><path d="m340.783 404.637c-38.293 0-69.335-31.042-69.335-69.335v-109.739c0-38.293 31.042-69.335 69.335-69.335 38.293 0 69.335 31.042 69.335 69.335v109.739c-.001 38.293-31.043 69.335-69.335 69.335z" fill="#26457d"/><path d="m410.122 255.487v79.81c0 38.29-31.04 69.34-69.34 69.34-38.29 0-69.33-31.05-69.33-69.34v-79.81c0 38.29 31.04 69.34 69.33 69.34 38.3 0 69.34-31.05 69.34-69.34z" fill="#21386b"/><path d="m291.67 302.58-58.42 26.34c-20.77 9.36-35.58 28.73-38.31 51.36-1.76 14.6-7.21 28.56-15.81 40.51-8.61 11.94-20.36 21.85-34.74 28.33-15.73 7.09-32.45 9.11-48.34 6.77-3.92-3.14-7.74-6.39-11.47-9.75-36.72-33.13-63.8-76.76-76.51-126.14l31.6-14.25 48.71-21.96 63.79-28.76 97.21-43.83c25.73-11.6 56.77-.26 67.88 25.69 10.77 25.15-.55 54.4-25.59 65.69z" fill="#ffddce"/><path d="m152.17 255.03 97.21-43.83c25.73-11.6 56.77-.26 67.88 25.69.35.8.67 1.61.97 2.43-14.63-13.02-36.45-16.92-55.4-8.38l-75.435 34.012c-12.593 5.678-27.446 1.495-35.225-9.922z" fill="#ffcbbe"/><path d="m512 256c0 72.18-29.88 137.39-77.94 183.93v-38.286l9.644-100.095-9.644-229.479c48.06 46.54 77.94 111.75 77.94 183.93z" fill="#98695e"/><path d="m260.48 6.45c-2.82 1.59-5.47 3.58-7.87 5.98l-91.16 91.16c-6.67 6.67-10.42 15.73-10.42 25.17v49.67c0 71.84-58.23 130.07-130.06 130.07h-15.57c-.11-.51-.22-1.02-.32-1.54 62.32-9.63 110.03-63.5 110.03-128.53v-49.67c0-9.44 3.75-18.5 10.43-25.17l91.16-91.16c11.8-11.8 29.97-14.06 43.78-5.98z" fill="#ffcbbe"/><path d="m434.06 401.644v-261.377c14.876 0 26.936 12.06 26.936 26.936v207.505c0 14.876-12.06 26.936-26.936 26.936z" fill="#f9f6f6"/><g><circle cx="423.643" cy="88.357" fill="#9d66d5" r="88.357"/><circle cx="423.643" cy="88.357" fill="#f9f6f6" r="74.357"/><circle cx="423.643" cy="88.357" fill="#f9f6f6" r="74.357"/><path d="m439.105 161.097c-4.99 1.06-10.16 1.62-15.46 1.62-41 0-74.36-33.36-74.36-74.36s33.36-74.36 74.36-74.36c5.3 0 10.47.56 15.46 1.62-33.6 7.13-58.89 37.04-58.89 72.74s25.29 65.61 58.89 72.74z" fill="#dddaec"/><g fill="#9d66d5"><path d="m423.643 109.462c-6.794 0-12.301-5.507-12.301-12.301v-53.868c0-6.794 5.507-12.301 12.301-12.301 6.794 0 12.301 5.507 12.301 12.301v53.868c-.001 6.794-5.508 12.301-12.301 12.301z"/><path d="m423.643 145.723c-6.794 0-12.301-5.507-12.301-12.301 0-6.794 5.507-12.301 12.301-12.301 6.794 0 12.301 5.507 12.301 12.301-.001 6.793-5.508 12.301-12.301 12.301z"/></g></g></g></svg>