<svg id="Capa_1" enable-background="new 0 0 512 512" height="512" viewBox="0 0 512 512" width="512" xmlns="http://www.w3.org/2000/svg"><g><path d="m512 256c0 27.5-4.34 53.98-12.36 78.8-7.18 22.21-26.291 16.294-38.911 35.384-27.65 41.83-71.362 60.806-118.052 80.576-30.66 12.99-64.37 20.17-99.76 20.17-13.15 0-26.07-.99-38.69-2.91-9.15-1.38-18.14-3.25-26.94-5.58-6.78-1.79-13.45-3.86-20-6.19-4.76-1.69-9.46-3.52-14.09-5.49-36.41-15.4-55.427-40.687-80.907-70.158-7.22-8.34-13.9-17.15-20-26.38-12.62-19.09-22.75 2.788-29.93-19.422-8.02-24.82-12.36-51.3-12.36-78.8s4.34-53.98 12.36-78.8c7.18-22.21 17.31-43.09 29.93-62.18 6.1-9.23 12.79-18.05 20-26.39 4.1-4.75 8.38-9.34 12.82-13.77 2.37-2.37 4.78-4.69 7.25-6.96 12.14-11.22 25.38-21.28 39.52-29.99 21.01-12.95 44.03-22.95 68.49-29.42 8.8-2.33 17.79-4.2 26.94-5.58 12.62-1.92 25.54-2.91 38.69-2.91 49.18 0 95.12 13.87 134.12 37.91 14.15 8.72 27.38 18.77 39.52 29.99 15.17 14 28.64 29.83 40.07 47.12 12.62 19.09 22.75 39.97 29.93 62.18 8.02 24.82 12.36 51.3 12.36 78.8z" fill="#ffe07d"/><path d="m499.64 55.84v278.96c-33.23 102.83-129.76 177.2-243.64 177.2s-210.41-74.37-243.64-177.2v-278.96c0-9.9 8.03-17.93 17.94-17.93h451.4c9.91 0 17.94 8.03 17.94 17.93z" fill="#98695e"/><path d="m249.42 84.18v391.37c0 8.99-7.28 16.28-16.28 16.28h-61.859c-36.41-15.4-83.511-81.758-108.991-111.228-7.22-8.34 14.468 25.608 8.369 16.378l3.474-301.258c0-8.99-24.553-27.822-15.563-27.822h174.57c9 0 16.28 7.29 16.28 16.28z" fill="#9dc6fb"/><path d="m469.71 84.18v312.8c-6.82 10.32-14.37 20.12-22.58 29.32-6.06 6.8-12.49 13.28-19.24 19.39-.37.35-.74.68-1.11 1.01-7.55 6.78-15.52 13.11-23.84 18.94-3.16 2.23-6.38 4.38-9.64 6.46-4.04 2.57-8.16 5.03-12.35 7.38-8.13 4.56-16.54 8.68-25.19 12.35h-51.9c-9 0-16.28-7.29-16.28-16.28v-391.37c0-8.99 7.28-16.28 16.28-16.28h149.57c8.99 0 16.28 7.29 16.28 16.28z" fill="#cbe2ff"/><path d="m447.13 426.3c-6.06 6.8-12.49 13.28-19.24 19.39-2.08-.72-4.04-1.92-5.7-3.58l4.59 4.59c-7.55 6.78-15.52 13.11-23.84 18.94l-11.96-11.96c5 5 5.77 12.61 2.32 18.42-4.04 2.57-8.16 5.03-12.35 7.38-4.09.19-8.24-1.28-11.36-4.4l-20.17-20.17c5.91 5.9 5.91 15.48 0 21.39s-15.48 5.91-21.39 0l-12.56-12.56c-2.95-2.95-4.43-6.82-4.43-10.7 0-3.87 1.48-7.74 4.43-10.69 5.91-5.91 15.49-5.91 21.4 0l-20.17-20.17c-5.91-5.91-5.91-15.49 0-21.39 5.9-5.91 15.48-5.91 21.39 0l-21.44-21.44c-2.95-2.95-4.43-6.83-4.43-10.7s1.48-7.74 4.43-10.69c5.91-5.91 15.49-5.91 21.39 0l11.63 11.62c-2.95-2.96-4.43-6.83-4.43-10.7s1.48-7.74 4.43-10.69c5.9-5.91 15.48-5.91 21.39 0l72.53 72.52c1.63 1.63 2.81 3.55 3.54 5.59z" fill="#e4f6ff"/><g fill="#fff"><path d="m343.71 263.129h-149.643c-5.522 0-10-4.477-10-10s4.478-10 10-10h149.643c8.055 0 14.608-6.553 14.608-14.608s-6.554-14.608-14.608-14.608h-29.929c-5.522 0-10-4.477-10-10s4.478-10 10-10h29.929c19.083 0 34.608 15.525 34.608 34.608s-15.525 34.608-34.608 34.608z"/><path d="m401.204 447.749h-29.929c-5.522 0-10-4.477-10-10s4.478-10 10-10h29.929c8.055 0 14.608-6.553 14.608-14.608s-6.554-14.608-14.608-14.608h-207.137c-5.522 0-10-4.477-10-10s4.478-10 10-10h207.137c19.083 0 34.608 15.525 34.608 34.608s-15.525 34.608-34.608 34.608z"/><path d="m333.366 303.525h-178.242c-5.522 0-10-4.477-10-10s4.478-10 10-10h178.242c5.522 0 10 4.477 10 10s-4.477 10-10 10z"/><path d="m374.601 351.779h-219.477c-5.522 0-10-4.477-10-10s4.478-10 10-10h219.477c5.522 0 10 4.477 10 10s-4.478 10-10 10z"/></g><path d="m421.528 84.206c-5.908 5.908-5.907 15.485 0 21.393l-20.17-20.17c-5.907-5.907-15.485-5.907-21.393 0-5.907 5.907-5.907 15.485 0 21.393l-21.438-21.438c-5.907-5.907-15.485-5.908-21.393 0-5.907 5.907-5.907 15.485 0 21.393l11.622 11.622c-5.907-5.907-15.485-5.908-21.393 0-5.907 5.907-5.907 15.485 0 21.393l72.527 72.527c5.907 5.907 15.485 5.907 21.393 0 5.907-5.907 5.908-15.485 0-21.393l11.622 11.622c5.907 5.907 15.485 5.907 21.393 0 5.907-5.907 5.908-15.485 0-21.393l-21.438-21.438c5.907 5.907 15.485 5.907 21.393 0s5.908-15.485 0-21.393l-20.17-20.17c5.907 5.907 15.485 5.908 21.393 0 5.907-5.907 5.907-15.485 0-21.393l-12.555-12.555c-5.908-5.908-15.486-5.908-21.393 0z" fill="#e4f6ff"/><path d="m190.37 0 7.984 124.769-7.984 378.741c-61.49-16.27-113.92-54.84-148.08-106.53v-329.08z" fill="#664545"/><path d="m170.37 46.12v451.207c-42.23-14.98-79.36-40.734-108.08-73.954v-336.483c0-3.75 2.19-7.16 5.59-8.72l7.23-3.31 81.68-37.46c6.35-2.91 13.58 1.73 13.58 8.72z" fill="#cbe2ff"/><path d="m217.31 0v509.09c-9.15-1.38-18.14-3.25-26.94-5.58v-503.51z" fill="#98695e"/><path d="m126.548 83.292c-4.235 7.086-3.802 16.975.977 22.47l-15.687-18.037c-4.276-4.916-10.518-3.437-13.963 2.976-3.338 6.214-2.937 15.043.905 20.025l-13.418-17.4c-3.456-4.482-8.477-3.292-11.229 2.395-2.675 5.528-2.303 13.48.839 18.008l6.438 9.276c-3.316-4.778-8.13-4.271-10.766.883-2.564 5.013-2.2 12.764.823 17.547l44.892 71.041c4.436 7.02 11.513 9.164 15.809 4.438 4.449-4.895 4.013-14.989-.964-22.16l9.955 14.344c5.326 7.674 13.919 9.96 19.201 4.679 5.49-5.49 5.026-16.686-1.026-24.533l-20.189-26.179c5.304 6.878 13.86 7.753 19.115 1.52 5.464-6.481 4.997-17.741-1.031-24.673l-18.99-21.834c5.322 6.119 13.908 5.607 19.183-1.591 5.485-7.486 5.015-18.858-1.04-24.912l-12.141-12.141c-5.396-5.395-13.306-3.483-17.693 3.858z" fill="#e4f6ff"/></g></svg>