<svg id="Capa_1" enable-background="new 0 0 512 512" height="512" viewBox="0 0 512 512" width="512" xmlns="http://www.w3.org/2000/svg"><g><path d="m50.107 251.104c0-26.43-46.097-47.024-38.667-71.004 32.34-104.32 129.61-180.1 244.56-180.1 20.26 0 39.97 2.35 58.87 6.8 11.28 2.66 22.27 6.06 32.92 10.15 4.26 1.64 8.47 3.39 12.62 5.25 10.26 4.58 20.16 9.83 29.65 15.68 48.08 29.6 85.63 74.66 105.72 128.25 1.72 4.6-42.763 24.445-41.303 29.165" fill="#26457d"/><path d="m472.567 256c0 78.716 3.899 149.143-52.006 196.102-2.993 2.514-6.044 4.961-9.152 7.338-43.089 32.97-96.959 52.56-155.409 52.56s-112.32-19.59-155.41-52.56c-61.15-46.78-100.59-120.51-100.59-203.44 0-26.43 4.01-51.92 11.44-75.9h449.687c7.43 23.98 11.44 49.47 11.44 75.9z" fill="#9dc6fb"/><path d="m305.836 301.84h159.614v89.758h-159.614z" fill="#80b4fb"/><g><path d="m316.196 409.865v-218.102c0-8.864 3.63-17.341 10.044-23.458l.004-.004c5.845-5.575 6.589-14.864 1.293-20.963-5.653-6.512-15.525-6.919-21.693-1.037l-1.99 1.898c-6.029 5.749-14.04 8.957-22.371 8.957h-231.857c-8.331 0-16.342-3.207-22.371-8.957l-1.99-1.898c-6.168-5.883-16.044-5.475-21.695 1.039-5.293 6.101-4.546 15.39 1.299 20.964 6.414 6.117 10.044 14.594 10.044 23.458v218.103c0 8.864-3.63 17.341-10.044 23.458l-.013.012c-5.807 5.538-6.58 14.748-1.372 20.853 2.997 3.513 7.21 5.284 11.431 5.284 3.72 0 7.445-1.375 10.35-4.145l1.991-1.898c6.029-5.749 14.04-8.957 22.37-8.957h231.857c8.331 0 16.342 3.207 22.37 8.957l1.991 1.898c2.904 2.77 6.629 4.145 10.35 4.145 4.223 0 8.439-1.773 11.435-5.289 5.204-6.106 4.427-15.314-1.379-20.85l-.011-.01c-6.414-6.117-10.043-14.594-10.043-23.458z" fill="#f9f6f6"/><path d="m327.626 454.182c-3 3.52-7.21 5.29-11.44 5.29-3.72 0-7.44-1.37-10.35-4.14l-1.99-1.9c-6.02-5.75-14.04-8.96-22.37-8.96h-231.85c-8.33 0-16.34 3.21-22.37 8.96l-1.99 1.9c-2.91 2.77-6.63 4.14-10.35 4.14-4.22 0-8.44-1.77-11.43-5.28-5.21-6.11-4.44-15.32 1.37-20.85l.01-.02c3.78-3.6 6.59-8.03 8.26-12.87.59.07 1.19.11 1.79.11 3.72 0 7.44-1.37 10.35-4.14l1.99-1.9c6.03-5.75 14.04-8.96 22.37-8.96h231.85c8.33 0 16.35 3.21 22.37 8.96l1.99 1.9c2.91 2.77 6.63 4.14 10.35 4.14.6 0 1.2-.04 1.79-.11 1.67 4.84 4.48 9.27 8.26 12.87l.01.01c5.81 5.54 6.58 14.75 1.38 20.85z" fill="#dddaec"/><g><path d="m256.318 168.803h-121.614c-58.954 0-106.746 47.792-106.746 106.746 0 58.954 47.792 106.746 106.746 106.746h120.193c1.327 12.339 11.771 21.948 24.463 21.948 13.591 0 24.608-11.017 24.608-24.608v-202.186c0-13.591-11.017-24.608-24.608-24.608-10.548 0-19.541 6.638-23.042 15.962z" fill="#98695e"/><path d="m279.355 316.779c6.8 0 12.95-2.75 17.41-7.2 4.45-4.45 7.2-10.61 7.2-17.4v87.456c0 6.79-2.75 12.95-7.2 17.4-4.46 4.45-10.61 7.21-17.41 7.21-12.69 0-23.13-9.61-24.46-21.95h-120.19c-29.48 0-56.16-11.95-75.48-31.27-19.32-19.31-31.27-46-31.27-75.48 0-8.41.97-16.59 2.81-24.44 4.61 19.66 14.65 37.23 28.46 51.04 19.32 19.32 46 31.27 75.48 31.27h120.19c1.33 12.329 11.77-16.636 24.46-16.636z" fill="#664545"/><path d="m341.921 259.034v48.383c0 35.202 28.537 63.74 63.74 63.74h48.816v-175.862h-48.816c-35.203 0-63.74 28.537-63.74 63.739z" fill="#78c2a4"/><g fill="#66b394"><path d="m360.797 268.987h107.647v19.856h-107.647z"/><path d="m341.919 265.006c0 35.2 28.534 63.742 63.742 63.742h62.781v42.41h-62.781c-35.208 0-63.742-28.534-63.742-63.742z"/><path d="m336.092 334.376 60.522-22.613-21.5-28.254 21.5-28.253-60.522-22.613"/></g><path d="m270.756 254.669h75.518c7.967 0 15.177 3.231 20.389 8.451 5.22 5.212 8.451 12.422 8.451 20.389 0 5.612-1.598 10.849-4.379 15.27-5.093 8.145-14.148 13.57-24.461 13.57h-75.518z" fill="#ffddce"/><path d="m270.756 254.669h71.972c.553 3.928.833 7.933.833 12.014 0 16.758-4.761 32.411-13.009 45.666h-59.797v-57.68z" fill="#ffcbbe"/><path d="m300.072 298.78h70.663c-5.093 8.145-14.148 13.57-24.461 13.57h-46.202z" fill="#ffcbbe"/><path d="m220.524 174.547v191.636c0 12.407-10.058 22.464-22.464 22.464-12.407 0-22.464-10.058-22.464-22.464v-191.636c0-12.407 10.058-22.464 22.464-22.464 12.406 0 22.464 10.058 22.464 22.464z" fill="#ffcbbe"/><path d="m207.656 366.183c0 5.292-4.305 9.597-9.597 9.597s-9.597-4.305-9.597-9.597v-191.635c0-5.292 4.305-9.597 9.597-9.597s9.597 4.305 9.597 9.597z" fill="#eaac9d"/><path d="m159.845 180.034h84.06c47.85 0 86.65 38.79 86.65 86.65 0 47.85-38.8 86.65-86.65 86.65h-84.06c-4.59 0-9.1-.36-13.5-1.05v-71.66c0-5.01-.73-9.85-2.1-14.42-2.52-8.49-7.22-16.05-13.45-22.01-4.64-4.46-10.13-8.04-16.2-10.47 18.6-7.46 31.75-25.64 31.75-46.91v-5.73c4.4-.69 8.91-1.05 13.5-1.05z" fill="#ffddce"/><path d="m327.745 244.734c1.84 7.01 2.81 14.37 2.81 21.95 0 47.85-38.8 86.65-86.65 86.65h-84.06c-4.59 0-9.1-.36-13.5-1.05v-43.89c4.4.69 8.91 1.05 13.5 1.05h84.06c40.27 0 74.13-27.48 83.84-64.71z" fill="#ffcbbe"/><path d="m130.795 244.194h90.19v22.01h-76.74c-2.52-8.49-7.22-16.05-13.45-22.01z" fill="#ffcbbe"/><path d="m204.834 242.021v17.727c0 6.808 5.519 12.327 12.327 12.327 6.808 0 12.327-5.519 12.327-12.327v-17.727c0-6.808-5.519-12.327-12.327-12.327-6.808-.001-12.327 5.519-12.327 12.327z" fill="#ffcbbe"/><path d="m194.356 297.069c0 5.881-2.238 11.76-6.715 16.236-2.734 2.734-7.166 2.734-9.899 0-2.734-2.733-2.734-7.166 0-9.899 3.494-3.495 3.494-9.18 0-12.674-2.734-2.734-2.733-7.167 0-9.899 2.734-2.734 7.166-2.733 9.899 0 4.476 4.475 6.715 10.356 6.715 16.236z" fill="#26457d"/><path d="m194.356 219.644c0 5.88-2.238 11.76-6.714 16.237-2.734 2.733-7.166 2.734-9.899 0-2.734-2.733-2.734-7.165 0-9.899 3.494-3.494 3.494-9.18 0-12.674-2.734-2.733-2.734-7.166 0-9.899 2.734-2.734 7.166-2.734 9.899 0 4.476 4.475 6.714 10.355 6.714 16.235z" fill="#26457d"/><path d="m276.826 259.217c0 4.959-4.02 8.979-8.979 8.979h-14.964c-4.959 0-8.979-4.02-8.979-8.979 0-4.959 4.02-8.979 8.979-8.979h14.964c4.96 0 8.979 4.02 8.979 8.979z" fill="#26457d"/><circle cx="416.456" cy="256.919" fill="#66b394" r="7.205"/></g></g><path d="m512 256c0 78.72-35.54 149.15-91.44 196.1v-271.994c0-7.719 6.257-13.976 13.976-13.976h61.244c1.72 4.6 3.32 9.25 4.78 13.97 7.43 23.98 11.44 49.47 11.44 75.9z" fill="#f9f6f6"/><g><path d="m420.557 241.954c-10.193 0-18.456-8.263-18.456-18.456v-18.955c0-10.193 8.263-18.456 18.456-18.456 10.193 0 18.456 8.263 18.456 18.456v18.955c0 10.193-8.263 18.456-18.456 18.456z" fill="#ffddce"/><path d="m426.631 240.923c-1.9.67-3.94 1.03-6.07 1.03-10.19 0-18.46-8.26-18.46-18.46v-18.95c0-10.2 8.27-18.46 18.46-18.46 2.13 0 4.17.36 6.07 1.03-7.22 2.5-12.39 9.36-12.39 17.43v18.95c0 8.07 5.17 14.93 12.39 17.43z" fill="#ffcbbe"/></g><g><path d="m420.557 356.681c-10.193 0-18.456-8.263-18.456-18.456v-18.955c0-10.193 8.263-18.456 18.456-18.456 10.193 0 18.456 8.263 18.456 18.456v18.955c0 10.193-8.263 18.456-18.456 18.456z" fill="#ffddce"/><path d="m426.631 355.65c-1.9.67-3.94 1.03-6.07 1.03-10.19 0-18.46-8.26-18.46-18.46v-18.95c0-10.2 8.27-18.46 18.46-18.46 2.13 0 4.17.36 6.07 1.03-7.22 2.5-12.39 9.36-12.39 17.43v18.95c0 8.07 5.17 14.93 12.39 17.43z" fill="#ffcbbe"/></g><g><path d="m206.352 133.914h-33.077c-2.752 0-5.282-1.507-6.594-3.926s-1.192-5.363.31-7.668l24.753-37.989h-17.451c-4.143 0-7.5-3.358-7.5-7.5s3.357-7.5 7.5-7.5h31.29c2.752 0 5.282 1.507 6.594 3.926s1.192 5.363-.31 7.668l-24.753 37.989h19.238c4.143 0 7.5 3.358 7.5 7.5s-3.358 7.5-7.5 7.5z" fill="#ffe07d"/></g><g><path d="m137.272 99.674h-43.966c-3.658 0-7.021-2.003-8.764-5.219s-1.585-7.128.411-10.192l32.902-50.495h-23.197c-5.506 0-9.969-4.463-9.969-9.969s4.463-9.969 9.969-9.969h41.591c3.658 0 7.021 2.003 8.764 5.219s1.585 7.128-.411 10.192l-32.902 50.495h25.571c5.506 0 9.969 4.463 9.969 9.969s-4.462 9.969-9.968 9.969z" fill="#ffe07d"/></g><g fill="#9dc6fb"><path d="m390.06 37.88c-1.78 1.63-4.15 2.62-6.76 2.62h-12.86c-5.54 0-10.03-4.49-10.03-10.03v-8.27c10.26 4.58 20.16 9.83 29.65 15.68z"/><path d="m347.79 16.95v13.52c0 5.54-4.49 10.03-10.04 10.03h-12.85c-5.54 0-10.03-4.49-10.03-10.03v-23.67c11.28 2.66 22.27 6.06 32.92 10.15z"/><path d="m370.445 121.118h12.852c5.542 0 10.035-4.493 10.035-10.035v-46.771c0-5.542-4.493-10.035-10.035-10.035h-12.852c-5.542 0-10.035 4.493-10.035 10.035v46.771c0 5.543 4.493 10.035 10.035 10.035z"/><path d="m324.902 121.118h12.852c5.542 0 10.035-4.493 10.035-10.035v-46.771c0-5.542-4.493-10.035-10.035-10.035h-12.852c-5.542 0-10.035 4.493-10.035 10.035v46.771c0 5.543 4.493 10.035 10.035 10.035z"/></g><path d="m411.41 459.44c-43.09 32.97-96.96 52.56-155.41 52.56s-112.32-19.59-155.41-52.56z" fill="#80b4fb"/></g></svg>