<svg id="Capa_1" enable-background="new 0 0 512 512" height="512" viewBox="0 0 512 512" width="512" xmlns="http://www.w3.org/2000/svg"><g><path d="m512 256c0 69.73-27.88 132.95-73.1 179.12-46.47 47.44-111.25 26.41-182.9 26.41-28.57 0-56.06-4.68-81.72-13.33-38.68-13.01-73.23 15.44-101.17-13.07l-.01-.01c-45.21-46.18-73.1-109.39-73.1-179.12 0-141.38 114.62-256 256-256s256 114.62 256 256z" fill="#78c2a4"/><g><path d="m438.9 202.92v232.2c-46.47 47.44-111.25 76.88-182.9 76.88s-136.42-29.44-182.89-76.87v-232.21c0-27.49 15.64-51.32 38.51-63.08 8.97-4.62 15.93-12.01 20.18-20.79 3.11-6.38 4.79-13.51 4.79-20.84v-16.74h238.83v16.74c0 7.33 1.68 14.46 4.79 20.84 4.25 8.78 11.21 16.17 20.18 20.79 22.87 11.76 38.51 35.59 38.51 63.08z" fill="#e4f6ff"/><path d="m195.68 81.47v16.74c0 17.42-4.79 33.66-12.61 41.63-11.56 11.76-19.46 35.59-19.46 63.08v245.28c0 19.75 4.08 37.62 10.67 50.47-38.68-13.01-73.23-35.03-101.17-63.54l-.01-.01v-232.2c0-27.49 15.64-51.32 38.51-63.08 15.49-7.97 24.97-24.21 24.97-41.63v-16.74z" fill="#cbe2ff"/><path d="m380.207 119.05h-248.41c3.11-6.38 4.79-13.51 4.79-20.84v-16.74h238.83v16.74c0 7.33 1.68 14.46 4.79 20.84z" fill="#cbe2ff"/><path d="m363.632 10.974h-215.263c-18.06 0-32.701 14.641-32.701 32.701v29.04c0 18.06 14.641 32.701 32.701 32.701h215.263c18.06 0 32.701-14.641 32.701-32.701v-29.04c0-18.061-14.641-32.701-32.701-32.701z" fill="#dd5790"/><path d="m231.508 105.425h-83.14c-18.06 0-32.7-14.65-32.7-32.71v-29.04c0-18.06 14.64-32.7 32.7-32.7h83.14c-18.06 0-32.7 14.64-32.7 32.7v29.04c0 18.06 14.64 32.71 32.7 32.71z" fill="#9d549b"/><path d="m228.015 469.513c-8.802-8.795-20.509-13.643-32.958-13.643h-.61c-14.014 0-27.921-3.455-40.217-9.99-28.147-14.924-45.644-44-45.644-75.87v-161.08h20c8.631 0 17.017-2.447 24.25-7.075 12.98-8.327 20.74-22.505 20.74-37.915v-20h164.85v20c0 24.808 20.182 44.99 44.99 44.99h20v161.08c0 47.344-38.521 85.86-85.87 85.86h-.6c-12.449 0-24.161 4.849-32.979 13.653l-27.95 27.991z" fill="#80b4fb"/><path d="m383.42 228.93v141.08c0 36.38-29.5 65.86-65.87 65.86h-.6c-17.67 0-34.61 7.02-47.11 19.5l-13.83 13.85-13.85-13.85c-12.49-12.48-29.43-19.5-47.1-19.5h-.61c-11.14 0-21.63-2.76-30.83-7.65v-209.52c18.02-11.56 29.96-31.76 29.96-54.76h124.85c0 35.9 29.09 64.99 64.99 64.99z" fill="#9dc6fb"/><g fill="#9d549b"><path d="m359.273 88.622c5.234 0 9.477-4.243 9.477-9.477v-41.9c0-5.234-4.243-9.477-9.477-9.477-5.234 0-9.477 4.243-9.477 9.477v41.9c0 5.234 4.243 9.477 9.477 9.477z"/><path d="m315.267 88.622c5.234 0 9.477-4.243 9.477-9.477v-41.9c0-5.234-4.243-9.477-9.477-9.477-5.234 0-9.477 4.243-9.477 9.477v41.9c0 5.234 4.243 9.477 9.477 9.477z"/><path d="m271.261 88.622c5.234 0 9.477-4.243 9.477-9.477v-41.9c0-5.234-4.243-9.477-9.477-9.477-5.234 0-9.477 4.243-9.477 9.477v41.9c0 5.234 4.243 9.477 9.477 9.477z"/><path d="m227.255 88.622c5.234 0 9.477-4.243 9.477-9.477v-41.9c0-5.234-4.243-9.477-9.477-9.477-5.234 0-9.477 4.243-9.477 9.477v41.9c-.001 5.234 4.242 9.477 9.477 9.477z"/></g></g><g fill="#ffe07d"><path d="m216.856 288.878c-.026-.069-.053-.138-.081-.206-1.433-3.482-4.79-5.73-8.555-5.73-.003 0-.006 0-.01 0-3.769.004-7.126 2.26-8.553 5.749-.023.056-.045.113-.067.17l-29.007 76.162c-1.475 3.871.468 8.204 4.339 9.678 3.869 1.473 8.204-.469 9.678-4.339l5.385-14.138h36.253l5.327 14.116c1.134 3.003 3.987 4.854 7.019 4.854.879 0 1.775-.156 2.646-.485 3.875-1.462 5.832-5.79 4.369-9.665zm-21.158 52.345 12.497-32.811 12.382 32.811z"/><path d="m240.052 286.59h.033s20.637-.092 26.325-.092c15.601 0 28.293-12.692 28.293-28.293 0-9.608-4.819-18.108-12.162-23.225 3.273-4.261 5.226-9.588 5.226-15.365 0-13.937-11.338-25.275-25.275-25.275h-22.439c-4.142 0-7.5 3.358-7.5 7.5v77.25c0 1.995.795 3.908 2.208 5.315 1.406 1.4 3.308 2.185 5.291 2.185zm26.358-15.091c-3.441 0-12.341.034-18.858.06v-26.621c2.158-.009 4.54-.018 6.798-.026h12.059c7.33 0 13.293 5.963 13.293 13.293.001 7.33-5.962 13.294-13.292 13.294zm-3.919-62.158c5.666 0 10.275 4.609 10.275 10.275s-4.609 10.275-10.275 10.275c-1.653 0-4.77.009-8.165.021h-6.774v-20.571z"/><path d="m335.054 390.047c-3.175-2.663-7.905-2.247-10.565.929-.738.88-1.538 1.706-2.376 2.452-4.299 3.829-9.753 5.771-16.21 5.771-17.162 0-31.125-13.962-31.125-31.125 0-17.162 13.962-31.125 31.125-31.125 6.238 0 12.254 1.836 17.397 5.311 3.432 2.32 8.095 1.416 10.413-2.017 2.319-3.432 1.416-8.094-2.017-10.413-7.632-5.156-16.552-7.881-25.794-7.881-25.433 0-46.125 20.691-46.125 46.125s20.691 46.125 46.125 46.125c10.103 0 19.158-3.309 26.188-9.569 1.38-1.229 2.69-2.581 3.894-4.016 2.661-3.176 2.245-7.906-.93-10.567z"/></g></g></svg>