<svg id="Capa_1" enable-background="new 0 0 512 512" height="512" viewBox="0 0 512 512" width="512" xmlns="http://www.w3.org/2000/svg"><g><path d="m512 256c0 114.02-74.55 210.64-177.57 243.76-24.71 7.95-57.837-33.271-85.197-33.271-33.46 0-38.538.706-67.838-10.974-18.31-7.3-55.685 21.744-71.615 10.634-66.36-46.249-109.78-123.129-109.78-210.149 0-141.38 114.62-256 256-256s256 114.62 256 256z" fill="#ffe07d"/><g><path d="m368.803 296.295v-157.79c0-76.491-62.008-138.499-138.499-138.499-76.491 0-138.499 62.008-138.499 138.499v155.947c-16.009 1.722-28.476 15.273-28.476 31.739 0 17.633 14.295 31.928 31.928 31.928h262.329c17.633 0 31.928-14.295 31.928-31.928-.001-13.685-8.613-25.354-20.711-29.896z" fill="#26457d"/><path d="m176.809 326.184c0 8.823 3.568 16.802 9.342 22.589 5.774 5.774 13.766 9.342 22.576 9.342h-113.471c-8.81 0-16.802-3.568-22.576-9.342-5.774-5.787-9.355-13.766-9.355-22.589 0-16.465 12.469-30.01 28.479-31.736v-155.943c0-38.249 15.505-72.866 40.572-97.933 25.055-25.067 59.684-40.572 97.934-40.572 10.912 0 21.525 1.259 31.71 3.646-25.508 5.981-48.305 19.008-66.223 36.926-25.067 25.067-40.572 59.684-40.572 97.933v155.943c-15.998 1.725 21.584 15.271 21.584 31.736z" fill="#21386b"/><path d="m334.43 490.06v9.7c-24.71 7.95-51.07 12.24-78.43 12.24-54.36 0-104.77-16.95-146.22-45.85 10.25-34.02 41.82-58.79 79.18-58.79h62.77c45.68 0 82.7 37.03 82.7 82.7z" fill="#78c2a4"/><path d="m243.98 407.36c-45.67 0-82.7 37.02-82.7 82.7v3.84c-18.31-7.3-35.57-16.64-51.5-27.75 10.24-34.02 41.81-58.79 79.18-58.79z" fill="#66b394"/><path d="m257.394 315.028v97.982c0 10.337-4.192 19.691-10.965 26.454-6.762 6.773-16.117 10.965-26.454 10.965-7.281 0-14.076-2.074-19.813-5.681-10.568-6.608-17.606-18.356-17.606-31.738v-97.982z" fill="#ffddce"/><path d="m257.394 315.028v93.382c-5.097.717-10.292 1.081-15.588 1.081-21.743 0-42.052-6.178-59.25-16.878v-77.585z" fill="#ffcbbe"/><path d="m200.163 353.064v91.683c-10.568-6.608-17.606-18.356-17.606-31.738v-59.945z" fill="#ffcbbe"/><path d="m361.35 249.853h-248.641c-16.097 0-29.147-13.05-29.147-29.147 0-16.097 13.05-29.147 29.147-29.147h248.641c16.097 0 29.147 13.05 29.147 29.147 0 16.097-13.049 29.147-29.147 29.147z" fill="#ffcbbe"/><path d="m112.709 233.158c-6.866 0-12.452-5.586-12.452-12.452s5.586-12.452 12.452-12.452h248.641c6.866 0 12.452 5.586 12.452 12.452s-5.586 12.452-12.452 12.452z" fill="#eaac9d"/><path d="m354.231 171.124v109.066c0 62.084-50.329 112.426-112.426 112.426-62.084 0-112.426-50.342-112.426-112.426v-109.066c0-5.955.467-11.807 1.362-17.516h92.977c6.5 0 12.78-.947 18.709-2.725 11.016-3.27 20.824-9.368 28.557-17.451 5.787-6.02 10.432-13.143 13.585-21.019 9.679 24.133 33.267 41.195 60.864 41.195h7.434c.897 5.709 1.364 11.561 1.364 17.516z" fill="#ffddce"/><path d="m270.285 388.969c-9.095 2.387-18.645 3.646-28.479 3.646-62.084 0-112.426-50.342-112.426-112.426v-109.065c0-5.955.467-11.807 1.362-17.516h56.946c-.895 5.709-1.362 11.561-1.362 17.516v109.066c-.001 52.249 35.654 96.181 83.959 108.779z" fill="#ffcbbe"/><path d="m416.34 323.71c-25.59 5.59-51.38 9.89-77.26 12.88-65.05 7.54-130.74 6.87-195.67-2-20.57-2.8-41.06-6.43-61.43-10.88 15.85-80.77 31.69-161.54 47.54-242.3 78.92 17.25 160.36 17.25 239.28 0 15.85 80.76 31.7 161.53 47.54 242.3z" fill="#e4f6ff"/><path d="m354.23 171.12v109.07c0 20.55-5.52 39.82-15.15 56.4-65.05 7.54-130.74 6.87-195.67-2-8.95-16.12-14.03-34.67-14.03-54.4v-109.07c0-5.95.47-11.8 1.36-17.51h92.98c6.5 0 12.78-.95 18.71-2.73 11.01-3.27 20.82-9.36 28.56-17.45 5.78-6.02 10.43-13.14 13.58-21.02 9.68 24.14 33.27 41.2 60.86 41.2h7.44c.89 5.71 1.36 11.56 1.36 17.51z" fill="#cbe2ff"/><g fill="#9dc6fb"><path d="m270.985 133.433v117.019h-28.557v-99.568c11.015-3.27 20.824-9.368 28.557-17.451z"/><path d="m273.805 229.496h-23c-8.833 0-15.994 7.161-15.994 15.994 0 8.833 7.161 15.994 15.994 15.994h23c8.833 0 15.994-7.161 15.994-15.994.001-8.833-7.16-15.994-15.994-15.994z"/><path d="m194.518 187.505c-7.352 0-14.703-2.798-20.3-8.395-3.125-3.125-3.125-8.189-.001-11.314 3.125-3.124 8.19-3.125 11.313 0 4.957 4.957 13.019 4.955 17.976 0 3.124-3.124 8.189-3.124 11.313 0 3.124 3.125 3.124 8.189-.001 11.314-5.596 5.597-12.948 8.395-20.3 8.395z"/><path d="m318.466 187.519c-7.669 0-14.878-2.986-20.301-8.409-3.124-3.125-3.124-8.189.001-11.314 3.124-3.124 8.189-3.124 11.313 0 2.4 2.4 5.592 3.722 8.986 3.722 3.396 0 6.587-1.322 8.988-3.723 3.124-3.124 8.189-3.124 11.313 0 3.124 3.125 3.124 8.189-.001 11.314-5.42 5.424-12.63 8.41-20.299 8.41z"/><path d="m238.502 324.269c-27.014 0-48.991-21.977-48.991-48.991 0-4.658 3.776-8.434 8.434-8.434s8.434 3.776 8.434 8.434c0 17.713 14.411 32.124 32.124 32.124 4.658 0 8.434 3.776 8.434 8.434s-3.777 8.433-8.435 8.433z"/><path d="m357.397 101.359h-246.257c-9.685 0-17.536-7.851-17.536-17.536v-1.839c0-9.685 7.851-17.536 17.536-17.536h246.257c9.685 0 17.536 7.851 17.536 17.536v1.839c.001 9.685-7.851 17.536-17.536 17.536z"/></g><path d="m175.43 101.357h-64.29c-9.68 0-17.54-7.85-17.54-17.53v-1.84c0-9.69 7.86-17.54 17.54-17.54h64.29c-9.68 0-17.53 7.85-17.53 17.54v1.84c0 9.68 7.85 17.53 17.53 17.53z" fill="#80b4fb"/><path d="m212.688 221.301c-7.884 0-14.276-6.392-14.276-14.276v-29.742c0-7.884 6.392-14.276 14.276-14.276 7.884 0 14.276 6.392 14.276 14.276v29.742c0 7.884-6.392 14.276-14.276 14.276z" fill="#80b4fb"/><path d="m300.724 221.301c-7.884 0-14.276-6.392-14.276-14.276v-29.742c0-7.884 6.392-14.276 14.276-14.276 7.884 0 14.276 6.392 14.276 14.276v29.742c0 7.884-6.392 14.276-14.276 14.276z" fill="#80b4fb"/><path d="m391.998 318.042c-4.684 0-8.866-3.307-9.802-8.077l-19.435-99.062c-1.063-5.42 2.468-10.675 7.888-11.738 5.413-1.062 10.675 2.468 11.737 7.888l19.435 99.062c1.063 5.42-2.468 10.675-7.888 11.738-.649.128-1.296.189-1.935.189z" fill="#fff"/></g><g><circle cx="423.643" cy="88.357" fill="#78c2a4" r="88.357"/><circle cx="423.643" cy="88.357" fill="#f9f6f6" r="74.357"/><circle cx="423.643" cy="88.357" fill="#f9f6f6" r="74.357"/><path d="m439.105 161.097c-4.99 1.06-10.16 1.62-15.46 1.62-41 0-74.36-33.36-74.36-74.36s33.36-74.36 74.36-74.36c5.3 0 10.47.56 15.46 1.62-33.6 7.13-58.89 37.04-58.89 72.74s25.29 65.61 58.89 72.74z" fill="#dddaec"/><path d="m417.573 135.076c-3.121-.269-6.03-1.806-8.015-4.303l-31.914-40.161c-3.952-4.972-3.124-12.207 1.849-16.158 4.973-3.952 12.208-3.123 16.158 1.849l21.148 26.613 28.495-51.961c3.054-5.569 10.043-7.607 15.613-4.554 5.569 3.054 7.607 10.044 4.553 15.613l-36.815 67.134c-1.852 3.377-5.27 5.602-9.107 5.929-.661.056-1.317.055-1.965-.001z" fill="#78c2a4"/></g></g></svg>