<svg id="Capa_1" enable-background="new 0 0 512 512" height="512" viewBox="0 0 512 512" width="512" xmlns="http://www.w3.org/2000/svg"><g><path d="m512 256c0 37.01-7.85 72.18-21.99 103.94-39.85 89.59-129.64 82.27-234.01 82.27s-194.16 7.32-234.01-82.27c-14.14-31.76-21.99-66.93-21.99-103.94 0-141.38 114.62-256 256-256s256 114.62 256 256z" fill="#dd5790"/><path d="m490.01 270.32v89.62c-39.85 89.59-129.64 152.06-234.01 152.06s-194.16-62.47-234.01-152.06v-89.62z" fill="#80b4fb"/><path d="m466.378 312.02h-420.756c-13.053 0-23.634-10.581-23.634-23.634v-50.029c0-13.053 10.581-23.634 23.634-23.634h420.756c13.053 0 23.634 10.581 23.634 23.634v50.029c0 13.053-10.581 23.634-23.634 23.634z" fill="#9dc6fb"/><path d="m392.7 277.274h-6.7l-130-13.902-122.545 13.902h-14.155c-7.678 0-13.902-6.224-13.902-13.902 0-7.678 6.224-13.902 13.902-13.902h273.4c7.678 0 13.902 6.224 13.902 13.902 0 7.678-6.224 13.902-13.902 13.902z" fill="#26457d"/><path d="m441.612 134.39-55.612 142.878h-252.545l-55.611-142.878 55.611-11.589 23.166-112.373 89.207 39.389 13.9-49.817 103.106 10.428v143.656z" fill="#f9f6f6"/><g fill="#dddaec"><path d="m259.728 0v277.268h-40.342l26.442-227.451z"/><path d="m196.278 277.268h-24.955l-37.868-154.467 23.166-112.373z"/><path d="m441.612 134.39-106.404 142.878h-9.128l36.754-123.184z"/></g><path d="m310.6 400.294h-32.884v-32.884c0-4.556-3.694-8.25-8.25-8.25h-26.933c-4.556 0-8.25 3.694-8.25 8.25v32.884h-32.883c-4.556 0-8.25 3.694-8.25 8.25v26.933c0 4.556 3.694 8.25 8.25 8.25h32.884v32.884c0 4.556 3.694 8.25 8.25 8.25h26.933c4.556 0 8.25-3.694 8.25-8.25v-32.884h32.883c4.556 0 8.25-3.694 8.25-8.25v-26.933c0-4.557-3.693-8.25-8.25-8.25z" fill="#f9f6f6"/></g></svg>