<svg id="Capa_1" enable-background="new 0 0 512 512" height="512" viewBox="0 0 512 512" width="512" xmlns="http://www.w3.org/2000/svg"><g><path d="m133.82 30.99c15.08-8.2 31.06-14.94 47.77-20 23.55-7.15 48.53-10.99 74.41-10.99s50.87 3.84 74.42 10.99c20.51 6.22 39.93 14.95 57.9 25.82 74.13 44.84 123.68 126.23 123.68 219.19 0 30.26-5.25 59.3-14.9 86.25l-104.502 47.594" fill="#9dc6fb"/><path d="m448.191 315.647h-9.236c-14.346 0-25.976-11.63-25.976-25.976v-61.777c0-14.346 11.63-25.976 25.976-25.976h9.236c14.346 0 25.976 11.63 25.976 25.976v61.777c-.001 14.346-11.63 25.976-25.976 25.976z" fill="#ffc250"/><path d="m453.6 362.25h-381.143c-2.98-6.52-2.558-13.2-4.988-20-9.65-26.95-22.194-55.99-22.194-86.25 0-97.13 8.825-181.64 88.545-225.01 15.08-8.2 31.06-14.94 47.77-20h184.754c9.768 0 18.179 6.891 20.1 16.468l1.876 9.352z" fill="#ffe07d"/><path d="m429.19 342.25-282.244 38.575-132.046-38.575c-9.65-26.95-14.9-55.99-14.9-86.25 0-97.13 54.1-181.64 133.82-225.01h232.94z" fill="#e4f6ff"/><path d="m390.366 352.892h-32.592v-72.68h17.535c8.316 0 15.057 6.741 15.057 15.057z" fill="#dd5790"/><g><path d="m229.992 295.65h-44.608c-32.455 0-58.766 26.31-58.766 58.766v73.42h162.139v-73.42c0-32.456-26.31-58.766-58.765-58.766z" fill="#dd5790"/><path d="m224.486 295.648c-32.453 0-58.768 26.307-58.768 58.768v73.419h-39.1v-73.419c0-32.461 26.307-58.768 58.768-58.768z" fill="#9d549b"/><path d="m234.016 230.038v69.625c0 7.345-2.979 13.992-7.792 18.798-4.805 4.813-11.453 7.792-18.798 7.792-5.174 0-10.002-1.474-14.079-4.037-7.51-4.695-12.511-13.044-12.511-22.552v-69.625h53.18z" fill="#ffddce"/><path d="m234.016 230.038v66.356c-3.622.509-7.314.768-11.076.768-15.45 0-29.882-4.39-42.102-11.993v-55.131z" fill="#ffcbbe"/><path d="m193.348 257.067v65.149c-7.51-4.695-12.511-13.044-12.511-22.552v-42.596h12.511z" fill="#ffcbbe"/><path d="m190.705 43.923c-28.598 0-52.531 19.903-58.746 46.609l-14.166-14.166c-10.095 10.095-12.118 25.195-6.087 37.307h-17.09c0 17.874 14.49 32.364 32.364 32.364 1.146 0 2.277-.061 3.392-.178v5.723h98.795v-107.659z" fill="#21386b"/><path d="m133.713 155.548c-12.639 12.639-12.639 33.131 0 45.769 12.639 12.639 33.131 12.639 45.769 0" fill="#26457d"/><path d="m307.885 183.726h-176.681c-11.439 0-20.711-9.273-20.711-20.711 0-11.439 9.273-20.711 20.711-20.711h176.681c11.439 0 20.711 9.273 20.711 20.711.001 11.438-9.272 20.711-20.711 20.711z" fill="#ffcbbe"/><path d="m131.204 171.863c-4.879 0-8.848-3.969-8.848-8.848s3.969-8.848 8.848-8.848h176.681c4.879 0 8.848 3.969 8.848 8.848s-3.969 8.848-8.848 8.848z" fill="#eaac9d"/><path d="m222.939 285.17c-44.12 0-79.887-35.767-79.887-79.887v-56.64c0-44.12 35.767-79.887 79.887-79.887h44.522c19.532 0 35.365 15.833 35.365 35.365v101.162c0 44.12-35.766 79.887-79.887 79.887z" fill="#ffddce"/><path d="m242.653 282.716c-6.305 1.602-12.906 2.449-19.71 2.449-44.123 0-79.891-35.759-79.891-79.882v-56.639c0-44.123 35.768-79.891 79.891-79.891h39.412c-44.114 0-79.882 35.768-79.882 79.891v56.639c-.001 37.327 25.59 68.663 60.18 77.433z" fill="#ffcbbe"/><path d="m202.248 163.437c-5.603 0-10.144-4.542-10.144-10.144v-21.134c0-5.603 4.542-10.144 10.144-10.144 5.603 0 10.144 4.542 10.144 10.144v21.134c0 5.602-4.541 10.144-10.144 10.144z" fill="#21386b"/><path d="m264.805 163.437c-5.603 0-10.144-4.542-10.144-10.144v-21.134c0-5.603 4.542-10.144 10.144-10.144 5.603 0 10.144 4.542 10.144 10.144v21.134c0 5.602-4.541 10.144-10.144 10.144z" fill="#21386b"/><path d="m243.671 184.149h-20.289v-105.248c0-5.603 4.542-10.144 10.144-10.144 5.603 0 10.144 4.542 10.144 10.144v105.248z" fill="#ffcbbe"/><path d="m164.612 54.083v12.045c-15.539 5.691-26.629 20.612-26.629 38.124v38.051h5.593c20.022 0 36.253-16.231 36.253-36.253v-24.352h17.024c14.876 0 26.935-12.059 26.935-26.935v-.68z" fill="#21386b"/><path d="m339.929 95.99h-87.19c-24.07 0-43.59-19.52-43.59-43.59 0-7.78 2.04-15.09 5.62-21.41h37.97v3.35c1.2-1.2 2.46-2.32 3.76-3.35h54.13c1.3 1.03 2.56 2.15 3.76 3.35l-18.06 18.06c24.08 0 43.6 19.51 43.6 43.59z" fill="#26457d"/><g fill="#ffcbbe"><path d="m245.677 169.261h-16.344c-6.277 0-11.365 5.088-11.365 11.365 0 6.277 5.088 11.365 11.365 11.365h16.344c6.277 0 11.365-5.088 11.365-11.365.001-6.277-5.088-11.365-11.365-11.365z"/><path d="m228.197 229.368c-20.82 0-37.759-16.938-37.759-37.759 0-3.59 2.91-6.5 6.5-6.5s6.5 2.91 6.5 6.5c0 13.652 11.107 24.759 24.759 24.759 3.59 0 6.5 2.91 6.5 6.5s-2.91 6.5-6.5 6.5z"/></g></g><path d="m372.423 299.429c-33.655-33.654-88.416-33.653-122.072 0-16.303 16.304-25.282 37.98-25.282 61.037s8.979 44.733 25.282 61.036c16.828 16.828 38.932 25.241 61.036 25.241s44.208-8.414 61.036-25.241c16.304-16.303 25.282-37.979 25.282-61.036s-8.978-44.733-25.282-61.037zm-61.035-5.25c13.824 0 27.651 4.287 39.289 12.856l-39.289 39.289-39.29-39.29c11.639-8.57 25.462-12.855 39.29-12.855zm46.894 113.18c-25.858 25.858-67.93 25.857-93.789 0-12.526-12.525-19.424-29.179-19.424-46.894 0-14.335 4.521-27.973 12.882-39.294l39.294 39.294-15.559 15.559 14.143 14.142 15.559-15.559 31.974 31.974 14.143-14.143-31.974-31.975 39.294-39.293c8.362 11.32 12.882 24.959 12.882 39.294-.001 17.716-6.899 34.37-19.425 46.895z" fill="#26457d"/><path d="m497.1 342.25c-15.44 43.15-42.14 80.95-76.55 109.85-10.01 8.42-20.68 16.09-31.93 22.91-8.63 5.23-17.59 9.98-26.85 14.18-10.29 4.68-20.95 8.7-31.93 11.99-10.82 3.26-21.94 5.82-33.31 7.63-5.78.92-11.62-11.444-17.52-10.914-7.58.68-15.25 1.02-23.01 1.02-6.02 0-11.99-.21-17.9-.62-15.73-1.08-31.06-3.59-45.88-7.4-5.72-1.47-11.37 9.954-16.94 8.104-16.75-5.55-32.74-12.79-47.75-21.52-45.68-26.56-82.4-66.86-104.5-115.23-2.98-6.52-5.7-13.2-8.13-20z" fill="#ffe07d"/><g><path d="m393.491 310.569c-7.208 7.208-18.893 7.208-26.101 0l-13.403-13.403c-7.208-7.208-7.208-18.893 0-26.101 7.208-7.208 18.893-7.208 26.101 0l13.403 13.403c7.207 7.208 7.207 18.894 0 26.101z" fill="#ffddce"/><path d="m397.057 305.545c-.87 1.817-2.058 3.514-3.564 5.02-7.205 7.205-18.894 7.212-26.106 0l-13.4-13.4c-7.213-7.213-7.205-18.901 0-26.106 1.506-1.506 3.203-2.694 5.02-3.564-3.338 6.873-2.142 15.38 3.564 21.086l13.4 13.4c5.706 5.707 14.213 6.902 21.086 3.564z" fill="#ffcbbe"/></g><g><path d="m269.985 271.063c-7.208-7.208-18.893-7.208-26.101 0l-13.403 13.403c-7.208 7.208-7.208 18.893 0 26.101 7.208 7.208 18.893 7.208 26.101 0l13.403-13.403c7.208-7.208 7.208-18.894 0-26.101z" fill="#ffddce"/><path d="m273.551 276.087c-.87-1.817-2.058-3.514-3.564-5.021-7.205-7.205-18.894-7.212-26.106 0l-13.4 13.4c-7.213 7.213-7.205 18.901 0 26.106 1.506 1.506 3.203 2.694 5.02 3.564-3.338-6.873-2.142-15.38 3.564-21.086l13.4-13.4c5.707-5.706 14.213-6.901 21.086-3.563z" fill="#ffcbbe"/></g><path d="m296.92 501.87c0 2.35-.13 4.67-.39 6.94-5.78.92-11.62 1.64-17.52 2.17-7.58.68-24.599-23.122-32.359-23.122-6.02 0-11.99-.21-17.9-.62-15.73-1.08-21.711 20.552-36.531 16.742-5.72-1.47-11.37-3.13-16.94-4.98 1.5-32.28 28.14-57.98 60.79-57.98 33.61 0 60.85 27.24 60.85 60.85z" fill="#ffc250"/><path d="m279.96 501.87c0 3.12-.33 6.17-.95 9.11-7.58.68-15.25 1.02-23.01 1.02-6.02 0-11.99-.21-17.9-.62-15.73-1.08-31.06-3.59-45.88-7.4-.03-.7-.05-1.4-.05-2.11 0-24.24 19.65-43.9 43.9-43.9 24.24 0 43.89 19.66 43.89 43.9z" fill="#e4f6ff"/><path d="m279.96 501.87c0 3.12-.33 6.17-.95 9.11-7.58.68-15.25 1.02-23.01 1.02-6.02 0-11.99-.21-17.9-.62-.68-3.06-1.04-6.24-1.04-9.51 0-16.04 8.61-30.06 21.45-37.72 12.85 7.66 21.45 21.68 21.45 37.72z" fill="#cbe2ff"/><g fill="#ffc250"><path d="m127.53 477.48c-45.68-26.56-82.4-66.86-104.5-115.23-2.98-6.52-5.7-13.2-8.13-20h85.73z"/><path d="m361.77 444.01v45.18c-10.29 4.68-20.95 8.7-31.93 11.99v-57.17c0-8.82 7.15-15.96 15.97-15.96 4.41 0 8.39 1.79 11.28 4.67 2.89 2.89 4.68 6.88 4.68 11.29z"/><path d="m420.55 444.01v8.09c-10.01 8.42-20.68 16.09-31.93 22.91v-31c0-8.82 7.15-15.96 15.96-15.96 4.41 0 8.4 1.79 11.29 4.67 2.89 2.89 4.68 6.88 4.68 11.29z"/></g><g><circle cx="423.643" cy="88.357" fill="#78c2a4" r="88.357"/><circle cx="423.643" cy="88.357" fill="#f9f6f6" r="74.357"/><circle cx="423.643" cy="88.357" fill="#f9f6f6" r="74.357"/><path d="m439.105 161.097c-4.99 1.06-10.16 1.62-15.46 1.62-41 0-74.36-33.36-74.36-74.36s33.36-74.36 74.36-74.36c5.3 0 10.47.56 15.46 1.62-33.6 7.13-58.89 37.04-58.89 72.74s25.29 65.61 58.89 72.74z" fill="#dddaec"/><path d="m417.573 135.076c-3.121-.269-6.03-1.806-8.015-4.303l-31.914-40.161c-3.952-4.972-3.124-12.207 1.849-16.158 4.973-3.952 12.208-3.123 16.158 1.849l21.148 26.613 28.495-51.961c3.054-5.569 10.043-7.607 15.613-4.554 5.569 3.054 7.607 10.044 4.553 15.613l-36.815 67.134c-1.852 3.377-5.27 5.602-9.107 5.929-.661.056-1.317.055-1.965-.001z" fill="#78c2a4"/></g><path d="m106.21 225.936h-15.435v-15.436c0-8.302-6.73-15.032-15.032-15.032-8.302 0-15.032 6.73-15.032 15.032v15.435h-15.436c-8.302 0-15.032 6.73-15.032 15.032s6.73 15.033 15.032 15.033h15.435v15.435c0 8.302 6.73 15.032 15.032 15.032 8.302 0 15.032-6.73 15.032-15.032v-15.435h15.435c8.302 0 15.032-6.73 15.032-15.032s-6.729-15.032-15.031-15.032z" fill="#fff"/></g></svg>