<svg id="Capa_1" enable-background="new 0 0 512 512" height="512" viewBox="0 0 512 512" width="512" xmlns="http://www.w3.org/2000/svg"><g><path d="m512 256c0 29.704-5.059 58.226-14.363 84.752-10.899 31.072-86.633 15.254-107.87 39.539-35.969 41.132-25.878 114.802-81.385 126.345-16.91 3.516-34.43 5.364-52.382 5.364-141.38 0-256-114.62-256-256 0-75.61 32.79-143.57 84.92-190.44 13.77-12.38 45.872 15.313 62.092 6.133 36.04-20.42 60.538-70.933 104.748-71.653 1.41-.03 2.82-.04 4.24-.04 141.38 0 256 114.62 256 256z" fill="#9d66d5"/><g><circle cx="423.643" cy="88.357" fill="#dd5790" r="88.357"/><circle cx="423.643" cy="88.357" fill="#f9f6f6" r="74.357"/><circle cx="423.643" cy="88.357" fill="#f9f6f6" r="74.357"/><path d="m439.105 161.097c-4.99 1.06-10.16 1.62-15.46 1.62-41 0-74.36-33.36-74.36-74.36s33.36-74.36 74.36-74.36c5.3 0 10.47.56 15.46 1.62-33.6 7.13-58.89 37.04-58.89 72.74s25.29 65.61 58.89 72.74z" fill="#dddaec"/><g fill="#dd5790"><path d="m384.436 127.564c-4.972-4.972-4.972-13.034 0-18.006l60.407-60.407c4.972-4.972 13.034-4.972 18.006 0 4.972 4.972 4.972 13.034 0 18.006l-60.407 60.407c-4.972 4.972-13.034 4.972-18.006 0z"/><path d="m384.436 49.151c4.972-4.972 13.034-4.972 18.006 0l60.407 60.407c4.972 4.972 4.972 13.034 0 18.006-4.972 4.972-13.034 4.972-18.006 0l-60.407-60.407c-4.972-4.972-4.972-13.034 0-18.006z"/></g></g><path d="m321.71 249.79c0 31.58-20.34 58.41-48.64 68.1-7.32 2.51-15.17 3.87-23.34 3.87h-48.07c-.12 8.84-7.3 15.97-16.17 15.97h-34.3c-8.87 0-16.05-7.13-16.17-15.97h-48.07c-8.17 0-16.02-1.36-23.34-3.87-10.49-3.6-19.88-9.54-27.55-17.21-13.02-13.02-21.08-31.02-21.08-50.89 0-29.09 17.25-54.13 42.08-65.48 17.05-7.79 27.86-24.96 27.86-43.7v-75.05c44.36-39.88 102.74-64.48 166.84-65.52v140.57c0 18.74 10.81 35.91 27.86 43.7 12.42 5.67 22.94 14.77 30.36 26.09 7.42 11.31 11.73 24.84 11.73 39.39z" fill="#ffcbbe"/><path d="m130.96 321.76h-44.01c-8.17 0-16.02-1.36-23.34-3.87-10.49-3.6-19.88-9.54-27.55-17.21-13.02-13.02-21.08-31.02-21.08-50.89 0-29.09 17.25-54.13 42.08-65.48 17.05-7.79 27.86-24.96 27.86-43.7v-75.05c13.77-12.38 28.88-23.28 45.1-32.46v107.51c0 18.74-4.96 35.91-12.79 43.7-11.41 11.35-19.33 36.39-19.33 65.48 0 19.87 3.7 37.87 9.68 50.89 3.52 7.67 7.84 13.61 12.66 17.21 3.36 2.51 6.96 3.87 10.72 3.87z" fill="#eaac9d"/><g><g><path d="m497.63 305.71v35.04c-29.35 83.7-100.97 147.53-189.25 165.88-1.38-2.26-3.04-4.38-4.94-6.29l-51.87-51.86-53.1-53.11c-6.37-6.35-9.56-14.68-9.56-23.03 0-8.34 3.19-16.67 9.54-23.02 1.49-1.49 3.1-2.8 4.78-3.94 12.68-8.61 30.06-7.3 41.29 3.94l29.5 29.48v-136.66c0-8.1 3.29-15.43 8.59-20.73 5.31-5.3 12.64-8.59 20.72-8.59 16.13 0 29.22 13.03 29.33 29.13v-24.94c0-16.25 13.3-29.95 29.57-29.81 2.31.02 4.55.3 6.7.82 5.3 1.3 10.03 4.03 13.77 7.75 5.3 5.3 8.58 12.64 8.58 20.74v30.29c0-16.21 13.12-29.33 29.32-29.33 8.09 0 15.42 3.27 20.74 8.59 5.3 5.3 8.57 12.62 8.57 20.72v58.93c0-6.58 2.68-12.54 7-16.87 4.3-4.3 10.27-6.98 16.87-6.98 13.17 0 23.85 10.68 23.85 23.85z" fill="#ffddce"/></g><g><path d="m449.913 374.871v-69.156c0-13.181 10.68-23.862 23.854-23.862 1.923 0 3.792.234 5.585.664-10.48 2.515-18.271 11.941-18.271 23.198v57.988c0 6.168-5 11.168-11.168 11.168z" fill="#ffcbbe"/></g><g fill="#ffcbbe"><path d="m310.315 213.661c-5.289 1.291-10.02 4.012-13.746 7.746-5.303 5.303-8.59 12.631-8.59 20.729v143.463h-7.167l-6.792-6.792v-136.671c0-8.098 3.286-15.426 8.59-20.729 5.303-5.311 12.639-8.59 20.729-8.59 2.406 0 4.739.294 6.976.844z"/><path d="m368.931 188.029c-5.284 1.294-10.016 4.014-13.73 7.74-5.308 5.308-8.591 12.628-8.591 20.728v115.379c-.006 7.71-6.254 13.958-13.958 13.958v-103.877-24.933c0-16.258 13.305-29.971 29.57-29.833 2.312.023 4.559.305 6.709.838z"/><path d="m391.282 346.752v-99.965c0-8.098 3.286-15.426 8.59-20.729 5.303-5.311 12.639-8.59 20.729-8.59 2.406 0 4.739.293 6.976.844-5.289 1.291-10.02 4.012-13.746 7.746-5.303 5.303-8.59 12.631-8.59 20.729v86.006c0 7.709-6.25 13.959-13.959 13.959z"/></g><g><path d="m328.77 501.5c-6.68 1.98-13.49 3.7-20.39 5.13-1.38-2.26-3.04-4.38-4.94-6.29l-51.87-51.86-53.1-53.11c-6.37-6.35-9.56-14.68-9.56-23.03 0-8.33 3.19-16.67 9.56-23.02 1.48-1.49 3.08-2.8 4.76-3.94 1.5-1.02 3.06-1.89 4.69-2.64-1.32 2.87-2.19 5.89-2.61 8.97-.23 1.51-.33 3.05-.33 4.57 0 8.35 3.18 16.68 9.53 23.05l104.97 104.97c4.75 4.73 7.96 10.73 9.29 17.2z" fill="#ffcbbe"/></g></g><g fill="#26457d"><path d="m249.73 321.763h-48.071v-3.675c0-13.274 10.761-24.035 24.035-24.035 13.274 0 24.035 10.761 24.035 24.035v3.675z"/><path d="m135.021 321.763h-48.071v-3.675c0-13.274 10.761-24.035 24.035-24.035 13.274 0 24.035 10.761 24.035 24.035v3.675z"/></g></g></svg>