<svg id="Capa_1" enable-background="new 0 0 512 512" height="512" viewBox="0 0 512 512" width="512" xmlns="http://www.w3.org/2000/svg"><g><path d="m512 256c0 112.84-73.02 208.64-174.38 242.71-25.63 8.62-61.042-66.805-89.581-66.805-39.83 0-65.487-31.656-99.097-47.886-22.871-11.04-47.942 77.271-66.412 60.251-50.74-46.78-82.53-113.82-82.53-188.27 0-141.38 114.62-256 256-256s256 114.62 256 256z" fill="#dd5790"/><path d="m243.164 33.921h-66.177c-9.797 0-17.739 7.942-17.739 17.739v124.722c0 9.797 7.942 17.739 17.739 17.739h66.177c9.797 0 17.739-7.942 17.739-17.739v-124.722c0-9.797-7.942-17.739-17.739-17.739z" fill="#f9f6f6"/><path d="m201.82 194.119h-24.834c-9.795 0-17.739-7.944-17.739-17.739v-124.72c0-9.8 7.944-17.739 17.739-17.739h24.834c-9.795 0-17.739 7.938-17.739 17.739v124.72c.001 9.795 7.944 17.739 17.739 17.739z" fill="#dddaec"/><path d="m263.406 139.11h-106.662c-15.79 0-28.591 12.801-28.591 28.591v201.021c0 15.79 12.801 28.591 28.591 28.591h106.661c15.79 0 28.591-12.801 28.591-28.591v-201.021c.001-15.79-12.8-28.591-28.59-28.591z" fill="#78c2a4"/><path d="m196.77 397.31h-40.027c-15.787 0-28.59-12.803-28.59-28.59v-201.019c0-15.796 12.803-28.59 28.59-28.59h40.027c-15.787 0-28.59 12.795-28.59 28.59v201.019c0 15.787 12.803 28.59 28.59 28.59z" fill="#66b394"/><path d="m337.62 222.74v275.97c-25.63 8.62-53.08 13.29-81.62 13.29-66.93 0-127.86-25.69-173.47-67.73v-221.53c0-24.59 19.93-44.52 44.51-44.52h166.07c24.58 0 44.51 19.93 44.51 44.52z" fill="#f9f6f6"/><path d="m189.36 178.22c-24.58 0-44.51 19.92-44.51 44.52v263.93c-22.87-11.04-43.85-25.38-62.32-42.4v-221.53c0-24.6 19.93-44.52 44.51-44.52z" fill="#dddaec"/><path d="m226.769 119.459c-8.851 0-16.026-7.175-16.026-16.026v-40.957c0-8.851 7.175-16.026 16.026-16.026 8.851 0 16.026 7.175 16.026 16.026v40.956c.001 8.851-7.175 16.027-16.026 16.027z" fill="#21386b"/><g fill="#80b4fb"><path d="m234.195 373.106c-4.685-1.965-10.079.238-12.046 4.924l-43.004 102.47c-1.966 4.686.238 10.079 4.924 12.046 1.163.488 2.37.719 3.557.719 3.594 0 7.01-2.12 8.489-5.643l43.003-102.469c1.967-4.687-.238-10.08-4.923-12.047z"/><path d="m207.601 398.896c0-17.249-12.652-31.282-28.204-31.282-15.551 0-28.203 14.033-28.203 31.282s12.652 31.282 28.203 31.282c15.552 0 28.204-14.033 28.204-31.282zm-38.004 0c0-6.981 4.488-12.879 9.799-12.879 5.313 0 9.801 5.898 9.801 12.879s-4.488 12.879-9.801 12.879c-5.31 0-9.799-5.898-9.799-12.879z"/><path d="m237.476 437.674c-15.551 0-28.203 14.033-28.203 31.282s12.652 31.282 28.203 31.282c15.552 0 28.204-14.033 28.204-31.282s-12.652-31.282-28.204-31.282zm0 44.161c-5.311 0-9.799-5.898-9.799-12.879s4.488-12.879 9.799-12.879c5.312 0 9.801 5.898 9.801 12.879s-4.488 12.879-9.801 12.879z"/><path d="m158.103 356.524c1.453-1.081 35.476-26.918 41.397-75.582.326-2.052.5-4.154.5-6.296 0-22.04-17.931-39.972-39.972-39.972-22.04 0-39.971 17.931-39.971 39.972 0 22.04 17.931 39.972 39.971 39.972 3.481 0 6.859-.45 10.081-1.29-10.02 18.437-22.789 28.278-23.014 28.448-4.058 3.038-4.896 8.788-1.868 12.857 1.806 2.428 4.58 3.711 7.39 3.711 1.909-.001 3.836-.593 5.486-1.82zm-19.643-81.878c0-11.893 9.675-21.568 21.568-21.568s21.569 9.675 21.569 21.568-9.676 21.568-21.569 21.568-21.568-9.675-21.568-21.568z"/><path d="m253.591 314.617c3.482 0 6.86-.45 10.082-1.29-9.992 18.387-22.72 28.224-23.013 28.446-4.059 3.037-4.898 8.789-1.87 12.859 1.806 2.428 4.58 3.711 7.39 3.711 1.909 0 3.835-.592 5.485-1.819 1.453-1.081 35.477-26.918 41.398-75.582.326-2.052.5-4.154.5-6.296 0-22.04-17.931-39.972-39.972-39.972s-39.972 17.931-39.972 39.972c0 22.04 17.931 39.971 39.972 39.971zm0-61.54c11.893 0 21.569 9.675 21.569 21.568s-9.676 21.568-21.569 21.568-21.569-9.676-21.569-21.568 9.677-21.568 21.569-21.568z"/></g><g fill="#e4f6ff"><path d="m357.908 166.194 1.168-2.024c4.121-7.137 13.064-9.865 20.466-6.242l22.77 11.143c8.156 3.991 11.225 14.055 6.685 21.918l-2.903 5.028c-4.54 7.863-14.79 10.237-22.325 5.17l-21.035-14.148c-6.837-4.599-8.946-13.708-4.826-20.845z"/><path d="m378.592 103.097v-2.337c0-8.241 6.381-15.075 14.603-15.639l25.29-1.735c9.059-.621 16.749 6.559 16.749 15.639v5.806c0 9.08-7.69 16.261-16.749 15.639l-25.29-1.735c-8.221-.562-14.603-7.396-14.603-15.638z"/><path d="m359.077 39.688-1.168-2.024c-4.121-7.137-2.011-16.246 4.827-20.846l21.034-14.147c7.534-5.067 17.785-2.694 22.325 5.17l2.903 5.028c4.54 7.863 1.47 17.927-6.685 21.918l-22.77 11.143c-7.402 3.623-16.346.895-20.466-6.242z"/></g></g></svg>