<svg id="Capa_1" enable-background="new 0 0 512 512" height="512" viewBox="0 0 512 512" width="512" xmlns="http://www.w3.org/2000/svg"><g><path d="m16.01 345.28c-.16-.43-.32-.87-.48-1.3-10.04-27.44-15.53-57.07-15.53-87.98s5.48-60.54 15.53-87.97c.16-.44.32-.87.48-1.31 4.96-13.32 10.99-26.12 18-38.28 6.39-11.1 13.58-21.69 21.52-31.65.16-.21.32-.41.48-.61 9.71-12.13 20.5-23.37 32.23-33.55 8.02-6.96 16.47-13.44 25.32-19.37 11.71-7.85 24.1-14.77 37.07-20.63 32.14-14.54 67.81-22.63 105.37-22.63s73.23 8.09 105.37 22.63c12.97 5.86 25.36 12.78 37.07 20.63 8.85 5.93 17.3 12.41 25.32 19.37 11.92 10.35 22.88 21.79 32.71 34.16.17.2.33.41.49.61 8.13 10.3 15.5 21.23 21.99 32.71 6.83 12.07 12.71 24.75 17.52 37.93.17.44.33.89.49 1.33 9.74 27.05 15.04 56.22 15.04 86.63s-5.3 59.58-15.04 86.63c-.16.44-.32.89-.49 1.33" fill="#9dc6fb"/><path d="m34.01 43.26v340.3c6.52 11.33 13.87 22.12 22 32.26 28.83 36.03 67.2 64.1 111.27 80.38 12.33 4.56 25.11-18.57 38.26-15.95 16.31 3.27 33.19 4.98 50.46 4.98 24.26 0 47.72 23.399 69.96 17.089 52.46-14.87 98.08-46.05 131-87.72 8.13-10.3 15.5-21.23 21.99-32.71v-338.629z" fill="#dddaec"/><g><path d="m325.96 459.8v42.52c-22.24 6.31-45.7 9.68-69.96 9.68-31.19 0-61.08-5.58-88.72-15.8v-36.4c0-31.76 25.75-57.51 57.51-57.51h43.66c31.76 0 57.51 25.75 57.51 57.51z" fill="#dd5790"/><path d="m263.06 402.29c-31.76 0-57.52 25.74-57.52 57.51v47.22c-13.15-2.62-25.93-6.26-38.26-10.82v-36.4c0-31.77 25.74-57.51 57.51-57.51z" fill="#9d549b"/><path d="m272.388 338.072v68.143c0 7.189-2.915 13.694-7.626 18.397-4.703 4.711-11.209 7.626-18.397 7.626-5.064 0-9.789-1.442-13.779-3.951-7.35-4.596-12.244-12.766-12.244-22.072v-68.143z" fill="#ffddce"/><path d="m272.388 338.072v64.943c-3.544.499-7.158.752-10.841.752-15.121 0-29.246-4.296-41.206-11.738v-53.957z" fill="#ffcbbe"/><path d="m232.585 364.525v63.762c-7.35-4.596-12.244-12.766-12.244-22.072v-41.69z" fill="#ffcbbe"/><path d="m229.998 155.918c-27.989 0-51.413 19.48-57.496 45.617l-13.865-13.865c-9.88 9.88-11.86 24.659-5.958 36.513h-16.725c0 17.494 14.181 31.675 31.675 31.675 1.121 0 2.228-.06 3.319-.174v5.601h96.692v-105.367z" fill="#21386b"/><path d="m174.22 265.167c-12.37 12.37-12.37 32.425 0 44.795s32.425 12.37 44.795 0" fill="#26457d"/><path d="m344.685 292.745h-172.921c-11.195 0-20.271-9.075-20.271-20.271 0-11.195 9.075-20.271 20.271-20.271h172.921c11.195 0 20.271 9.075 20.271 20.271 0 11.196-9.076 20.271-20.271 20.271z" fill="#ffcbbe"/><path d="m171.764 281.134c-4.775 0-8.66-3.885-8.66-8.66s3.885-8.66 8.66-8.66h172.921c4.775 0 8.66 3.885 8.66 8.66s-3.885 8.66-8.66 8.66z" fill="#eaac9d"/><path d="m261.547 392.03c-43.181 0-78.187-35.005-78.187-78.187v-55.434c0-43.181 35.005-78.187 78.187-78.187h43.575c19.116 0 34.612 15.496 34.612 34.612v99.009c0 43.181-35.006 78.187-78.187 78.187z" fill="#ffddce"/><path d="m280.841 389.629c-6.17 1.567-12.631 2.397-19.29 2.397-43.184 0-78.191-34.998-78.191-78.182v-55.434c0-43.184 35.007-78.191 78.191-78.191h38.573c-43.176 0-78.182 35.007-78.182 78.191v55.433c-.001 36.533 25.045 67.202 58.899 75.786z" fill="#ffcbbe"/><path d="m241.296 272.888c-5.483 0-9.928-4.445-9.928-9.928v-20.684c0-5.483 4.445-9.928 9.928-9.928 5.483 0 9.928 4.445 9.928 9.928v20.684c0 5.483-4.445 9.928-9.928 9.928z" fill="#26457d"/><path d="m302.522 272.888c-5.483 0-9.928-4.445-9.928-9.928v-20.684c0-5.483 4.445-9.928 9.928-9.928 5.483 0 9.928 4.445 9.928 9.928v20.684c0 5.483-4.445 9.928-9.928 9.928z" fill="#26457d"/><path d="m281.837 293.159h-19.857v-103.008c0-5.483 4.445-9.928 9.928-9.928 5.483 0 9.928 4.445 9.928 9.928v103.008z" fill="#ffcbbe"/><path d="m271.062 345.744h-20.684c-4.237 0-7.672-3.435-7.672-7.672s3.435-7.672 7.672-7.672h20.684c4.237 0 7.672 3.435 7.672 7.672s-3.435 7.672-7.672 7.672z" fill="#ffcbbe"/><path d="m204.461 165.861v11.789c-15.209 5.57-26.062 20.174-26.062 37.312v37.242h5.474c19.596 0 35.481-15.886 35.481-35.481v-23.833h16.662c14.559 0 26.362-11.803 26.362-26.362v-.666h-57.917z" fill="#21386b"/><path d="m333.379 164.211 17.673-17.673c-16.662-16.662-43.677-16.662-60.339 0v-24.993c-23.564 0-42.666 19.102-42.666 42.666s19.102 42.666 42.666 42.666h85.332c0-23.564-19.102-42.666-42.666-42.666z" fill="#26457d"/><path d="m283.801 278.588h-15.996c-6.143 0-11.124 4.98-11.124 11.124 0 6.143 4.98 11.124 11.124 11.124h15.996c6.143 0 11.124-4.98 11.124-11.124-.001-6.144-4.981-11.124-11.124-11.124z" fill="#ffcbbe"/></g><path d="m15.53 54.321v289.659c.16.43.32.87.48 1.3 4.96 13.32 10.99 26.12 18 38.28 6.39 11.1 13.58 21.69 21.52 31.65v-342.579h400.94v342.579c.005.002.001 0 .006.002 8.322-10.479 15.856-21.614 22.474-33.322 6.83-12.07 12.71-24.75 17.52-37.93v-289.639c0-17.502-14.188-31.691-31.691-31.691h-417.558c-17.502 0-31.691 14.188-31.691 31.691z" fill="#f9f6f6"/><g fill="#e4f6ff"><g><path d="m86.322 151.608 1.565-.419c5.519-1.479 11.241 1.568 13.094 6.973l5.7 16.626c2.042 5.955-1.387 12.394-7.468 14.023l-3.889 1.042c-6.081 1.629-12.27-2.232-13.479-8.41l-3.376-17.248c-1.098-5.609 2.334-11.108 7.853-12.587z"/><path d="m127.396 130.815 1.146-1.146c4.04-4.04 10.519-4.262 14.827-.508l13.249 11.548c4.746 4.136 4.995 11.427.544 15.879l-2.847 2.847c-4.452 4.452-11.742 4.202-15.879-.544l-11.548-13.249c-3.754-4.308-3.532-10.787.508-14.827z"/><path d="m148.916 90.16.419-1.565c1.479-5.519 6.979-8.951 12.586-7.853l17.248 3.376c6.178 1.209 10.04 7.398 8.41 13.479l-1.042 3.889c-1.629 6.081-8.068 9.51-14.023 7.468l-16.626-5.7c-5.404-1.853-8.451-7.575-6.972-13.094z"/></g><g><path d="m426.645 151.608-1.565-.419c-5.519-1.479-11.241 1.568-13.094 6.973l-5.7 16.626c-2.042 5.955 1.387 12.394 7.468 14.023l3.889 1.042c6.081 1.629 12.27-2.232 13.479-8.41l3.376-17.248c1.097-5.609-2.334-11.108-7.853-12.587z"/><path d="m385.57 130.815-1.146-1.146c-4.04-4.04-10.519-4.262-14.827-.508l-13.249 11.548c-4.746 4.136-4.995 11.427-.544 15.879l2.847 2.847c4.452 4.452 11.742 4.202 15.879-.544l11.548-13.249c3.755-4.308 3.533-10.787-.508-14.827z"/><path d="m364.051 90.16-.419-1.565c-1.479-5.519-6.979-8.951-12.586-7.853l-17.248 3.376c-6.178 1.209-10.04 7.398-8.41 13.479l1.042 3.889c1.629 6.081 8.068 9.51 14.023 7.468l16.626-5.7c5.404-1.853 8.451-7.575 6.972-13.094z"/></g></g><g fill="#e4f6ff"><g><path d="m429.544 415.069-.81-1.403c-2.857-4.948-9.058-6.84-14.19-4.328l-15.787 7.726c-5.655 2.767-7.783 9.745-4.635 15.197l2.013 3.486c3.148 5.452 10.254 7.098 15.478 3.584l14.584-9.809c4.742-3.189 6.204-9.505 3.347-14.453z"/><path d="m415.203 371.322v-1.62c0-5.714-4.424-10.452-10.125-10.843l-17.535-1.203c-6.281-.431-11.612 4.548-11.612 10.843v4.026c0 6.295 5.332 11.274 11.612 10.843l17.535-1.203c5.701-.391 10.125-5.129 10.125-10.843z"/><path d="m428.734 327.358.81-1.403c2.857-4.948 1.395-11.264-3.347-14.453l-14.584-9.809c-5.224-3.513-12.331-1.868-15.478 3.584l-2.013 3.486c-3.148 5.452-1.02 12.429 4.635 15.197l15.787 7.726c5.133 2.512 11.333.621 14.19-4.328z"/></g><g><path d="m83.422 415.069.81-1.403c2.857-4.948 9.058-6.84 14.19-4.328l15.787 7.726c5.655 2.767 7.783 9.745 4.635 15.197l-2.013 3.486c-3.148 5.452-10.254 7.098-15.478 3.584l-14.584-9.809c-4.741-3.189-6.203-9.505-3.347-14.453z"/><path d="m97.764 371.322v-1.62c0-5.714 4.424-10.452 10.125-10.843l17.535-1.203c6.281-.431 11.612 4.548 11.612 10.843v4.026c0 6.295-5.332 11.274-11.612 10.843l-17.535-1.203c-5.701-.391-10.125-5.129-10.125-10.843z"/><path d="m84.233 327.358-.81-1.403c-2.857-4.948-1.394-11.264 3.347-14.453l14.584-9.809c5.224-3.513 12.331-1.868 15.478 3.584l2.013 3.486c3.148 5.452 1.02 12.429-4.635 15.197l-15.787 7.726c-5.133 2.512-11.334.621-14.19-4.328z"/></g></g><circle cx="76.616" cy="48.97" fill="#dd5790" r="18.66"/><circle cx="123.799" cy="48.97" fill="#78c2a4" r="18.66"/></g></svg>