<svg id="Capa_1" enable-background="new 0 0 512 512" height="512" viewBox="0 0 512 512" width="512" xmlns="http://www.w3.org/2000/svg"><g><path d="m512 256c0 141.38-114.62 256-256 256-136.34 0-247.79-106.59-255.56-240.99v-.01c-.29-4.96 21.027 3.016 21.027-2.024 0-6.12.467-16.603.887-22.613 1.28-18.28-17.224-44.593-12.304-61.613 3.86-13.35 8.77-26.24 14.66-38.59 25.27-53.14 68.32-96.19 121.47-121.46 33.28-15.84 70.51-24.7 109.82-24.7 141.38 0 256 114.62 256 256z" fill="#ffe07d"/><g><g><path d="m257.4 123.35v131.01c0 22.66-6.56 44.84-18.9 63.85v.01c-4.94 7.62-8.39 16.06-10.2 24.88v47.47h-162.62v-39.67c0-9.38-3.73-18.39-10.37-25.02l-54.87-54.87c-.29-4.96-.44-9.97-.44-15.01 0-24.73 3.51-48.63 10.05-71.25l14.66 14.66v-142.22c0-8.43 3.42-16.06 8.94-21.58s13.15-8.94 21.57-8.94c16.85 0 30.5 13.66 30.5 30.52v-25.64c0-16.93 13.85-31.18 30.78-31.05 2.4.02 4.75.33 7 .87 5.5 1.35 10.42 4.18 14.3 8.06 4.22 4.22 7.21 9.67 8.38 15.77.37 1.88.56 3.82.56 5.8v31.02c0-16.84 13.65-30.5 30.5-30.5 8.43 0 16.06 3.41 21.58 8.93s8.93 13.14 8.93 21.57v61.33c0-6.86 2.78-13.07 7.27-17.56s10.71-7.27 17.56-7.27c13.71 0 24.82 11.11 24.82 24.83z" fill="#9d66d5"/></g><g><path d="m207.751 195.311v-71.965c0-13.717 11.114-24.831 24.823-24.831 2.002 0 3.946.243 5.811.691-10.905 2.617-19.013 12.426-19.013 24.14v60.344c.001 6.418-5.202 11.621-11.621 11.621z" fill="#734a9b"/></g><g fill="#734a9b"><path d="m62.482 27.552c-5.504 1.343-10.427 4.175-14.305 8.061-5.519 5.519-8.939 13.144-8.939 21.572v149.291h-7.458l-7.068-7.068v-142.224c0-8.427 3.42-16.053 8.939-21.572 5.519-5.526 13.152-8.939 21.572-8.939 2.503.001 4.931.306 7.259.879z"/><path d="m123.498 1.372c-5.505 1.344-10.428 4.175-14.309 8.063-5.519 5.519-8.94 13.144-8.94 21.567v119.568c0 8.02-6.504 14.524-14.524 14.524v-133.545c0-16.924 13.849-31.183 30.773-31.046 2.408.021 4.758.323 7 .869z"/><path d="m146.738 166.049v-104.026c0-8.427 3.42-16.053 8.939-21.572 5.519-5.526 13.152-8.939 21.572-8.939 2.504 0 4.931.305 7.259.878-5.504 1.343-10.427 4.175-14.305 8.061-5.519 5.519-8.939 13.144-8.939 21.572v89.5c0 8.023-6.504 14.526-14.526 14.526z"/></g><g><path d="m82.39 334.19v56.38h-16.71v-39.67c0-9.38-3.72-18.38-10.36-25.02l-54.88-54.87v-.01c-.29-4.96-.44-9.96-.44-15 0-6.12.22-12.2.64-18.21l71.38 71.38c6.65 6.64 10.37 15.64 10.37 25.02z" fill="#734a9b"/></g><path d="m222.992 371.616h-151.638c-8.816 0-15.962 7.146-15.962 15.962 0 8.816 7.146 15.962 15.962 15.962h151.639c8.816 0 15.962-7.146 15.962-15.962-.001-8.816-7.147-15.962-15.963-15.962z" fill="#734a9b"/></g><g><g><path d="m314.68 100.479v39.67c0 9.38-3.73 18.39-10.37 25.02l-109.23 109.23c-6.62 6.62-9.93 15.29-9.93 23.97s3.31 17.35 9.93 23.97c13.24 13.23 34.7 13.23 47.93 0l30.7-30.7v142.22c0 8.43 3.42 16.06 8.94 21.58s13.15 8.94 21.57 8.94c16.85 0 30.5-13.66 30.5-30.52v26.14c0 16.93 13.85 31.18 30.78 31.05 2.4-.02 4.75-.33 7-.87 5.5-1.35 10.42-4.18 14.3-8.06 5.52-5.52 8.94-13.16 8.94-21.57v-31.52c0 16.84 13.65 30.5 30.5 30.5 8.43 0 16.06-3.41 21.58-8.93s8.93-13.14 8.93-21.57v-61.33c0 6.86 2.78 13.07 7.27 17.56s10.71 7.27 17.56 7.27c13.71 0 24.82-11.11 24.82-24.83v-131.01c0-22.66-6.56-44.84-18.9-63.85v-.01c-4.94-7.62-8.39-16.06-10.2-24.88v-47.47" fill="#9d66d5"/></g><g><path d="m456.749 295.739v71.965c0 13.717 11.114 24.831 24.823 24.831 2.002 0 3.946-.243 5.811-.691-10.905-2.617-19.013-12.426-19.013-24.14v-60.344c.001-6.418-5.203-11.621-11.621-11.621z" fill="#734a9b"/></g><g fill="#734a9b"><path d="m311.48 463.498c-5.504-1.343-10.427-4.175-14.305-8.061-5.519-5.519-8.939-13.144-8.939-21.572v-149.29h-7.458l-7.068 7.068v142.223c0 8.427 3.42 16.053 8.939 21.572 5.519 5.526 13.152 8.939 21.572 8.939 2.503-.001 4.931-.306 7.259-.879z"/><path d="m372.496 490.178c-5.505-1.344-10.428-4.175-14.309-8.063-5.519-5.519-8.94-13.144-8.94-21.567v-120.068c0-8.02-6.504-14.524-14.524-14.524v134.045c0 16.924 13.849 31.183 30.773 31.046 2.407-.021 4.758-.323 7-.869z"/><path d="m395.736 325.001v104.026c0 8.427 3.42 16.053 8.939 21.572 5.519 5.526 13.152 8.939 21.572 8.939 2.504 0 4.931-.305 7.259-.878-5.504-1.343-10.427-4.175-14.305-8.061-5.519-5.519-8.939-13.144-8.939-21.572v-89.5c0-8.023-6.504-14.526-14.526-14.526z"/></g><g><path d="m331.39 156.859v-56.38h-16.71v39.67c0 9.38-3.72 18.38-10.36 25.02l-109.24 109.23c-6.61 6.62-9.93 15.29-9.93 23.97s3.32 17.35 9.93 23.97c2.94 2.93 6.28 5.21 9.84 6.84-2.04-4.46-3.06-9.28-3.06-14.1 0-8.68 3.31-17.35 9.93-23.97l109.23-109.23c6.65-6.64 10.37-15.64 10.37-25.02z" fill="#734a9b"/></g><path d="m471.99 119.434h-151.639c-8.816 0-15.962-7.146-15.962-15.962 0-8.816 7.146-15.962 15.962-15.962h151.639c8.816 0 15.962 7.146 15.962 15.962 0 8.815-7.146 15.962-15.962 15.962z" fill="#734a9b"/></g></g></svg>