<svg id="Capa_1" enable-background="new 0 0 512 512" height="512" viewBox="0 0 512 512" width="512" xmlns="http://www.w3.org/2000/svg"><g><path d="m512 256c0 53.38-16.34 102.95-44.29 143.97-6.13 8.99-12.81-14.497-20-6.377-46.91 52.96-115.41 86.34-191.71 86.34-70.33 0-134.04-28.37-180.31-74.28-7.09-7.04-13.77 17.577-20 9.757-34.86-43.73-55.69-99.14-55.69-159.41 0-141.38 114.62-256 256-256s256 114.62 256 256z" fill="#9dc6fb"/><path d="m467.71 156.16v243.81c-6.13 8.99-12.81 17.57-20 25.69-46.91 52.96-115.41 86.34-191.71 86.34-70.33 0-134.04-28.37-180.31-74.28-7.09-7.04-13.77-14.49-20-22.31v-259.25l200.31-146.16z" fill="#f9f6f6"/><path d="m447.71 166.65v259.01c-26.84 30.3-60.74 54.19-99.13 69.08-6.86 2.67-13.86-20.398-20.99-18.328-2.65.77-5.31 1.49-7.99 2.18-3.68.94-7.39 1.79-11.13 2.57h-.01c-16.93 3.54-34.47 5.39-52.46 5.39-21.7 0-42.78-2.7-62.91-7.79-14.81-3.74-29.1 16.678-42.75 10.478-27.92-12.67-53.17-30.2-74.65-51.52v-271.4l180.63-131.8z" fill="#dddaec"/><g fill="#9dc6fb"><path d="m407.356 314.282h12.852c5.542 0 10.035-4.493 10.035-10.035v-46.771c0-5.542-4.493-10.035-10.035-10.035h-12.852c-5.542 0-10.035 4.493-10.035 10.035v46.771c.001 5.542 4.493 10.035 10.035 10.035z"/><path d="m361.813 314.282h12.852c5.542 0 10.035-4.493 10.035-10.035v-46.771c0-5.542-4.493-10.035-10.035-10.035h-12.852c-5.542 0-10.035 4.493-10.035 10.035v46.771c.001 5.542 4.493 10.035 10.035 10.035z"/><path d="m407.356 394.898h12.852c5.542 0 10.035-4.493 10.035-10.035v-46.771c0-5.542-4.493-10.035-10.035-10.035h-12.852c-5.542 0-10.035 4.493-10.035 10.035v46.771c.001 5.542 4.493 10.035 10.035 10.035z"/><path d="m361.813 394.898h12.852c5.542 0 10.035-4.493 10.035-10.035v-46.771c0-5.542-4.493-10.035-10.035-10.035h-12.852c-5.542 0-10.035 4.493-10.035 10.035v46.771c.001 5.542 4.493 10.035 10.035 10.035z"/></g><g><path d="m327.59 482.09v19.77c-22.72 6.6-46.74 10.14-71.59 10.14-37.67 0-73.45-8.14-105.66-22.76v-7.15c0-35.48 28.77-64.25 64.25-64.25h48.76c35.48 0 64.24 28.77 64.24 64.25z" fill="#9d66d5"/><path d="m257.33 417.84c-35.47 0-64.24 28.76-64.24 64.25v22.12c-14.81-3.74-29.1-8.77-42.75-14.97v-7.15c0-35.49 28.76-64.25 64.25-64.25z" fill="#734a9b"/><path d="m267.75 346.118v76.113c0 8.029-3.256 15.296-8.518 20.549-5.253 5.262-12.52 8.518-20.549 8.518-5.656 0-10.934-1.611-15.391-4.413-8.209-5.133-13.677-14.259-13.677-24.654v-76.113z" fill="#ffddce"/><path d="m267.75 346.118v72.539c-3.959.557-7.995.84-12.108.84-16.89 0-32.666-4.799-46.026-13.111v-60.268z" fill="#ffcbbe"/><path d="m223.293 375.665v71.22c-8.209-5.133-13.677-14.259-13.677-24.654v-46.566z" fill="#ffcbbe"/><path d="m220.404 142.659c-31.263 0-57.426 21.758-64.221 50.952l-15.487-15.487c-11.035 11.035-13.247 27.543-6.654 40.783h-18.681c0 19.54 15.84 35.38 35.38 35.38 1.252 0 2.489-.067 3.708-.194v6.257h108.001v-117.691z" fill="#21386b"/><path d="m158.101 264.686c-13.817 13.817-13.817 36.218 0 50.035s36.218 13.817 50.035 0" fill="#26457d"/><path d="m348.504 295.49h-193.146c-12.505 0-22.641-10.137-22.641-22.642 0-12.505 10.137-22.642 22.641-22.642h193.146c12.505 0 22.642 10.137 22.642 22.642-.001 12.505-10.137 22.642-22.642 22.642z" fill="#ffcbbe"/><path d="m155.358 282.521c-5.334 0-9.673-4.339-9.673-9.673s4.339-9.673 9.673-9.673h193.146c5.334 0 9.673 4.339 9.673 9.673s-4.339 9.673-9.673 9.673z" fill="#eaac9d"/><path d="m255.642 406.387c-48.232 0-87.332-39.1-87.332-87.332v-61.918c0-48.232 39.1-87.331 87.331-87.331h48.671c21.352 0 38.661 17.309 38.661 38.661v110.589c0 48.231-39.099 87.331-87.331 87.331z" fill="#ffddce"/><path d="m277.193 403.705c-6.892 1.751-14.108 2.677-21.547 2.677-48.235 0-87.336-39.092-87.336-87.327v-61.917c0-48.235 39.101-87.336 87.336-87.336h43.084c-48.225 0-87.327 39.101-87.327 87.336v61.917c.001 40.806 27.976 75.062 65.79 84.65z" fill="#ffcbbe"/><path d="m233.022 273.31c-6.125 0-11.09-4.965-11.09-11.09v-23.104c0-6.125 4.965-11.09 11.09-11.09 6.125 0 11.09 4.965 11.09 11.09v23.104c0 6.125-4.965 11.09-11.09 11.09z" fill="#26457d"/><path d="m301.409 273.31c-6.125 0-11.09-4.965-11.09-11.09v-23.104c0-6.125 4.965-11.09 11.09-11.09 6.125 0 11.09 4.965 11.09 11.09v23.104c0 6.125-4.965 11.09-11.09 11.09z" fill="#26457d"/><path d="m278.305 295.952h-22.179v-115.056c0-6.125 4.965-11.09 11.09-11.09 6.125 0 11.09 4.965 11.09 11.09v115.056z" fill="#ffcbbe"/><path d="m191.879 153.766v13.167c-16.988 6.222-29.111 22.533-29.111 41.676v41.597h6.114c21.888 0 39.631-17.744 39.631-39.631v-26.621h18.61c16.262 0 29.445-13.183 29.445-29.445v-.744h-64.689z" fill="#21386b"/><path d="m335.876 151.922 19.74-19.74c-18.611-18.611-48.785-18.611-67.396 0v-27.916c-26.32 0-47.656 21.336-47.656 47.656s21.336 47.656 47.656 47.656h95.312c0-26.319-21.337-47.656-47.656-47.656z" fill="#26457d"/><g fill="#ffcbbe"><path d="m280.499 279.677h-17.867c-6.862 0-12.425 5.563-12.425 12.425 0 6.862 5.563 12.425 12.425 12.425h17.867c6.862 0 12.425-5.563 12.425-12.425-.001-6.863-5.563-12.425-12.425-12.425z"/><path d="m257.818 346.086c-20.82 0-37.759-16.938-37.759-37.759 0-3.59 2.91-6.5 6.5-6.5s6.5 2.91 6.5 6.5c0 13.652 11.107 24.759 24.759 24.759 3.59 0 6.5 2.91 6.5 6.5s-2.91 6.5-6.5 6.5z"/></g></g><path d="m489.272 200.246-233.272-150.332-233.272 150.332-22.728-35.268 256-164.978 256 164.978z" fill="#dd5790"/><g><path d="m339.275 417.31c5.71 0 10.339 4.629 10.339 10.339v53.953h-20.677v-53.953c-.001-5.711 4.628-10.339 10.338-10.339z" fill="#ffddce"/><path d="m342.816 417.938c-3.96 1.45-6.79 5.25-6.79 9.71v53.95h-7.09v-53.95c0-5.71 4.62-10.34 10.33-10.34 1.25 0 2.44.221 3.55.63z" fill="#ffcbbe"/><path d="m349.61 469.34v18.3c0 2.47-.36 4.85-1.03 7.1-6.86 2.67-13.86 5.05-20.99 7.12-6.28 1.82-12.65 3.41-19.12 4.75-5.36-4.56-8.76-11.37-8.76-18.97v-18.3c0-13.78 11.17-24.95 24.95-24.95s24.95 11.17 24.95 24.95z" fill="#ffddce"/><path d="m313.45 469.35v18.29c0 6.28 2.32 12.02 6.15 16.4-3.68.94-7.39 1.79-11.13 2.57h-.01c-5.36-4.56-8.75-11.37-8.75-18.97v-18.29c0-13.78 11.17-24.95 24.95-24.95 2.39 0 4.7.33 6.88.97-10.45 2.97-18.09 12.58-18.09 23.98z" fill="#ffcbbe"/></g><g><circle cx="423.643" cy="88.357" fill="#78c2a4" r="88.357"/><circle cx="423.643" cy="88.357" fill="#f9f6f6" r="74.357"/><circle cx="423.643" cy="88.357" fill="#f9f6f6" r="74.357"/><path d="m439.105 161.097c-4.99 1.06-10.16 1.62-15.46 1.62-41 0-74.36-33.36-74.36-74.36s33.36-74.36 74.36-74.36c5.3 0 10.47.56 15.46 1.62-33.6 7.13-58.89 37.04-58.89 72.74s25.29 65.61 58.89 72.74z" fill="#dddaec"/><path d="m417.573 135.076c-3.121-.269-6.03-1.806-8.015-4.303l-31.914-40.161c-3.952-4.972-3.124-12.207 1.849-16.158 4.973-3.952 12.208-3.123 16.158 1.849l21.148 26.613 28.495-51.961c3.054-5.569 10.043-7.607 15.613-4.554 5.569 3.054 7.607 10.044 4.553 15.613l-36.815 67.134c-1.852 3.377-5.27 5.602-9.107 5.929-.661.056-1.317.055-1.965-.001z" fill="#78c2a4"/></g></g></svg>