<svg id="Capa_1" enable-background="new 0 0 512 512" height="512" viewBox="0 0 512 512" width="512" xmlns="http://www.w3.org/2000/svg"><g><path d="m512 256c0 71.705-29.48 136.524-76.982 182.998-16.784 16.422-41.034 6.064-61.813 17.4-10.227 5.579-15.662 34.97-26.674 39.134-4.822 1.823-9.714 3.506-14.67 5.041-23.971 7.427-58.166-36.194-84.578-36.194-70.616 0-125.837 19.029-172.152-27.21-46.415-46.338-75.131-110.4-75.131-181.169 0-141.385 114.615-256 256-256s256 114.615 256 256z" fill="#78c2a4"/><g><g><path d="m506.16 349.63c0 4.77-1.82 9.53-5.45 13.17l-25.51 25.51-34.48 34.47c-3.65 3.65-5.69 8.59-5.7 13.74v2.48c-25.05 24.5-55.1 43.9-88.49 56.53v-55.25c0-7.7-2.22-15.24-6.41-21.7l-.01-.01c-6.77-10.44-10.38-22.62-10.38-35.07v-71.95c0-7.53 6.11-13.63 13.64-13.63 3.76 0 7.17 1.53 9.64 3.99 2.47 2.47 3.99 5.88 3.99 9.65v-33.68c0-4.63 1.88-8.81 4.91-11.85 3.03-3.03 7.22-4.9 11.85-4.91 9.25 0 16.75 7.51 16.75 16.76v-17.31c0-4.63 1.87-8.82 4.91-11.85 2.13-2.13 4.84-3.69 7.86-4.42 1.23-.31 2.52-.47 3.84-.48 1.2-.01 2.38.11 3.51.35h.01c7.62 1.63 13.38 8.62 13.38 16.7v14.25c.05-9.21 7.53-16.66 16.75-16.66 4.62 0 8.82 1.88 11.85 4.91s4.91 7.22 4.91 11.85v78.11l16.85-16.86c6.87-6.87 17.77-7.25 25.09-1.13.43.35.84.73 1.24 1.13 3.63 3.63 5.45 8.4 5.45 13.16z" fill="#ffe07d"/></g><g><path d="m457.528 353.325v11.52l22.61-22.62c6.28-6.28 15.94-7.14 23.13-2.56-.72-1.14-1.57-2.21-2.56-3.2-7.27-7.27-19.06-7.27-26.33 0z" fill="#ffc250"/></g><g><path d="m356.28 440.28v51.33c-3.22 1.37-6.47 2.68-9.75 3.92v-55.25c0-7.7-2.22-15.24-6.41-21.7l-.01-.01c-6.77-10.44-10.38-22.62-10.38-35.07v-71.95c0-7.53 6.11-13.63 13.64-13.63 1.72 0 3.36.32 4.87.9-5.12 1.96-8.76 6.92-8.76 12.73v71.95c0 12.45 3.61 24.63 10.38 35.07l.01.01c4.19 6.46 6.41 14 6.41 21.7z" fill="#ffc250"/></g><g fill="#ffc250"><path d="m444.754 258.937c-3.022.738-5.726 2.293-7.856 4.427-3.031 3.031-4.909 7.219-4.909 11.847v56.236c0 4.406-3.572 7.978-7.978 7.978v-64.214c0-4.628 1.878-8.816 4.909-11.847 3.031-3.035 7.223-4.909 11.847-4.909 1.376 0 2.709.168 3.987.482z"/><path d="m390.508 260.565v73.61c4.4 0 7.97-3.57 7.98-7.97v-65.94c0-4.63 1.87-8.81 4.91-11.85 1.98-1.98 4.46-3.47 7.23-4.25-1.13-.24-2.31-.36-3.51-.35-1.32.01-2.61.17-3.84.48-3.02.73-5.73 2.29-7.86 4.42-3.04 3.03-4.91 7.22-4.91 11.85z"/><path d="m357.002 340.977v-63.106c0-4.628 1.878-8.816 4.909-11.847 3.031-3.035 7.223-4.909 11.847-4.909 1.375 0 2.708.168 3.987.482-3.022.738-5.726 2.293-7.856 4.427-3.031 3.031-4.909 7.219-4.909 11.847v55.128c-.001 4.406-3.572 7.978-7.978 7.978z"/></g></g><g><path d="m331.86 500.57c-23.97 7.43-49.45 11.43-75.86 11.43-32.571 0-63.722-6.085-92.38-17.181-20.508-7.941-36.227-43.032-53.788-55.713 15.25-24.67 39.027-16.516 70.167-16.516h65.71c44.921 0 81.841 34.2 86.151 77.98z" fill="#9dc6fb"/><path d="m274.829 263.13v165.104c0 17.417-7.064 33.181-18.477 44.575-11.395 11.413-27.158 18.477-44.575 18.477-12.268 0-23.719-3.495-33.385-9.573-17.808-11.135-29.667-30.931-29.667-53.479v-165.104z" fill="#9dc6fb"/><path d="m178.391 327.223v154.49c-17.808-11.135-29.667-30.931-29.667-53.479v-101.01h29.667z" fill="#80b4fb"/><path d="m225.541 405.367h-21.101c-72.308 0-130.925-58.617-130.925-130.925v-142.779c0-72.308 58.617-130.925 130.925-130.925h21.101c72.308 0 130.925 58.617 130.925 130.925v142.779c0 72.308-58.617 130.925-130.925 130.925z" fill="#9dc6fb"/><path d="m244.265 404.033c-6.115.875-12.364 1.328-18.726 1.328h-21.094c-72.311 0-130.93-58.619-130.93-130.919v-142.779c0-72.311 58.619-130.93 130.93-130.93h21.094c6.362 0 12.611.453 18.726 1.328-63.447 9.08-112.214 63.643-112.214 129.602v142.779c0 65.949 48.766 120.511 112.214 129.591z" fill="#80b4fb"/><path d="m249.555 87.589c-56.403 0-102.126 45.723-102.126 102.126v71.449c0 56.402 45.723 102.126 102.126 102.126 56.402 0 102.126-45.723 102.126-102.126v-71.449c-.001-56.403-45.724-102.126-102.126-102.126z" fill="#80b4fb"/><path d="m339.596 193.941v62.994c0 24.862-10.079 47.367-26.375 63.663-16.297 16.297-38.801 26.375-63.663 26.375-34.879 0-65.125-19.828-80.073-48.839-3.253-6.3-5.775-13.033-7.474-20.085-1.627-6.774-2.491-13.846-2.491-21.115v-62.994c0-49.724 40.315-90.039 90.039-90.039 49.722.001 90.037 40.316 90.037 90.04z" fill="#ffddce"/><path d="m183.712 278.049v20.085h-14.227c-3.253-6.3-5.775-13.033-7.474-20.085z" fill="#26457d"/><path d="m311.14 247.84-4.02-8.32c-6.019-12.458-18.635-20.374-32.471-20.374h-24.584c-13.836 0-26.452 7.916-32.471 20.374l-4.02 8.32h-8.901c-15.41 0-27.902 12.492-27.902 27.902v38.392c0 40.41 32.759 73.169 73.169 73.169h15.934c40.41 0 73.169-32.759 73.169-73.169v-38.392c-.001-15.41-12.493-27.902-27.903-27.902z" fill="#f9f6f6"/><path d="m261.353 387.297h-11.407c-40.417 0-73.175-32.758-73.175-73.165v-38.389c0-15.411 12.498-27.899 27.909-27.899h8.895l4.025-8.329c6.023-12.457 18.634-20.373 32.47-20.373h11.407c-13.836 0-26.447 7.917-32.47 20.373l-4.015 8.329h-8.905c-15.411 0-27.899 12.488-27.899 27.899v38.389c0 40.407 32.758 73.165 73.165 73.165z" fill="#dddaec"/><path d="m266.249 324.808h-17.438c-13.335 0-24.146-10.811-24.146-24.146v-13.33c0-13.336 10.811-24.146 24.146-24.146h17.438c13.335 0 24.146 10.811 24.146 24.146v13.33c.001 13.336-10.81 24.146-24.146 24.146z" fill="#80b4fb"/><path d="m278.574 324.808h-17.438c-13.335 0-24.146-10.811-24.146-24.146v-13.33c0-13.336 10.811-24.146 24.146-24.146h17.438c13.335 0 24.146 10.811 24.146 24.146v13.33c0 13.336-10.811 24.146-24.146 24.146z" fill="#9dc6fb"/><path d="m188.892 270.316c-35.127 0-63.705-28.578-63.705-63.706v-18.487c0-35.127 28.578-63.705 63.705-63.705h17.905v145.898z" fill="#9d549b"/><path d="m334.834 270.316c-29.69 0-55.182-20.163-61.992-49.032-.227-.963-1.061-1.635-2.027-1.635s-1.8.673-2.027 1.635c-6.81 28.869-32.302 49.032-61.992 49.032-35.127 0-63.705-28.578-63.705-63.706v-18.487c0-35.127 28.578-63.705 63.705-63.705h128.038c35.127 0 63.705 28.578 63.705 63.705v18.487c.001 35.127-28.577 63.706-63.705 63.706z" fill="#dd5790"/><path d="m334.834 136.771h-128.037c-28.361 0-51.352 22.991-51.352 51.352v18.487c0 28.361 22.991 51.352 51.352 51.352 24.286 0 44.624-16.861 49.968-39.514 1.54-6.528 7.344-11.153 14.051-11.153 6.707 0 12.511 4.625 14.051 11.153 5.344 22.653 25.682 39.514 49.968 39.514 28.361 0 51.352-22.991 51.352-51.352v-18.487c-.001-28.361-22.992-51.352-51.353-51.352z" fill="#e4f6ff"/><g fill="#cbe2ff"><path d="m386.186 188.12v18.489c0 14.176-5.744 27.024-15.041 36.31-9.296 9.296-22.124 15.041-36.31 15.041-3.037 0-6.002-.268-8.895-.772 10.614-1.853 20.106-6.959 27.405-14.269 9.296-9.286 15.041-22.134 15.041-36.31v-18.489c0-28.352-22.988-51.35-51.35-51.35h17.8c28.361 0 51.35 22.998 51.35 51.35z"/><path d="m203.923 220.74c-8.497 0-15.386-6.888-15.386-15.386v-32.053c0-8.497 6.888-15.386 15.386-15.386 8.497 0 15.386 6.888 15.386 15.386v32.053c-.001 8.497-6.889 15.386-15.386 15.386z"/><path d="m297.256 220.74c-8.497 0-15.386-6.888-15.386-15.386v-32.053c0-8.497 6.888-15.386 15.386-15.386 8.497 0 15.386 6.888 15.386 15.386v32.053c0 8.497-6.889 15.386-15.386 15.386z"/></g><g fill="#80b4fb"><path d="m264.263 273.186h-3.127c-7.8 0-14.146 6.346-14.146 14.146v13.33c0 7.8 6.346 14.146 14.146 14.146h3.127z"/><path d="m278.574 273.186h-3.127v41.622h3.127c7.8 0 14.146-6.346 14.146-14.146v-13.33c0-7.8-6.346-14.146-14.146-14.146z"/></g></g><g><g><path d="m180.42 311.55v71.95c0 12.45-3.61 24.63-10.38 35.07-2.1 3.23-3.7 6.73-4.78 10.39s-1.64 7.46-1.64 11.32v54.54c-33.47-12.96-63.54-32.74-88.49-57.65v-.65c0-5.15-2.05-10.09-5.69-13.74l-29.64-29.64-30.35-30.35c-3.64-3.63-5.46-8.39-5.46-13.16s1.82-9.53 5.45-13.16c.85-.85 1.77-1.6 2.73-2.25 7.25-4.92 17.18-4.17 23.6 2.25l16.86 16.85v-78.1c0-4.63 1.88-8.82 4.91-11.85s7.22-4.91 11.84-4.91c9.22 0 16.7 7.45 16.76 16.65v-14.25c0-9.29 7.6-17.12 16.9-17.04 1.32.01 2.6.17 3.83.47 3.03.74 5.73 2.3 7.87 4.43 3.03 3.03 4.9 7.22 4.9 11.85v17.31c0-9.26 7.5-16.76 16.76-16.76 4.62 0 8.81 1.87 11.85 4.91 3.03 3.03 4.9 7.21 4.9 11.84v33.68c0-3.76 1.53-7.17 4-9.64 2.46-2.46 5.87-3.99 9.64-3.99 7.53 0 13.63 6.1 13.63 13.63z" fill="#ffe07d"/></g><g><path d="m153.151 351.074v-39.523c0-7.533 6.104-13.637 13.633-13.637 1.099 0 2.167.134 3.192.379-5.989 1.437-10.442 6.824-10.442 13.258v33.14c0 3.526-2.858 6.383-6.383 6.383z" fill="#ffc250"/></g><g fill="#ffc250"><path d="m73.371 258.943c-3.022.738-5.726 2.293-7.856 4.427-3.031 3.031-4.909 7.219-4.909 11.847v81.989h-4.096l-3.882-3.882v-78.107c0-4.628 1.878-8.816 4.909-11.847 3.031-3.035 7.223-4.909 11.847-4.909 1.376 0 2.709.168 3.987.482z"/><path d="m106.87 244.294c-3.02.74-5.724 2.294-7.847 4.423-3.033 3.033-4.909 7.217-4.91 11.846v65.939c-.003 4.406-3.574 7.977-7.977 7.977v-59.366-14.249c0-9.292 7.604-17.128 16.899-17.05 1.322.015 2.606.176 3.835.48z"/><path d="m119.644 335.004v-57.13c0-4.628 1.878-8.816 4.909-11.847 3.031-3.035 7.223-4.909 11.847-4.909 1.375 0 2.708.168 3.987.482-3.022.738-5.726 2.293-7.856 4.427-3.031 3.031-4.909 7.219-4.909 11.847v49.152c-.001 4.407-3.573 7.978-7.978 7.978z"/></g><g><path d="m84.31 427.34v18.56c-3.13-2.84-6.19-5.75-9.18-8.73v-.65c0-5.15-2.05-10.09-5.69-13.74l-29.64-29.64-30.35-30.35c-3.64-3.63-5.46-8.39-5.46-13.16 0-4.76 1.82-9.53 5.46-13.16.85-.85 1.76-1.6 2.72-2.25.86-.58 1.75-1.08 2.68-1.51-.75 1.64-1.25 3.37-1.49 5.13-.13.86-.19 1.74-.19 2.61 0 4.77 1.82 9.53 5.45 13.17l59.99 59.99c3.65 3.64 5.7 8.58 5.7 13.73z" fill="#ffc250"/></g></g></g></svg>