<svg id="Capa_1" enable-background="new 0 0 512 512" height="512" viewBox="0 0 512 512" width="512" xmlns="http://www.w3.org/2000/svg"><g><path d="m512 256c0 57.71-19.1 110.96-51.32 153.78-74.596 14.669-90.51-9.418-159.57.112-5.37.75-20.569 101.008-26.049 101.408-6.29.46-12.65.7-19.06.7-70.45 0-134.26-28.47-180.55-74.51-8.889-8.847 8.421-34.292.9-44.36-8.538-11.43-41.699-7.648-48.26-20.44-17.961-34.99-28.091-74.66-28.091-116.69 0-141.38 114.62-256 256-256s256 114.62 256 256z" fill="#9d66d5"/><g><circle cx="423.643" cy="88.357" fill="#78c2a4" r="88.357"/><circle cx="423.643" cy="88.357" fill="#f9f6f6" r="74.357"/><circle cx="423.643" cy="88.357" fill="#f9f6f6" r="74.357"/><path d="m439.105 161.097c-4.99 1.06-10.16 1.62-15.46 1.62-41 0-74.36-33.36-74.36-74.36s33.36-74.36 74.36-74.36c5.3 0 10.47.56 15.46 1.62-33.6 7.13-58.89 37.04-58.89 72.74s25.29 65.61 58.89 72.74z" fill="#dddaec"/><path d="m417.573 135.076c-3.121-.269-6.03-1.806-8.015-4.303l-31.914-40.161c-3.952-4.972-3.124-12.207 1.849-16.158 4.973-3.952 12.208-3.123 16.158 1.849l21.148 26.613 28.495-51.961c3.054-5.569 10.043-7.607 15.613-4.554 5.569 3.054 7.607 10.044 4.553 15.613l-36.815 67.134c-1.852 3.377-5.27 5.602-9.107 5.929-.661.056-1.317.055-1.965-.001z" fill="#78c2a4"/></g><g><path d="m126.525 72.695h27.933v70.831h-27.933z" fill="#f9f6f6"/><path d="m126.525 72.695h13.967v70.831h-13.967z" fill="#dddaec"/><path d="m183.583 118.583h-86.182c-15.512 0-28.087 12.575-28.087 28.087v122.403c0 15.512 12.575 28.087 28.087 28.087h86.182c15.512 0 28.087-12.575 28.087-28.087v-122.403c0-15.512-12.575-28.087-28.087-28.087z" fill="#9dc6fb"/><path d="m127.961 297.159h-30.562c-15.509 0-28.085-12.577-28.085-28.092v-122.397c0-15.515 12.577-28.092 28.085-28.092h30.561c-15.509 0-28.085 12.577-28.085 28.092v122.397c0 15.515 12.577 28.092 28.086 28.092z" fill="#80b4fb"/><path d="m281.594 69.086h-30v-17.57c0-5.695-4.633-10.328-10.328-10.328h-122.32v-30h122.32c22.237 0 40.328 18.091 40.328 40.328z" fill="#9dc6fb"/><path d="m162.038 11.19h-43.092c-7.756 0-14.044 6.288-14.044 14.044v61.203c0 7.756 6.288 14.044 14.044 14.044h43.092c7.756 0 14.044-6.288 14.044-14.044v-61.203c0-7.756-6.287-14.044-14.044-14.044z" fill="#9dc6fb"/><path d="m134.226 100.481h-15.281c-7.755 0-14.043-6.288-14.043-14.046v-61.2c0-7.758 6.289-14.046 14.043-14.046h15.281c-7.755 0-14.043 6.288-14.043 14.046v61.2c0 7.757 6.289 14.046 14.043 14.046z" fill="#80b4fb"/><path d="m252.89 199.85v193.29c0 24.5-19.86 44.35-44.35 44.35h-133.09c-18.98-18.89-35.02-40.74-47.36-64.8v-172.84c0-24.49 19.86-44.35 44.36-44.35h136.09c24.49 0 44.35 19.86 44.35 44.35z" fill="#f9f6f6"/><path d="m120.7 437.49h-45.25c-18.98-18.89-35.02-40.74-47.36-64.8v-172.84c0-24.5 19.86-44.36 44.35-44.36h48.26c-24.49 0-44.35 19.86-44.35 44.36v193.28c0 24.5 19.86 44.36 44.35 44.36z" fill="#dddaec"/></g><g><g><path d="m460.68 293.91v115.87c-43.13 57.32-109.79 95.94-185.62 101.52-.66-8.06-4.15-15.66-9.92-21.42l-105.69-105.69c-6.41-6.4-9.61-14.79-9.61-23.19s3.2-16.79 9.61-23.19c12.81-12.81 33.58-12.81 46.38 0l29.7 29.7v-137.62c0-8.15 3.31-15.53 8.65-20.87s12.72-8.64 20.87-8.64c16.3 0 29.52 13.21 29.52 29.51v-25.28c0-16.37 13.39-30.18 29.77-30.04 2.32.01 4.59.31 6.76.83 0 .01 0 .01.01.01 5.32 1.3 10.09 4.05 13.85 7.8 5.34 5.34 8.64 12.73 8.64 20.88v30.49c0-16.3 13.21-29.51 29.52-29.51 8.15 0 15.53 3.29 20.87 8.64s8.65 12.72 8.65 20.87v59.33c0-6.62 2.68-12.64 7.03-16.98 4.35-4.35 10.36-7.04 16.99-7.04 13.27 0 24.02 10.76 24.02 24.02z" fill="#ffddce"/></g><g><path d="m412.636 363.544v-69.632c0-13.272 10.754-24.026 24.018-24.026 1.937 0 3.818.235 5.623.668-10.552 2.532-18.397 12.023-18.397 23.358v58.387c0 6.211-5.034 11.245-11.244 11.245z" fill="#ffcbbe"/></g><g fill="#ffcbbe"><path d="m272.076 201.224c-5.325 1.3-10.089 4.04-13.841 7.799-5.34 5.34-8.649 12.718-8.649 20.872v144.451h-7.216l-6.839-6.839v-137.611c0-8.154 3.309-15.532 8.649-20.872 5.34-5.347 12.726-8.649 20.872-8.649 2.423 0 4.772.295 7.024.849z"/><path d="m331.11 175.411c-5.324 1.302-10.092 4.037-13.844 7.796-5.339 5.346-8.644 12.725-8.644 20.879v116.168c0 7.759-6.297 14.056-14.056 14.056v-129.698c0-16.374 13.397-30.181 29.771-30.042 2.326.015 4.593.307 6.757.834.009.007.009.007.016.007z"/><path d="m353.6 335.231v-100.653c0-8.154 3.309-15.532 8.649-20.872 5.34-5.347 12.726-8.649 20.872-8.649 2.423 0 4.771.295 7.024.849-5.325 1.3-10.089 4.04-13.841 7.799-5.34 5.34-8.649 12.718-8.649 20.872v86.598c0 7.764-6.292 14.056-14.055 14.056z"/></g><g><path d="m291.34 497.92v11.65c-5.37.75-10.8 1.33-16.28 1.73-.66-8.06-4.15-15.66-9.92-21.42l-105.69-105.69c-6.4-6.4-9.6-14.79-9.6-23.19s3.2-16.79 9.6-23.19c2.85-2.84 6.08-5.04 9.52-6.62-1.97 4.32-2.96 8.98-2.96 13.64 0 8.4 3.21 16.79 9.61 23.2l105.69 105.69c6.43 6.41 10.03 15.12 10.03 24.2z" fill="#ffcbbe"/></g><g><path d="m329.529 415.117c-2.33 0-4.503-1.472-5.285-3.803-7.422-22.112-28.084-36.968-51.414-36.968h-23.243c-3.079 0-5.576-2.496-5.576-5.576s2.496-5.576 5.576-5.576h23.243c28.127 0 53.038 17.912 61.986 44.571.98 2.919-.592 6.08-3.512 7.06-.588.199-1.187.292-1.775.292z" fill="#ffcbbe"/></g></g><path d="m283.892 113.015-20.692-20.693-20.692 20.692c-11.428 11.428-11.428 29.957 0 41.385 11.428 11.428 29.957 11.428 41.385 0 11.427-11.427 11.427-29.956-.001-41.384z" fill="#e4f6ff"/><path d="m263.198 162.97c-7.48 0-14.98-2.86-20.69-8.57-11.43-11.43-11.43-29.96 0-41.38l20.69-20.7-9.48 20.7c-5.24 11.42-5.24 29.95 0 41.38 2.62 5.71 6.049 8.57 9.48 8.57z" fill="#cbe2ff"/></g></svg>