<svg id="Capa_1" enable-background="new 0 0 512 512" height="512" viewBox="0 0 512 512" width="512" xmlns="http://www.w3.org/2000/svg"><g><path d="m512 256c0 66.9-25.66 127.81-67.69 173.41-8.14 8.84-61.195-10.267-70.505-2.647-1.42 1.16 1.44-1.12 0 0-2.88 2.27 2.98-2.14 0 0-41.93 30.08-58.864-15.505-114.394-15.475l-3.411 100.712c-11.02 0-26.562-64.113-37.212-65.463-43.58-5.53-79.068.353-112.968-24.247-17.74-12.87-33.77 13.08-47.68-3.84-36.33-44.2-58.14-100.78-58.14-162.45 0-141.38 114.62-256 256-256s256 114.62 256 256z" fill="#9dc6fb"/><g><path d="m256.16 422.29v71.468h-.16c-11.02 0-21.877 17.546-32.53 16.195-66.403-8.421-124.87-42.28-165.33-91.503 1.99-37.87 33.34-67.96 71.71-67.96h54.5c39.66 0 71.81 32.14 71.81 71.8z" fill="#78c2a4"/><path d="m177.62 350.48c-39.65 0-71.8 32.15-71.8 71.81v41.05c-17.74-12.87-33.77-27.97-47.68-44.89 1.99-37.87 33.34-67.97 71.71-67.97z" fill="#66b394"/><path d="m189.269 270.319v85.072c0 8.975-3.64 17.097-9.521 22.968-5.871 5.881-13.993 9.521-22.968 9.521-6.321 0-12.221-1.801-17.202-4.933-9.176-5.737-15.286-15.938-15.286-27.556v-85.072z" fill="#ffddce"/><path d="m189.269 270.319v81.078c-4.425.623-8.936.939-13.534.939-18.878 0-36.511-5.364-51.443-14.654v-67.362h64.977z" fill="#ffcbbe"/><path d="m139.578 303.344v79.603c-9.176-5.737-15.286-15.938-15.286-27.556v-52.047z" fill="#ffcbbe"/><path d="m136.349 42.912c-34.942 0-64.185 24.319-71.78 56.95l-17.31-17.31c-12.334 12.334-14.806 30.785-7.438 45.584h-20.88c0 21.84 17.705 39.544 39.544 39.544 1.4 0 2.782-.075 4.144-.217v6.993h120.714v-131.544z" fill="#21386b"/><path d="m66.713 179.302c-15.443 15.443-15.443 40.481 0 55.924s40.481 15.443 55.924 0" fill="#26457d"/><path d="m279.527 213.731h-215.88c-13.976 0-25.306-11.33-25.306-25.306 0-13.976 11.33-25.306 25.306-25.306h215.88c13.976 0 25.306 11.33 25.306 25.306.001 13.976-11.329 25.306-25.306 25.306z" fill="#ffcbbe"/><path d="m63.647 199.236c-5.962 0-10.811-4.85-10.811-10.811 0-5.962 4.85-10.811 10.811-10.811h215.88c5.962 0 10.811 4.85 10.811 10.811s-4.85 10.811-10.811 10.811z" fill="#eaac9d"/><path d="m175.735 337.682c-53.909 0-97.611-43.702-97.611-97.611v-69.206c0-53.909 43.702-97.611 97.611-97.611h54.4c23.865 0 43.211 19.346 43.211 43.211v123.605c0 53.91-43.702 97.612-97.611 97.612z" fill="#ffddce"/><path d="m199.822 334.684c-7.703 1.957-15.769 2.992-24.083 2.992-53.912 0-97.616-43.693-97.616-97.605v-69.205c0-53.912 43.703-97.616 97.616-97.616h48.155c-53.902 0-97.605 43.703-97.605 97.616v69.205c.001 45.608 31.269 83.897 73.533 94.613z" fill="#ffcbbe"/><path d="m150.453 188.941c-6.846 0-12.395-5.549-12.395-12.395v-25.823c0-6.846 5.549-12.395 12.395-12.395 6.846 0 12.395 5.549 12.395 12.395v25.823c0 6.846-5.55 12.395-12.395 12.395z" fill="#21386b"/><path d="m226.889 188.941c-6.846 0-12.395-5.549-12.395-12.395v-25.823c0-6.846 5.549-12.395 12.395-12.395 6.846 0 12.395 5.549 12.395 12.395v25.823c0 6.846-5.55 12.395-12.395 12.395z" fill="#21386b"/><path d="m201.066 214.248h-24.79v-128.599c0-6.846 5.549-12.395 12.395-12.395 6.846 0 12.395 5.549 12.395 12.395z" fill="#ffcbbe"/><path d="m187.613 279.897h-25.823c-5.29 0-9.578-4.288-9.578-9.578s4.288-9.578 9.578-9.578h25.823c5.29 0 9.578 4.288 9.578 9.578s-4.288 9.578-9.578 9.578z" fill="#ffcbbe"/><path d="m104.467 55.326v14.717c-18.987 6.954-32.537 25.186-32.537 46.582v46.494h6.833c24.464 0 44.296-19.832 44.296-44.296v-29.755h20.801c18.176 0 32.911-14.735 32.911-32.911v-.831z" fill="#21386b"/><path d="m265.413 53.266 22.063-22.063c-20.801-20.801-54.527-20.801-75.329 0v-31.203c-29.418 0-53.266 23.848-53.266 53.266s23.848 53.265 53.266 53.265h106.531c0-29.418-23.848-53.265-53.265-53.265z" fill="#26457d"/><path d="m203.517 196.057h-19.97c-7.67 0-13.887 6.217-13.887 13.887 0 7.67 6.217 13.887 13.887 13.887h19.97c7.67 0 13.887-6.217 13.887-13.887 0-7.67-6.217-13.887-13.887-13.887z" fill="#ffcbbe"/></g><path d="m237.851 411.232h-26.553c-9.609 0-17.398 7.789-17.398 17.398v26.553h43.951z" fill="#ffcbbe"/><path d="m418.1 343.36v110.78c-6.77 5.55-13.84 10.76-21.16 15.61-10.65 7.03-21.85 13.29-33.53 18.7-32.62 15.1-68.95 23.53-107.25 23.55h-.16c-11.02 0-21.88-.7-32.53-2.05v-166.59z" fill="#f9f6f6"/><path d="m223.465 343.364h194.639v29.015h-194.639z" fill="#dddaec"/><g fill="#26457d"><path d="m394.736 402.99h-147.902c-5.235 0-9.479-4.244-9.479-9.479 0-5.235 4.244-9.479 9.479-9.479h147.903c5.235 0 9.479 4.244 9.479 9.479 0 5.235-4.244 9.479-9.48 9.479z"/><path d="m394.736 360.258h-147.902c-5.235 0-9.479-4.244-9.479-9.479 0-5.235 4.244-9.479 9.479-9.479h147.903c5.235 0 9.479 4.244 9.479 9.479 0 5.235-4.244 9.479-9.48 9.479z"/><path d="m394.736 317.527h-147.902c-5.235 0-9.479-4.244-9.479-9.479 0-5.235 4.244-9.479 9.479-9.479h147.903c5.235 0 9.479 4.244 9.479 9.479 0 5.235-4.244 9.479-9.48 9.479z"/><path d="m394.736 445.721h-147.902c-5.235 0-9.479-4.244-9.479-9.479 0-5.235 4.244-9.479 9.479-9.479h147.903c5.235 0 9.479 4.244 9.479 9.479 0 5.235-4.244 9.479-9.48 9.479z"/><path d="m396.94 469.75c-10.65 7.03-21.85 13.29-33.53 18.7h-116.58c-5.23 0-9.48-4.24-9.48-9.48 0-2.61 1.06-4.99 2.78-6.7 1.71-1.72 4.09-2.78 6.7-2.78h147.91c.76 0 1.49.09 2.2.26z"/></g><path d="m263.36 243.02-2.47 30.93-4.78 59.74-32.64-50.77c0-3.09.35-6.09 1.01-8.97 4.07-17.72 19.93-30.93 38.88-30.93z" fill="#f9f6f6"/><path d="m497.89 282.92v72.53h-194.63v-72.53c0-3.09-.35-6.09-1.01-8.97-1.71-7.42-5.48-14.05-10.68-19.25-7.22-7.22-17.19-11.68-28.21-11.68h194.64c18.95 0 34.81 13.21 38.88 30.93.66 2.88 1.01 5.88 1.01 8.97z" fill="#f9f6f6"/><path d="m303.26 282.92v72.53h-79.79v-72.53c0-22.04 17.86-39.9 39.89-39.9s39.9 17.86 39.9 39.9z" fill="#734a9b"/><g fill="#26457d"><path d="m303.26 341.3v14.15l-28.331 2.52-36.349-2.52c-.78-1.38-1.23-2.97-1.23-4.67 0-2.62 1.06-4.99 2.78-6.7 1.71-1.72 4.09-2.78 6.7-2.78z"/><path d="m303.26 298.57v18.96h-56.43c-5.23 0-9.48-4.25-9.48-9.48 0-2.62 1.06-4.99 2.78-6.71 1.71-1.71 4.09-2.77 6.7-2.77z"/></g><g><path d="m444.31 421.72v7.69c-8.14 8.84-16.9 17.11-26.21 24.73-4.25 3.48-8.6 6.82-13.07 10.03-6.35-4.49-10.5-11.91-10.5-20.29v-22.16c0-13.75 11.14-24.89 24.89-24.89 6.87 0 13.09 2.79 17.6 7.29 4.5 4.5 7.29 10.72 7.29 17.6z" fill="#ffddce"/><path d="m409.72 421.72v22.16c0 5.05 1.51 9.76 4.1 13.68-2.88 2.27-5.81 4.47-8.79 6.61 0 0-.01 0-.01.01-6.35-4.51-10.49-11.92-10.49-20.3v-22.16c0-13.75 11.14-24.89 24.89-24.89 2.65 0 5.2.41 7.59 1.19-10.03 3.2-17.29 12.6-17.29 23.7z" fill="#ffcbbe"/></g><g><path d="m218.788 499.516c-13.745 0-24.888-11.143-24.888-24.888v-22.158c0-13.745 11.143-24.888 24.888-24.888 13.745 0 24.888 11.143 24.888 24.888v22.158c0 13.745-11.143 24.888-24.888 24.888z" fill="#ffddce"/><path d="m226.38 498.328c-2.39.78-4.94 1.19-7.59 1.19-13.75 0-24.89-11.15-24.89-24.89v-22.16c0-13.75 11.14-24.89 24.89-24.89 2.65 0 5.2.41 7.59 1.19-10.03 3.2-17.29 12.6-17.29 23.7v22.16c0 11.09 7.26 20.49 17.29 23.7z" fill="#ffcbbe"/></g><g><g><path d="m356.129 287.574c3.313 0 6 2.687 6 6v32.649c0 3.313-2.687 6-6 6s-6-2.687-6-6v-32.649c0-3.313 2.686-6 6-6z" fill="#dd5790"/></g><g><path d="m334.783 287.574c1.583 0 3.103.626 4.227 1.742 1.129 1.121 1.767 2.646 1.773 4.237 0 0 .041 11.492.041 15.898 0 3.612.023 15.795.023 15.796.003 1.593-.628 3.122-1.753 4.25-1.125 1.127-2.653 1.761-4.247 1.761h-8.974c-11.066 0-18.795-8.981-18.795-21.842 0-12.429 7.75-21.584 18.428-21.771 2.582-.045 9.254-.071 9.254-.071zm-5.947 31.684c-.006-3.627-.012-7.905-.012-9.807 0-2.255-.011-6.37-.021-9.842-1.2.01-2.324.021-3.086.035-4.586.08-6.638 4.966-6.638 9.773 0 9.132 5.201 9.842 6.795 9.842h2.962z" fill="#dd5790"/></g><g><path d="m470.936 287.574c12.31 0 22.325 10.015 22.325 22.325s-10.015 22.325-22.325 22.325c-4.473 0-8.791-1.32-12.486-3.816-2.746-1.855-3.468-5.585-1.613-8.331 1.854-2.746 5.585-3.468 8.331-1.613 1.704 1.151 3.699 1.76 5.769 1.76 5.693 0 10.325-4.632 10.325-10.325s-4.632-10.325-10.325-10.325c-2.014 0-3.686.579-4.969 1.722-.252.225-.494.474-.718.741-2.13 2.54-5.915 2.872-8.453.744-2.54-2.129-2.873-5.914-.744-8.453.597-.712 1.247-1.383 1.933-1.993 3.497-3.115 7.975-4.761 12.95-4.761z" fill="#dd5790"/></g><g><path d="m386.543 287.574c2.847 0 5.395 1.797 6.349 4.483l11.177 32.199c1.086 3.131-.57 6.549-3.701 7.636-3.133 1.084-6.549-.571-7.636-3.701l-6.08-17.516-5.773 17.379c-1.044 3.145-4.442 4.849-7.585 3.802-3.145-1.044-4.847-4.44-3.802-7.585l10.66-32.09c.937-2.754 3.481-4.589 6.347-4.608.014.001.029.001.044.001z" fill="#dd5790"/></g><path d="m429.056 287.574c12.31 0 22.325 10.015 22.325 22.325s-10.015 22.325-22.325 22.325-22.325-10.015-22.325-22.325 10.015-22.325 22.325-22.325zm0 32.65c5.693 0 10.325-4.632 10.325-10.325s-4.632-10.325-10.325-10.325-10.325 4.632-10.325 10.325 4.632 10.325 10.325 10.325z" fill="#dd5790"/></g><path d="m496.88 273.95h-194.63c-1.71-7.42-5.48-14.05-10.68-19.25-7.22-7.22-17.19-11.68-28.21-11.68h194.64c18.95 0 34.81 13.21 38.88 30.93z" fill="#dddaec"/><g fill="#e4f6ff"><path d="m434.19 146.585-.605-2.257c-2.133-7.96 2.262-16.213 10.058-18.886l23.98-8.221c8.589-2.945 17.876 2.001 20.226 10.771l1.503 5.608c2.35 8.771-3.22 17.697-12.13 19.441l-24.878 4.87c-8.089 1.584-16.021-3.366-18.154-11.326z"/><path d="m404.2 87.343-1.652-1.652c-5.827-5.827-6.148-15.172-.733-21.385l16.656-19.11c5.966-6.845 16.481-7.205 22.902-.785l4.106 4.106c6.421 6.42 6.06 16.936-.785 22.902l-19.11 16.656c-6.212 5.415-15.557 5.095-21.384-.732z"/><path d="m345.562 56.305-2.257-.605c-7.96-2.133-12.91-10.066-11.327-18.153l4.87-24.878c1.744-8.911 10.671-14.48 19.441-12.13l5.608 1.503c8.771 2.35 13.716 11.637 10.771 20.226l-8.221 23.98c-2.671 7.795-10.924 12.19-18.885 10.057z"/></g></g></svg>