<svg id="Capa_1" enable-background="new 0 0 512 512" height="512" viewBox="0 0 512 512" width="512" xmlns="http://www.w3.org/2000/svg"><g><path d="m512 256c0 61.42-21.633 117.79-57.695 161.905-13.559 16.586-58.856-4.79-76.112 7.949-11.161 8.24 6.683 51.824-5.761 58.19-19.487 9.969-40.421 17.514-62.402 22.236-17.42 3.75-40.992-21.567-59.532-21.567-43.58 0-65.405 2.683-101.325-16.527-14.13-7.56-41.183-2.697-53.583-12.667l-.01-.01c-58.28-46.919-95.58-118.859-95.58-199.509 0-141.38 114.62-256 256-256s256 114.62 256 256z" fill="#ffe07d"/><g><path d="m347.031 312.862v-166.613c0-80.768-65.475-146.243-146.243-146.243-80.768 0-146.243 65.475-146.243 146.243v164.666c-16.905 1.818-30.069 16.127-30.069 33.514 0 18.619 15.094 33.713 33.713 33.713h276.997c18.619 0 33.713-15.094 33.713-33.713.001-14.45-9.093-26.771-21.868-31.567z" fill="#26457d"/><path d="m144.302 344.422c0 9.316 3.768 17.742 9.864 23.852 6.097 6.097 14.536 9.864 23.838 9.864h-119.815c-9.302 0-17.742-3.768-23.838-9.864-6.097-6.11-9.878-14.536-9.878-23.852 0-17.385 13.166-31.688 30.072-33.511v-164.662c0-40.388 16.372-76.94 42.84-103.409 26.455-26.468 63.021-42.84 103.409-42.84 11.522 0 22.729 1.329 33.483 3.85-26.934 6.316-51.006 20.071-69.926 38.991-26.469 26.469-42.84 63.021-42.84 103.409v164.662c-16.892 1.821 22.791 16.124 22.791 33.51z" fill="#21386b"/><path d="m310.03 506.28c-17.42 3.75-35.49 5.72-54.03 5.72-60.73 0-116.52-21.15-160.41-56.48 15.78-15.69 37.54-25.38 61.54-25.38h66.28c44.44 0 81.13 33.2 86.62 76.14z" fill="#9dc6fb"/><path d="m215.23 430.14c-35.56 0-66.16 21.26-79.77 51.76-14.13-7.56-27.47-16.41-39.87-26.38l-.01-.01c15.78-15.68 37.54-25.37 61.55-25.37z" fill="#80b4fb"/><path d="m229.393 332.642v103.46c0 10.914-4.426 20.792-11.578 27.933-7.14 7.152-17.018 11.578-27.933 11.578-7.688 0-14.863-2.19-20.92-5.999-11.159-6.977-18.591-19.383-18.591-33.512v-103.46z" fill="#ffddce"/><g fill="#ffcbbe"><path d="m229.393 332.642v98.603c-5.382.757-10.868 1.142-16.459 1.142-22.959 0-44.403-6.523-62.563-17.822v-81.923z"/><path d="m168.962 372.805v96.809c-11.159-6.977-18.591-19.383-18.591-33.512v-63.297z"/><path d="m339.162 263.823h-262.544c-16.997 0-30.777-13.779-30.777-30.777 0-16.997 13.779-30.777 30.777-30.777h262.544c16.997 0 30.777 13.779 30.777 30.777-.001 16.998-13.78 30.777-30.777 30.777z"/></g><path d="m76.618 246.194c-7.25 0-13.148-5.898-13.148-13.148s5.898-13.148 13.148-13.148h262.544c7.25 0 13.148 5.898 13.148 13.148s-5.898 13.148-13.148 13.148z" fill="#eaac9d"/><path d="m331.644 180.692v115.163c0 65.555-53.143 118.712-118.712 118.712-65.555 0-118.712-53.157-118.712-118.712v-115.163c0-6.288.493-12.467 1.439-18.495h98.175c6.864 0 13.495-1 19.756-2.877 11.631-3.452 21.989-9.892 30.154-18.427 6.11-6.357 11.015-13.878 14.344-22.194 10.22 25.482 35.127 43.498 64.267 43.498h7.85c.946 6.028 1.439 12.207 1.439 18.495z" fill="#ffddce"/><path d="m243.004 410.718c-9.604 2.521-19.687 3.85-30.072 3.85-65.555 0-118.712-53.157-118.712-118.712v-115.164c0-6.288.493-12.467 1.438-18.495h60.13c-.945 6.028-1.438 12.207-1.438 18.495v115.163c0 55.171 37.649 101.56 88.654 114.863z" fill="#ffcbbe"/><path d="m243.744 140.893v123.562h-30.154v-105.135c11.631-3.452 21.989-9.891 30.154-18.427z" fill="#ffcbbe"/><path d="m246.722 242.328h-24.286c-9.327 0-16.889 7.561-16.889 16.889 0 9.327 7.561 16.889 16.889 16.889h24.286c9.327 0 16.889-7.561 16.889-16.889 0-9.328-7.562-16.889-16.889-16.889z" fill="#ffcbbe"/><path d="m163.001 199.557c-8.512 0-16.515-3.315-22.534-9.334-3.905-3.905-3.905-10.237 0-14.142s10.237-3.905 14.143 0c4.626 4.627 12.156 4.628 16.784 0 3.905-3.905 10.237-3.905 14.143 0 3.905 3.905 3.905 10.237 0 14.142-6.021 6.019-14.023 9.334-22.536 9.334z" fill="#26457d"/><path d="m293.88 199.557c-8.512 0-16.515-3.315-22.534-9.334-3.905-3.905-3.905-10.237 0-14.142 3.906-3.905 10.236-3.905 14.143 0 4.627 4.627 12.156 4.627 16.783 0 3.906-3.905 10.236-3.905 14.143 0 3.905 3.905 3.905 10.237 0 14.142-6.02 6.019-14.023 9.334-22.535 9.334z" fill="#26457d"/><path d="m180.035 346.803c-2.776 0-5.551-1.059-7.669-3.177-4.235-4.235-4.235-11.103.001-15.338 2.754-2.754 4.27-6.416 4.27-10.31 0-3.895-1.517-7.556-4.27-10.31-4.235-4.235-4.236-11.102-.001-15.338 4.235-4.235 11.102-4.235 15.338 0 6.851 6.851 10.624 15.959 10.624 25.648 0 9.688-3.773 18.797-10.624 25.648-2.118 2.118-4.894 3.177-7.669 3.177z" fill="#ffcbbe"/><path d="m242.91 302.832v37.86c0 6.89-5.37 12.53-12.16 12.96-.28.02-5.612-5.022-5.892-5.022l-3.922-2.23c-7.17 0-10.475 1.462-10.475-5.708l-4.341-12.8v-25.06c0-.74.05-1.47.13-2.19.06-.5 2.68-.99 2.77-1.47.02-.1 5.069-1.777 5.099-1.877 1.81-8.25 1.591-10.087 10.391-10.087 3.78 0 7.3-1.626 10.23.344 1 .67 1.93 1.43 2.78 2.28 2.44 2.43 4.2 5.54 4.96 9.03.03.1.05.21.07.31.23 1.181.36 2.41.36 3.66z" fill="#21386b"/><path d="m234.74 287.553v13.09h-28.49c.06-.5.14-.99.23-1.47.02-.1.04-.2.07-.3 1.81-8.25 9.16-14.43 17.96-14.43 3.78 0 7.3 1.139 10.23 3.11z" fill="#f9f6f6"/><path d="m230.75 345.082v8.57c-.28.02-.56.03-.84.03h-10.8c-7.17 0-12.99-5.82-12.99-12.99v-12.8h7.43c9.5 0 17.2 7.7 17.2 17.19z" fill="#dd5790"/><path d="m182.187 233.674c-8.325 0-15.074-6.749-15.074-15.074v-31.405c0-8.325 6.749-15.074 15.074-15.074 8.325 0 15.074 6.749 15.074 15.074v31.405c0 8.325-6.749 15.074-15.074 15.074z" fill="#21386b"/><path d="m275.145 233.674c-8.325 0-15.074-6.749-15.074-15.074v-31.405c0-8.325 6.749-15.074 15.074-15.074 8.325 0 15.074 6.749 15.074 15.074v31.405c0 8.325-6.749 15.074-15.074 15.074z" fill="#21386b"/></g><g><path d="m367.88 455.12-87.96 40.59-3.98 1.84c-5.2 2.4-11.04-1.78-10.43-7.48l4.27-40.09c.47-4.36-2.95-8.16-7.34-8.16h-13.38c-4.62 0-8.1-4.19-7.26-8.73l12.74-69.01c.08-.46.13-.91.13-1.36 0-3.98-3.24-7.36-7.39-7.36-5.75 0-9.29-6.28-6.32-11.2l45.69-75.71c2.48-4.11 8.15-4.8 11.54-1.41l65.04 65.04z" fill="#f9f6f6"/><g><path d="m451.31 421.51c-21.81 25.7-48.6 47.04-78.88 62.53-10.53-2.99-20.16-8.63-27.94-16.41l-50.88-50.88c-5.32-5.32-5.31-13.96.01-19.28 2.66-2.66 6.15-3.99 9.64-3.99s6.98 1.33 9.64 4l-23.81-23.82c-3.28-3.27-4.9-7.56-4.91-11.85 0-4.28 1.64-8.57 4.91-11.85 6.54-6.54 17.15-6.53 23.69.01l-12.24-12.24c-3.27-3.28-4.91-7.56-4.9-11.85 0-3.02.81-6.04 2.43-8.69.65-1.09 1.45-2.11 2.37-3.05.85-.86 1.76-1.61 2.73-2.24h.01c6.54-4.24 15.56-3.37 21.27 2.34l10.08 10.08c-6.48-6.55-6.46-17.1.06-23.62 3.27-3.27 7.57-4.91 11.85-4.91 4.29 0 8.58 1.63 11.85 4.91l55.23 55.23v-23.84c0-10.28 8.33-18.62 18.62-18.62 5.13 0 9.79 2.09 13.15 5.45 3.38 3.38 5.46 8.03 5.46 13.17v84.83c0 1.56.19 3.1.56 4.59z" fill="#ffddce"/></g><g><path d="m413.524 355.928 8.146 8.146-.007-31.982c0-8.881 6.223-16.32 14.545-18.166-1.315-.297-2.673-.452-4.073-.452-10.281 0-18.618 8.337-18.618 18.618z" fill="#ffcbbe"/></g><g><path d="m383.3 478.14c-3.57 2.06-7.19 4.02-10.87 5.9-10.53-2.99-20.16-8.63-27.94-16.41l-50.88-50.88c-5.32-5.32-5.31-13.96.01-19.28 1.22-1.22 2.6-2.15 4.08-2.81-2.23 5.01-1.3 11.09 2.81 15.2l50.87 50.88c8.76 8.75 19.84 14.79 31.92 17.4z" fill="#ffcbbe"/></g><g fill="#ffcbbe"><path d="m337.75 298.218c-1.616 2.659-2.428 5.671-2.425 8.685 0 4.286 1.633 8.576 4.906 11.848l39.765 39.765c3.115 3.115 3.115 8.167 0 11.282l-45.406-45.406c-3.273-3.273-4.906-7.562-4.906-11.848-.003-4.289 1.636-8.579 4.906-11.848.972-.973 2.033-1.797 3.16-2.478z"/><path d="m300.543 337.727 52.05 52.05c3.111-3.111 3.111-8.16.007-11.278l-46.627-46.627c-3.274-3.274-4.907-7.552-4.907-11.851 0-2.8.7-5.607 2.107-8.118-.969.629-1.888 1.379-2.729 2.234-.926.941-1.725 1.966-2.376 3.055-1.619 2.652-2.432 5.671-2.432 8.683-.008 4.293 1.633 8.578 4.907 11.852z"/><path d="m333.71 418.279-44.622-44.622c-3.273-3.273-4.906-7.562-4.906-11.848-.003-4.289 1.636-8.579 4.906-11.848.972-.972 2.034-1.796 3.16-2.478-1.616 2.659-2.428 5.671-2.425 8.685 0 4.286 1.633 8.576 4.906 11.848l38.982 38.982c3.114 3.114 3.114 8.165-.001 11.281z"/></g><path d="m274.753 401.47c3.907 0 7.05 3.21 6.97 7.115l-1.803 87.125-3.98 1.84c-5.2 2.4-11.04-1.78-10.43-7.48l4.27-40.09c.47-4.36-2.95-8.16-7.34-8.16h-13.38c-4.62 0-8.1-4.19-7.26-8.73l12.74-69.01c.08-.46.13-.91.13-1.36 0-3.98-3.24-7.36-7.39-7.36-5.75 0-9.29-6.28-6.32-11.2l45.69-75.71c2.48-4.11 8.15-4.8 11.54-1.41l-30.215 125.831c-1.053 4.384 2.27 8.599 6.778 8.599z" fill="#dddaec"/></g><g><circle cx="423.643" cy="88.357" fill="#78c2a4" r="88.357"/><circle cx="423.643" cy="88.357" fill="#f9f6f6" r="74.357"/><circle cx="423.643" cy="88.357" fill="#f9f6f6" r="74.357"/><path d="m439.105 161.097c-4.99 1.06-10.16 1.62-15.46 1.62-41 0-74.36-33.36-74.36-74.36s33.36-74.36 74.36-74.36c5.3 0 10.47.56 15.46 1.62-33.6 7.13-58.89 37.04-58.89 72.74s25.29 65.61 58.89 72.74z" fill="#dddaec"/><path d="m417.573 135.076c-3.121-.269-6.03-1.806-8.015-4.303l-31.914-40.161c-3.952-4.972-3.124-12.207 1.849-16.158 4.973-3.952 12.208-3.123 16.158 1.849l21.148 26.613 28.495-51.961c3.054-5.569 10.043-7.607 15.613-4.554 5.569 3.054 7.607 10.044 4.553 15.613l-36.815 67.134c-1.852 3.377-5.27 5.602-9.107 5.929-.661.056-1.317.055-1.965-.001z" fill="#78c2a4"/></g><g fill="#e4f6ff"><path d="m361.195 261.463c-3.644 0-6.961-2.467-7.885-6.163-1.09-4.358 1.56-8.775 5.918-9.864l56.262-14.066c4.357-1.09 8.774 1.56 9.864 5.918s-1.56 8.775-5.918 9.864l-56.262 14.066c-.662.166-1.326.245-1.979.245z"/><path d="m397.637 300.315c-.398 0-.8-.029-1.205-.089l-36.426-5.41c-4.444-.66-7.511-4.797-6.851-9.241.659-4.444 4.796-7.512 9.24-6.851l36.426 5.41c4.444.66 7.511 4.797 6.851 9.241-.599 4.038-4.071 6.94-8.035 6.94z"/></g></g></svg>