<svg id="Capa_1" enable-background="new 0 0 512 512" height="512" viewBox="0 0 512 512" width="512" xmlns="http://www.w3.org/2000/svg"><g><path d="m488.19 363.93c-40.71 87.45-129.37 148.07-232.19 148.07-68.89 0-131.43-27.21-177.43-71.49-2.13-2.04 4.864-16.874 2.804-18.994-4.07-4.19-4.351-9.894-8.121-14.354-3.86-4.56-7.849-7.566-11.389-12.386-4.77-6.5-11.194-11.386-15.344-18.336-.01-.02.01.02 0 0-4.44-7.44-6.151-11.051-9.831-18.951l268.123-47.346z" fill="#78c2a4"/><path d="m512 256c0 38.56-8.53 75.13-23.81 107.93h-444.422c-1.51-3.24-2.95-6.51-4.32-9.82-7.17-17.25-32.458-35.44-35.708-54.35-2.46-14.22-3.74-28.84-3.74-43.76 0-14.93 1.28-29.56 3.74-43.79 8.51-49.4 31.18-93.95 63.67-129.33 46.8-50.95 113.97-82.88 188.59-82.88 141.38 0 256 114.62 256 256z" fill="#9dc6fb"/><g><g><path d="m351.019 329.322h-16.272c-8.989 0-16.276 7.287-16.276 16.276v80.204c0 8.989 7.287 16.276 16.276 16.276h16.272c17.976 0 32.548-14.572 32.548-32.548v-47.66c.001-17.976-14.572-32.548-32.548-32.548z" fill="#26457d"/><path d="m333.583 329.322c-17.976 0-32.548 14.572-32.548 32.548v47.66c0 17.976 14.572 32.548 32.548 32.548 17.976 0 32.548-14.572 32.548-32.548v-47.66c0-17.976-14.572-32.548-32.548-32.548z" fill="#21386b"/><path d="m333.583 424.6c-8.31 0-15.07-6.76-15.07-15.07v-47.66c0-8.31 6.76-15.07 15.07-15.07s15.071 6.76 15.071 15.07v47.66c-.001 8.31-6.762 15.07-15.071 15.07z" fill="#f9f6f6"/></g><path d="m389.67 131.14v276.07h-340.24c-9.9-13.48-18.5-27.97-25.62-43.28-9.37-20.11-16.2-41.63-20.07-64.17v-168.62c0-26.65 21.6-48.26 48.25-48.26h289.43c26.65 0 48.25 21.61 48.25 48.26z" fill="#734a9b"/><path d="m389.078 82.884h-75.536c-26.649 0-48.253 21.603-48.253 48.253v276.068h172.041v-276.068c.001-26.649-21.603-48.253-48.252-48.253z" fill="#9d66d5"/><g fill="#26457d"><path d="m344.723 392.868h-14.337v-74.59c0-3.959 3.209-7.168 7.168-7.168 3.959 0 7.168 3.209 7.168 7.168v74.59z"/><path d="m366.228 392.868h-14.337v-74.59c0-3.959 3.209-7.168 7.168-7.168 3.959 0 7.168 3.209 7.168 7.168v74.59z"/><path d="m387.733 392.868h-14.337v-74.59c0-3.959 3.209-7.168 7.168-7.168 3.959 0 7.168 3.209 7.168 7.168v74.59z"/></g><path d="m230.352 243.301h206.979v-112.164h-206.979c-12.804 0-23.184 10.38-23.184 23.184v65.796c-.001 12.804 10.379 23.184 23.184 23.184z" fill="#e4f6ff"/><g fill="#cbe2ff"><path d="m265.291 131.136v112.166h-34.939c-12.812 0-23.185-10.382-23.185-23.185v-65.796c0-12.803 10.373-23.185 23.185-23.185z"/><path d="m45.522 131.135h21.717v112.166h-21.717c-12.803 0-23.185-10.382-23.185-23.185v-65.796c0-12.803 10.382-23.185 23.185-23.185z"/><path d="m84.673 131.135h43.591v112.166h-43.591z"/><path d="m190.599 155.692v63.061c0 13.554-10.985 24.548-24.548 24.548h-20.345v-112.166h20.345c13.563 0 24.548 10.994 24.548 24.557z"/></g><path d="m304.812 343.271c-7.062 0-12.787-5.725-12.787-12.787v-40.685c0-7.062 5.725-12.787 12.787-12.787 7.062 0 12.787 5.725 12.787 12.787v40.685c0 7.062-5.725 12.787-12.787 12.787z" fill="#ffe07d"/><path d="m408.27 343.271c-7.062 0-12.787-5.725-12.787-12.787v-40.685c0-7.062 5.725-12.787 12.787-12.787 7.062 0 12.787 5.725 12.787 12.787v40.685c-.001 7.062-5.725 12.787-12.787 12.787z" fill="#ffe07d"/><g><path d="m221.117 329.322h-16.272c-8.989 0-16.276 7.287-16.276 16.276v80.204c0 8.989 7.287 16.276 16.276 16.276h16.272c17.976 0 32.548-14.572 32.548-32.548v-47.66c0-17.976-14.572-32.548-32.548-32.548z" fill="#26457d"/><path d="m203.68 329.322c-17.976 0-32.548 14.572-32.548 32.548v47.66c0 17.976 14.572 32.548 32.548 32.548 17.976 0 32.548-14.572 32.548-32.548v-47.66c0-17.976-14.572-32.548-32.548-32.548z" fill="#21386b"/><path d="m203.68 424.6c-8.31 0-15.07-6.76-15.07-15.07v-47.66c0-8.31 6.76-15.07 15.07-15.07s15.071 6.76 15.071 15.07v47.66c0 8.31-6.761 15.07-15.071 15.07z" fill="#f9f6f6"/></g><g><path d="m101.09 361.87v47.66c0 14.48-9.45 26.75-22.52 30.98-2.13-2.04-4.22-4.13-6.28-6.25-8.23-8.47-3.425-29.945-10.425-39.485-4.79-6.52-21.705-14.563-25.865-21.533v-27.642c0-8.99 7.29-16.28 16.27-16.28h16.28c17.97 0 32.54 14.57 32.54 32.55z" fill="#26457d"/><path d="m83.66 361.87v47.66c0 8.99-3.64 17.13-9.53 23.02-.59.59-1.21 1.16-1.84 1.71-4.071-4.19-7.996-8.52-11.77-12.98-3.855-4.556-3.461-22.267-6.998-27.087-4.789-6.52-13.366-.259-17.526-7.231-4.44-7.441-8.511-15.127-12.187-23.032-1.51-3.24-2.95-6.51-4.32-9.82 3.48-14.23 16.31-24.79 31.62-24.79 17.981 0 32.551 14.57 32.551 32.55z" fill="#21386b"/><path d="m66.18 361.87v47.66c0 4.75-2.21 9-5.66 11.75-3.86-4.56-7.55-9.25-11.09-14.07-4.77-6.5-9.24-13.23-13.39-20.18v-25.16c0-8.31 6.76-15.07 15.07-15.07s15.07 6.76 15.07 15.07z" fill="#f9f6f6"/></g><path d="m430.704 383.956h-164.491c-7.09 0-12.838 5.748-12.838 12.838v11.521c0 7.09 5.748 12.838 12.838 12.838h164.492c7.09 0 12.838-5.748 12.838-12.838v-11.521c0-7.09-5.748-12.838-12.839-12.838z" fill="#f9f6f6"/><path d="m288.835 421.155h-22.62c-7.09 0-12.84-5.75-12.84-12.84v-11.52c0-7.09 5.75-12.84 12.84-12.84h22.62c-7.09 0-12.84 5.75-12.84 12.84v11.52c-.001 7.09 5.749 12.84 12.84 12.84z" fill="#dddaec"/><path d="m404.155 142.841c-3.675 3.675-3.675 9.632 0 13.307l-12.546-12.546c-3.675-3.675-9.632-3.675-13.307 0s-3.675 9.632 0 13.307l-13.335-13.335c-3.675-3.675-9.632-3.675-13.307 0-3.675 3.675-3.675 9.632 0 13.307l7.229 7.229c-3.675-3.675-9.632-3.675-13.307 0-3.675 3.675-3.675 9.632 0 13.307l45.114 45.114c3.675 3.675 9.632 3.675 13.307 0 3.675-3.675 3.675-9.632 0-13.307l7.229 7.229c3.675 3.675 9.632 3.675 13.307 0 3.675-3.675 3.675-9.632 0-13.307l-13.335-13.335c3.675 3.675 9.632 3.675 13.307 0s3.675-9.632 0-13.307l-12.546-12.546c3.675 3.675 9.632 3.675 13.307 0 3.675-3.675 3.675-9.632 0-13.307l-7.81-7.81c-3.675-3.674-9.633-3.674-13.307 0z" fill="#fff"/><path d="m237.688 279.627h-9.604c-8.182 0-14.814-6.633-14.814-14.814v-53.195c0-8.182 6.633-14.814 14.814-14.814h9.604c8.182 0 14.814 6.633 14.814 14.814v53.195c.001 8.182-6.632 14.814-14.814 14.814z" fill="#9d66d5"/><path d="m306.556 289.798v40.686c0 4.362 2.188 8.208 5.522 10.516 3.334-2.308 5.522-6.155 5.522-10.516v-40.686c0-4.362-2.188-8.208-5.522-10.516-3.334 2.308-5.522 6.155-5.522 10.516z" fill="#ffc250"/><path d="m410.013 289.798v40.686c0 4.362 2.188 8.208 5.522 10.516 3.334-2.308 5.522-6.155 5.522-10.516v-40.686c0-4.362-2.188-8.208-5.522-10.516-3.334 2.308-5.522 6.155-5.522 10.516z" fill="#ffc250"/></g><g><circle cx="423.643" cy="88.357" fill="#dd5790" r="88.357"/><circle cx="423.643" cy="88.357" fill="#f9f6f6" r="74.357"/><circle cx="423.643" cy="88.357" fill="#f9f6f6" r="74.357"/><path d="m439.105 161.097c-4.99 1.06-10.16 1.62-15.46 1.62-41 0-74.36-33.36-74.36-74.36s33.36-74.36 74.36-74.36c5.3 0 10.47.56 15.46 1.62-33.6 7.13-58.89 37.04-58.89 72.74s25.29 65.61 58.89 72.74z" fill="#dddaec"/><g fill="#dd5790"><path d="m384.436 127.564c-4.972-4.972-4.972-13.034 0-18.006l60.407-60.407c4.972-4.972 13.034-4.972 18.006 0 4.972 4.972 4.972 13.034 0 18.006l-60.407 60.407c-4.972 4.972-13.034 4.972-18.006 0z"/><path d="m384.436 49.151c4.972-4.972 13.034-4.972 18.006 0l60.407 60.407c4.972 4.972 4.972 13.034 0 18.006-4.972 4.972-13.034 4.972-18.006 0l-60.407-60.407c-4.972-4.972-4.972-13.034 0-18.006z"/></g></g></g></svg>