<svg id="Capa_1" enable-background="new 0 0 512 512" height="512" viewBox="0 0 512 512" width="512" xmlns="http://www.w3.org/2000/svg"><g><path d="m512 256c0 66.47-25.34 127.02-66.87 172.53-34.87 38.2-84.425 31.378-136.725 42.968-13.75 3.05-24.655 39.422-39.135 40.162-3.84.2-7.71.31-11.6.33-.55.01-14.105-11.672-14.665-11.672-58.4 0-87.951-33.367-131.021-66.286-16.88-12.9-43.384-2.352-56.584-18.982-34.68-43.68-55.4-98.95-55.4-159.05 0-141.38 114.62-256 256-256s256 114.62 256 256z" fill="#e4f6ff"/><g><path d="m471.619 262.011v-121.613c0-58.954-47.792-106.746-106.746-106.746-58.954 0-106.746 47.792-106.746 106.746v120.193c-12.339 1.327-21.948 11.771-21.948 24.463 0 13.591 11.017 24.608 24.608 24.608h202.185c13.591 0 24.608-11.017 24.608-24.608.001-10.548-6.636-19.542-15.961-23.043z" fill="#9d66d5"/><path d="m323.644 285.048c0 6.8 2.75 12.95 7.2 17.41 4.45 4.45 10.61 7.2 17.4 7.2h-87.456c-6.79 0-12.95-2.75-17.4-7.2-4.45-4.46-7.21-10.61-7.21-17.41 0-12.69 9.61-23.13 21.95-24.46v-120.19c0-29.48 11.95-56.16 31.27-75.48 19.31-19.32 46-31.27 75.48-31.27 8.41 0 16.59.97 24.44 2.81-19.66 4.61-37.23 14.65-51.04 28.46-19.32 19.32-31.27 46-31.27 75.48v120.19c-12.33 1.33 16.636 11.77 16.636 24.46z" fill="#734a9b"/><path d="m445.13 411.35v17.18c-44.04 48.24-106.28 79.58-175.86 83.13v-100.31c0-35.2 28.53-63.74 63.73-63.74h48.39c35.2 0 63.74 28.54 63.74 63.74z" fill="#78c2a4"/><path d="m375.42 347.61c-35.2 0-63.75 28.54-63.75 63.74v94.57c-13.75 3.05-27.92 5-42.4 5.74v-100.31c0-35.2 28.53-63.74 63.74-63.74z" fill="#66b394"/><path d="m385.753 276.45v75.518c0 7.967-3.231 15.177-8.451 20.389-5.212 5.22-12.422 8.451-20.389 8.451-5.612 0-10.849-1.598-15.27-4.379-8.145-5.093-13.57-14.148-13.57-24.461v-75.518z" fill="#ffddce"/><g fill="#ffcbbe"><path d="m385.753 276.45v71.972c-3.928.553-7.933.833-12.014.833-16.758 0-32.411-4.761-45.666-13.009v-59.796z"/><path d="m341.643 305.766v70.663c-8.145-5.093-13.57-14.148-13.57-24.461v-46.202z"/><path d="m465.875 226.217h-191.636c-12.407 0-22.464-10.058-22.464-22.464 0-12.407 10.058-22.464 22.464-22.464h191.636c12.407 0 22.464 10.058 22.464 22.464 0 12.406-10.057 22.464-22.464 22.464z"/></g><path d="m274.239 213.35c-5.292 0-9.597-4.305-9.597-9.597s4.305-9.597 9.597-9.597h191.635c5.292 0 9.597 4.305 9.597 9.597s-4.305 9.597-9.597 9.597z" fill="#eaac9d"/><path d="m460.388 165.539v84.06c0 47.85-38.79 86.65-86.65 86.65-47.85 0-86.65-38.8-86.65-86.65v-84.06c0-4.59.36-9.1 1.05-13.5h71.66c5.01 0 9.85-.73 14.42-2.1 8.49-2.52 16.05-7.22 22.01-13.45 4.46-4.64 8.04-10.13 10.47-16.2 7.46 18.6 25.64 31.75 46.91 31.75h5.73c.69 4.4 1.05 8.91 1.05 13.5z" fill="#ffddce"/><path d="m395.688 333.439c-7.01 1.84-14.37 2.81-21.95 2.81-47.85 0-86.65-38.8-86.65-86.65v-84.06c0-4.59.36-9.1 1.05-13.5h43.89c-.69 4.4-1.05 8.91-1.05 13.5v84.06c0 40.27 27.48 74.13 64.71 83.84z" fill="#ffcbbe"/><path d="m396.228 136.489v90.19h-22.01v-76.74c8.49-2.52 16.05-7.22 22.01-13.45z" fill="#ffcbbe"/><path d="m398.401 210.528h-17.727c-6.808 0-12.327 5.519-12.327 12.327 0 6.808 5.519 12.327 12.327 12.327h17.727c6.808 0 12.327-5.519 12.327-12.327.001-6.808-5.518-12.327-12.327-12.327z" fill="#ffcbbe"/><path d="m337.292 178.998c-5.881 0-11.76-2.238-16.236-6.715-2.734-2.734-2.734-7.166 0-9.899 2.733-2.734 7.166-2.734 9.899 0 3.495 3.494 9.18 3.494 12.674 0 2.734-2.734 7.167-2.733 9.899 0 2.734 2.734 2.733 7.166 0 9.899-4.475 4.476-10.356 6.715-16.236 6.715z" fill="#26457d"/><path d="m432.823 178.998c-5.88 0-11.76-2.238-16.237-6.714-2.733-2.734-2.734-7.166 0-9.899 2.733-2.734 7.165-2.734 9.899 0 3.494 3.494 9.18 3.494 12.674 0 2.733-2.734 7.166-2.734 9.899 0 2.734 2.734 2.734 7.166 0 9.899-4.475 4.476-10.355 6.714-16.235 6.714z" fill="#26457d"/><path d="m371.192 283.572c-20.82 0-37.759-16.938-37.759-37.759 0-3.59 2.91-6.5 6.5-6.5s6.5 2.91 6.5 6.5c0 13.652 11.107 24.759 24.759 24.759 3.59 0 6.5 2.91 6.5 6.5s-2.91 6.5-6.5 6.5z" fill="#ffcbbe"/><path d="m351.296 204.211c-6.077 0-11.003-4.926-11.003-11.003v-22.923c0-6.077 4.926-11.003 11.003-11.003 6.077 0 11.003 4.926 11.003 11.003v22.923c0 6.077-4.926 11.003-11.003 11.003z" fill="#21386b"/><path d="m419.148 204.211c-6.077 0-11.003-4.926-11.003-11.003v-22.923c0-6.077 4.926-11.003 11.003-11.003 6.077 0 11.003 4.926 11.003 11.003v22.923c0 6.077-4.926 11.003-11.003 11.003z" fill="#21386b"/></g><g><path d="m257.67 440.9v71.09c-.55.01-1.11.01-1.67.01-81.28 0-153.71-37.88-200.6-96.95 10.53-28.67 38.07-49.12 70.39-49.12h56.91c41.4 0 74.97 33.56 74.97 74.97z" fill="#dd5790"/><path d="m175.67 365.93c-41.4 0-74.97 33.56-74.97 74.97v18.63c-16.88-12.9-32.1-27.85-45.3-44.48 10.52-28.67 38.06-49.12 70.39-49.12z" fill="#9d549b"/><path d="m187.832 282.23v88.82c0 9.37-3.8 17.85-9.94 23.98-6.13 6.14-14.61 9.94-23.98 9.94-6.6 0-12.76-1.88-17.96-5.15-9.58-5.99-15.96-16.64-15.96-28.77v-88.82z" fill="#ffddce"/><path d="m187.832 282.23v84.65c-4.62.65-9.33.98-14.13.98-19.71 0-38.12-5.6-53.71-15.3v-70.33z" fill="#ffcbbe"/><path d="m135.952 316.71v83.11c-9.58-5.99-15.96-16.64-15.96-28.77v-54.34z" fill="#ffcbbe"/><path d="m132.58 44.803c-36.482 0-67.013 25.391-74.943 59.459l-18.072-18.073c-12.878 12.878-15.458 32.142-7.765 47.592h-21.8c0 22.802 18.485 41.287 41.287 41.287 1.461 0 2.904-.078 4.327-.227v7.301h126.033v-137.339z" fill="#21386b"/><path d="m59.876 187.203c-16.123 16.123-16.123 42.265 0 58.388s42.265 16.123 58.388 0" fill="#26457d"/><path d="m282.067 223.149h-225.392c-14.592 0-26.422-11.829-26.422-26.422 0-14.592 11.829-26.422 26.422-26.422h225.392c14.592 0 26.422 11.829 26.422 26.422 0 14.593-11.829 26.422-26.422 26.422z" fill="#ffcbbe"/><path d="m56.675 208.015c-6.224 0-11.288-5.064-11.288-11.287 0-6.224 5.063-11.288 11.288-11.288h225.392c6.224 0 11.288 5.064 11.288 11.287s-5.063 11.288-11.288 11.288z" fill="#eaac9d"/><path d="m173.702 352.561c-56.285 0-101.912-45.627-101.912-101.912v-72.255c0-56.284 45.627-101.912 101.912-101.912h56.797c24.916 0 45.115 20.199 45.115 45.115v129.052c-.001 56.284-45.628 101.912-101.912 101.912z" fill="#ffddce"/><path d="m198.851 349.431c-8.043 2.043-16.464 3.124-25.144 3.124-56.288 0-101.917-45.618-101.917-101.906v-72.254c0-56.288 45.629-101.917 101.917-101.917h50.277c-56.277 0-101.906 45.629-101.906 101.917v72.254c0 47.618 32.646 87.594 76.773 98.782z" fill="#ffcbbe"/><path d="m147.306 197.267c-7.147 0-12.941-5.794-12.941-12.941v-26.961c0-7.147 5.794-12.941 12.941-12.941 7.147 0 12.941 5.794 12.941 12.941v26.961c0 7.147-5.794 12.941-12.941 12.941z" fill="#21386b"/><path d="m227.11 197.267c-7.147 0-12.941-5.794-12.941-12.941v-26.961c0-7.147 5.794-12.941 12.941-12.941 7.147 0 12.941 5.794 12.941 12.941v26.961c0 7.147-5.794 12.941-12.941 12.941z" fill="#21386b"/><path d="m200.149 223.688h-25.882v-134.265c0-7.147 5.794-12.941 12.941-12.941 7.147 0 12.941 5.794 12.941 12.941z" fill="#ffcbbe"/><path d="m99.294 57.764v15.366c-19.824 7.26-33.971 26.295-33.971 48.634v48.542h7.135c25.542 0 46.248-20.706 46.248-46.248v-31.066h21.717c18.977 0 34.361-15.384 34.361-34.361v-.868h-75.49z" fill="#21386b"/><path d="m267.331 55.613 23.035-23.035c-21.718-21.718-56.93-21.718-78.648 0v-32.578c-30.714 0-55.613 24.899-55.613 55.613s24.899 55.612 55.613 55.612h111.225c0-30.714-24.898-55.612-55.612-55.612z" fill="#26457d"/><g fill="#ffcbbe"><path d="m202.708 204.696h-20.85c-8.008 0-14.499 6.491-14.499 14.499 0 8.008 6.491 14.499 14.499 14.499h20.85c8.008 0 14.499-6.491 14.499-14.499 0-8.008-6.491-14.499-14.499-14.499z"/><path d="m171.636 274.103c-20.82 0-37.759-16.938-37.759-37.759 0-3.59 2.91-6.5 6.5-6.5s6.5 2.91 6.5 6.5c0 13.652 11.107 24.759 24.759 24.759 3.59 0 6.5 2.91 6.5 6.5s-2.91 6.5-6.5 6.5z"/></g></g></g></svg>