<svg id="Capa_1" enable-background="new 0 0 512 512" height="512" viewBox="0 0 512 512" width="512" xmlns="http://www.w3.org/2000/svg"><g><path d="m512 256c0 141.38-114.62 256-256 256s-256-114.62-256-256c0-9.24.49-18.36 1.45-27.34 5.48-51.62 31.249-45.328 62.759-83.138 3.4-4.08 1.971-61.372 5.611-65.232l.01-.01c46.68-49.43 112.82-80.28 186.17-80.28 64.12 0 122.74 23.58 167.65 62.53 4.56 3.96 8.98 8.07 13.26 12.34 24.915 24.885 16.338 65.185 29.341 98.585 4.334 11.133 36.301 12.337 39.059 24.165 4.38 18.75 6.69 38.29 6.69 58.38z" fill="#9d66d5"/><g><g><path d="m505.31 197.62-44.77 44.77c-9.43 9.44-15.94 21.39-18.72 34.44v.01c-4.49 21.09-14.99 40.42-30.23 55.66l-10.48 10.48-32.86 32.85-44.78 44.78-93.24-164.66 193.42-193.42c40.05 34.74 69.21 81.7 81.66 135.09z" fill="#eaac9d"/></g><path d="m401.11 342.98-32.86 32.85-128.17-128.16 16.22-16.23c9.19-9.19 24.09-9.19 33.28 0z" fill="#df9380"/><g><g><path d="m342.76 380.18 17.57 17.57c11.38 11.39 11.66 30.29.19 41.58-1.64 1.61-3.41 2.98-5.29 4.11-4.61 2.82-9.83 4.22-15.05 4.22-7.43 0-14.86-2.84-20.52-8.51l-21.2-21.19c11.33 11.33 11.33 29.7 0 41.04-5.67 5.66-13.09 8.5-20.52 8.5-7.43-.01-14.84-2.83-20.51-8.5l-41.25-41.25c4.62 4.61 6.93 10.66 6.92 16.7.01 6.05-2.3 12.09-6.92 16.7-9.22 9.22-24.17 9.22-33.4 0l-88.11-88.12c-15.24-15.24-25.74-34.57-30.23-55.66-1.4-6.53-3.72-12.78-6.87-18.58s-7.13-11.15-11.85-15.86l-44.27-44.27c6.07-57.19 30.97-108.75 68.38-148.38l88.86 88.87c6.31 6.31 14.87 9.86 23.8 9.86h62.93l42.71 64.47 95.66 95.66c5.67 5.67 8.5 13.1 8.5 20.52.01 7.43-2.84 14.86-8.5 20.53-11.33 11.33-29.7 11.32-41.03-.01z" fill="#ffddce"/></g><g><path d="m167.782 369.35 48.403 48.402c9.226 9.226 9.226 24.176.005 33.396-1.346 1.346-2.818 2.49-4.373 3.444 5.575-9.095 4.43-21.145-3.448-29.024l-40.586-40.586c-4.318-4.317-4.318-11.316-.001-15.632z" fill="#ffcbbe"/></g><g fill="#ffcbbe"><path d="m378.318 384.476c2.798-4.605 4.205-9.821 4.2-15.043 0-7.424-2.829-14.853-8.497-20.521l-85.846-85.846c-5.402-5.402-5.42-14.156-.04-19.58l95.656 95.656c5.668 5.668 8.497 13.097 8.497 20.521.005 7.429-2.834 14.858-8.497 20.52-1.684 1.685-3.522 3.112-5.473 4.293z"/><path d="m360.52 439.333c-1.638 1.604-3.412 2.979-5.287 4.108 2.792-4.608 4.201-9.811 4.193-15.031 0-7.418-2.826-14.852-8.496-20.522l-80.755-80.746c-5.398-5.398-5.398-14.148 0-19.546l90.159 90.159c11.381 11.38 11.661 30.29.186 41.578z"/><path d="m228.499 347.994 69.966 69.966c5.668 5.668 8.497 13.097 8.497 20.521.005 7.429-2.834 14.858-8.497 20.52-1.684 1.684-3.522 3.111-5.473 4.292 2.798-4.605 4.205-9.821 4.2-15.043 0-7.424-2.829-14.853-8.497-20.521l-60.196-60.196c-5.396-5.395-5.396-14.143 0-19.539z"/></g><g><path d="m280.77 201.48h-98.29c-8.92.01-17.48-3.54-23.79-9.85l-99.43-99.43c3.4-4.08 6.92-8.05 10.56-11.91l88.87 88.86c6.31 6.31 14.87 9.86 23.79 9.85h98.29c8.91 0 8.91 22.48 0 22.48z" fill="#ffcbbe"/></g></g><path d="m423.65 62.53-106.38 196.6-4.74 8.75-20.22-20.21c-14.42-14.43-37.81-14.43-52.23 0l-27.19 27.18c-6.29 6.3-14.55 9.45-22.8 9.45s-16.5-3.15-22.8-9.45c-12.59-12.59-12.59-33 0-45.59l75.04-75.04c8.37-8.37 19.73-13.07 31.57-13.07h71.14z" fill="#eaac9d"/><g fill="#df9380"><path d="m317.27 259.13-4.74 8.75-20.22-20.21c-14.42-14.43-37.81-14.43-52.23 0l16.22-16.23c9.19-9.19 24.09-9.19 33.28 0z"/><path d="m436.91 74.87-85.12 83.27h-60.9c-11.84 0-23.2 4.7-31.58 13.07l-75.03 75.03c-9.58 9.59-11.87 23.72-6.86 35.46-3.67-1.56-7.13-3.85-10.13-6.85-12.59-12.59-12.59-33 0-45.59l75.03-75.04c8.38-8.37 19.74-13.08 31.59-13.08h71.13l78.61-78.61c4.56 3.96 8.98 8.07 13.26 12.34z"/></g></g><g><circle cx="423.643" cy="88.357" fill="#dd5790" r="88.357"/><circle cx="423.643" cy="88.357" fill="#f9f6f6" r="74.357"/><circle cx="423.643" cy="88.357" fill="#f9f6f6" r="74.357"/><path d="m439.105 161.097c-4.99 1.06-10.16 1.62-15.46 1.62-41 0-74.36-33.36-74.36-74.36s33.36-74.36 74.36-74.36c5.3 0 10.47.56 15.46 1.62-33.6 7.13-58.89 37.04-58.89 72.74s25.29 65.61 58.89 72.74z" fill="#dddaec"/><g fill="#dd5790"><path d="m384.436 127.564c-4.972-4.972-4.972-13.034 0-18.006l60.407-60.407c4.972-4.972 13.034-4.972 18.006 0 4.972 4.972 4.972 13.034 0 18.006l-60.407 60.407c-4.972 4.972-13.034 4.972-18.006 0z"/><path d="m384.436 49.151c4.972-4.972 13.034-4.972 18.006 0l60.407 60.407c4.972 4.972 4.972 13.034 0 18.006-4.972 4.972-13.034 4.972-18.006 0l-60.407-60.407c-4.972-4.972-4.972-13.034 0-18.006z"/></g></g></g></svg>