<svg id="Capa_1" enable-background="new 0 0 512 512" height="512" viewBox="0 0 512 512" width="512" xmlns="http://www.w3.org/2000/svg"><g><path d="m512 256c0 50.74-14.77 98.03-40.23 137.82-27.77 43.4-68.29 41.071-116.26 61.331-7.91 3.33-16.01 6.29-24.3 8.83-1.82.56-3.64 1.09-5.48 1.61-21.67 6.13-44.52 9.47-68.12 9.61-.54.01.54 0 0 0-28.49 0-54.207-15.353-79.807-23.943-39.14-13.13-55.005-24.912-83.135-53.872-6.74-6.95-9.932-2.851-15.852-10.531-9.59-12.42-43.585-.225-50.805-14.305-17.911-34.96-28.011-74.57-28.011-116.55s10.1-81.59 28.01-116.55c7.22-14.08 15.7-27.4 25.29-39.82 5.92-7.68 12.28-15 19.02-21.95 17.21-17.72 36.97-32.97 58.69-45.14 13.51-7.58 27.79-13.97 42.68-19.01 25.83-8.77 53.52-13.53 82.31-13.53 141.38 0 256 114.62 256 256z" fill="#9d66d5"/><path d="m331.14 47.25v436.8c0 6.76-1.99 13.06-5.41 18.33-21.67 6.13-44.52 9.47-68.12 9.61-.54.01-1.07.01-1.61.01-28.49 0-55.9-4.66-81.5-13.25-39.14-13.13-74.05-35.47-102.18-64.43-6.74-6.95-13.1-14.27-19.02-21.95-9.59-12.42-18.07-25.74-25.29-39.82v-325.3c0-18.62 15.1-33.72 33.72-33.72h235.69c18.63 0 33.72 15.1 33.72 33.72z" fill="#664545"/><path d="m356.44 47.25v436.8c0 2.72-.32-31.429-.93-28.899-7.91 3.33-16.01 6.29-24.3 8.83-23.29 7.15-48 47.859-73.6 48.009-.54.01-1.07.01-1.61.01-28.49 0-55.9-4.66-81.5-13.25-39.14-13.13-74.05-35.47-102.18-64.43-6.74-6.95-13.1-14.27-19.02-21.95v-365.12c0-18.62 15.1-33.72 33.72-33.72h235.7c18.62 0 33.72 15.1 33.72 33.72z" fill="#98695e"/><path d="m337.42 47.25v436.79c0 8.13-6.58 14.71-14.7 14.71h-148.22c-39.14-13.13-74.05-35.47-102.18-64.43v-387.07c0-8.12 6.58-14.71 14.7-14.71h235.7c8.12 0 14.7 6.59 14.7 14.71z" fill="#664545"/><circle cx="133.128" cy="273.65" fill="#ffe07d" r="32.251"/><path d="m143.465 304.21c-3.242 1.093-6.722 1.692-10.335 1.692-17.809 0-32.252-14.433-32.252-32.252 0-17.809 14.443-32.242 32.252-32.242 3.613 0 7.093.59 10.335 1.692-12.741 4.307-21.907 16.354-21.907 30.55s9.166 26.252 21.907 30.56z" fill="#ffc250"/><circle cx="204.87" cy="159.952" fill="#26457d" r="19.952"/><ellipse cx="194.485" cy="159.952" fill="#21386b" rx="9.568" ry="17.013"/><path d="m471.77 365.6v28.22c-45.22 70.65-124.19 117.62-214.16 118.17v-146.39c0-10.73 8.7-19.42 19.42-19.42h175.32c10.72 0 19.42 8.69 19.42 19.42z" fill="#ffe07d"/><path d="m350.63 346.18c-10.72 0-19.42 8.69-19.42 19.42v135.17c-23.29 7.15-48 11.07-73.6 11.22v-146.39c0-10.73 8.7-19.42 19.43-19.42z" fill="#ffc250"/><path d="m471.545 346.175 28.822 49.216h-140.332l-28.823-49.216" fill="#ffc250"/><path d="m413.289 137.339h-27.656c-5.219 0-9.45-4.231-9.45-9.45v-27.656c0-5.219 4.231-9.45 9.45-9.45h27.656c5.219 0 9.45 4.231 9.45 9.45v27.656c0 5.22-4.231 9.45-9.45 9.45z" fill="#dddaec"/><path d="m424.112 137.339h-27.656c-5.219 0-9.45-4.231-9.45-9.45v-27.656c0-5.219 4.231-9.45 9.45-9.45h27.656c5.219 0 9.45 4.231 9.45 9.45v27.656c0 5.22-4.231 9.45-9.45 9.45z" fill="#f9f6f6"/><circle cx="410.284" cy="114.062" fill="#21386b" r="13.523"/><g fill="#e4f6ff"><path d="m410.832 314.493-1.713-.989c-6.041-3.488-8.349-11.057-5.283-17.322l9.431-19.271c3.378-6.903 11.896-9.501 18.551-5.658l4.256 2.457c6.655 3.842 8.664 12.518 4.375 18.895l-11.974 17.803c-3.893 5.787-11.602 7.573-17.643 4.085z"/><path d="m357.429 296.986h-1.978c-6.975 0-12.759-5.401-13.237-12.36l-1.468-21.405c-.526-7.667 5.552-14.176 13.237-14.176h4.914c7.685 0 13.763 6.509 13.237 14.176l-1.468 21.405c-.478 6.959-6.262 12.36-13.237 12.36z"/><path d="m303.761 313.504-1.713.989c-6.041 3.488-13.75 1.702-17.643-4.086l-11.974-17.803c-4.289-6.377-2.28-15.052 4.375-18.895l4.256-2.457c6.655-3.842 15.173-1.245 18.551 5.658l9.431 19.271c3.066 6.266.757 13.836-5.283 17.323z"/></g></g></svg>